{"glyphs":{"0":{"x_min":48,"x_max":686,"ha":730,"o":"m 310 -24 q 305 -24 296 -22 q 287 -21 273 -19 l 273 -19 l 219 -8 q 213 -5 208 -3 q 202 -2 198 0 l 198 0 q 196 1 192 3 q 188 5 188 8 l 188 8 q 179 11 166 18 l 166 18 q 153 22 144 28 l 144 28 l 130 38 q 120 44 116 48 l 116 48 q 87 73 71 119 l 71 119 q 58 157 51 208 l 51 208 q 48 238 48 286 l 48 286 q 48 343 54 375 l 54 375 q 59 412 75 464 l 75 464 q 82 470 98 503 l 98 503 q 102 508 104 514 q 106 519 109 523 l 109 523 q 110 524 113 529 q 115 533 118 533 l 118 533 q 126 533 141 548 l 141 548 q 146 551 155 560 l 155 560 q 162 567 168 570 l 168 570 q 196 587 238 594 l 238 594 q 245 595 257 597 q 268 598 275 598 l 275 598 q 288 598 297 599 q 306 600 313 601 l 313 601 q 376 599 418 593 l 418 593 q 455 589 511 578 l 511 578 q 514 578 521 575 l 521 575 q 554 564 571 555 l 571 555 q 583 549 583 543 l 583 543 l 583 534 q 594 534 606 525 q 618 515 628 499 l 628 499 q 639 485 645 469 q 651 453 651 443 l 651 443 q 660 443 662 442 q 663 441 663 433 l 663 433 q 668 408 673 393 l 673 393 q 675 385 678 376 q 680 366 683 353 l 683 353 l 684 345 l 686 308 l 686 283 q 686 208 676 166 l 676 166 q 662 101 621 65 l 621 65 q 606 52 588 41 l 588 41 l 553 18 q 523 8 509 1 l 509 1 l 466 -14 q 432 -14 389 -19 l 389 -19 q 356 -24 310 -24 l 310 -24 m 368 121 q 399 121 413 148 l 413 148 q 418 160 419 175 q 420 190 420 193 l 420 193 l 421 221 q 424 251 424 279 l 424 279 q 425 288 425 303 l 425 303 q 425 327 420 350 q 415 372 409 392 q 403 412 401 418 l 401 418 q 399 436 393 446 q 386 456 370 456 l 370 456 q 340 456 330 424 l 330 424 q 325 412 323 396 l 323 396 q 323 390 320 369 l 320 369 l 313 320 q 306 298 306 271 l 306 271 q 306 236 313 208 l 313 208 q 315 193 322 177 q 328 160 330 153 l 330 153 q 331 143 348 133 l 348 133 q 353 128 359 125 q 365 121 368 121 l 368 121"},"1":{"x_min":38,"x_max":476,"ha":533,"o":"m 443 0 q 373 0 345 1 l 345 1 l 308 1 q 284 3 236 3 l 236 3 l 194 3 q 164 3 154 11 l 154 11 q 140 22 140 54 l 140 54 l 141 63 q 141 66 142 70 q 143 73 143 78 l 143 78 l 145 100 l 143 128 q 143 132 142 136 q 141 139 141 143 l 141 143 l 140 150 q 139 160 139 188 l 139 188 l 139 278 q 138 309 138 350 l 138 350 q 138 361 135 361 l 135 361 q 131 361 123 353 l 123 353 q 105 331 85 315 l 85 315 q 75 308 63 308 l 63 308 q 52 308 45 314 q 38 320 38 328 l 38 328 l 38 519 q 38 523 40 524 l 40 524 q 42 525 44 527 q 46 529 49 530 l 49 530 q 55 533 65 539 q 74 545 88 553 l 88 553 q 116 572 130 576 l 130 576 q 143 581 153 581 l 153 581 q 255 581 301 580 l 301 580 l 449 579 q 460 579 468 571 l 468 571 q 476 563 476 553 l 476 553 l 476 220 q 476 176 473 138 l 473 138 q 470 98 470 61 l 470 61 q 470 33 466 21 l 466 21 q 461 0 443 0 l 443 0"},"2":{"x_min":49,"x_max":570,"ha":620,"o":"m 213 0 q 135 0 99 5 l 99 5 q 72 10 64 14 l 64 14 q 51 20 51 30 l 51 30 q 51 56 78 83 l 78 83 l 78 82 q 78 82 84 88 l 84 88 q 91 95 129 141 l 129 141 q 156 172 185 213 l 185 213 q 190 221 197 231 q 203 240 206 246 l 206 246 q 219 263 233 293 l 233 293 q 239 307 244 322 q 248 336 248 348 l 248 348 q 248 375 231 386 l 231 386 q 215 398 174 398 l 174 398 q 149 398 121 393 l 121 393 q 103 388 63 368 l 63 368 q 63 369 62 372 q 61 375 60 379 l 60 379 q 57 401 54 445 l 54 445 l 51 497 l 50 518 l 49 536 l 49 543 l 93 563 q 148 580 205 589 l 205 589 q 262 598 318 598 l 318 598 q 366 598 411 588 q 456 577 490 556 l 490 556 q 569 507 569 408 l 569 408 q 569 355 534 305 q 499 255 426 203 l 426 203 l 468 203 l 509 203 q 538 203 549 199 l 549 199 q 570 192 570 176 l 570 176 q 570 145 568 111 l 568 111 l 568 86 l 568 59 q 568 31 560 18 l 560 18 q 549 4 516 4 l 516 4 q 513 1 503 1 l 503 1 q 486 0 428 0 l 428 0 l 334 0 l 298 0 l 255 0 l 213 0"},"3":{"x_min":45,"x_max":564,"ha":608,"o":"m 261 -29 q 249 -29 225 -25 l 225 -25 q 192 -21 173 -16 l 173 -16 q 156 -12 151 -10 l 151 -10 q 143 -8 143 -5 l 143 -5 q 138 -4 133 -2 q 127 0 120 1 l 120 1 q 109 3 99 10 q 88 16 85 18 l 85 18 l 71 25 l 81 163 q 152 146 198 146 l 198 146 q 234 146 251 158 l 251 158 q 273 171 273 199 l 273 199 q 273 236 210 241 l 210 241 q 173 241 128 238 l 128 238 l 128 346 l 145 346 q 151 345 164 345 l 164 345 q 198 345 221 354 l 221 354 q 246 364 246 395 l 246 395 q 246 420 226 429 l 226 429 q 209 438 173 438 l 173 438 q 132 438 55 408 l 55 408 l 45 549 q 103 574 159 584 l 159 584 q 227 598 295 598 l 295 598 l 365 593 q 399 587 425 581 l 425 581 q 426 581 428 581 q 430 580 433 579 l 433 579 q 456 570 465 565 l 465 565 q 473 562 473 558 l 473 558 l 473 550 q 491 550 506 521 l 506 521 q 510 515 513 509 q 515 503 518 498 l 518 498 l 525 479 q 533 461 533 453 l 533 453 q 535 438 539 423 l 539 423 q 539 393 524 364 l 524 364 q 511 336 484 315 l 484 315 q 564 269 564 188 l 564 188 q 564 108 539 56 l 539 56 q 529 36 518 23 q 506 10 498 8 l 498 8 q 445 -19 383 -24 l 383 -24 q 343 -29 261 -29 l 261 -29"},"4":{"x_min":33,"x_max":693,"ha":728,"o":"m 393 -53 q 377 -53 373 -23 l 373 -23 q 373 -16 372 -10 q 371 -4 371 3 l 371 3 q 371 16 370 19 l 370 19 l 368 56 l 364 56 l 293 56 q 201 56 153 55 l 153 55 q 130 55 78 53 l 78 53 q 53 54 41 63 l 41 63 q 33 66 33 73 l 33 73 l 33 126 q 33 169 38 191 l 38 191 q 39 208 54 260 l 54 260 l 70 318 l 76 333 q 79 342 95 380 l 95 380 l 115 428 l 171 553 q 192 595 198 605 l 198 605 q 199 606 206 611 l 206 611 q 209 613 211 615 q 213 617 215 618 l 215 618 l 278 618 q 300 618 336 615 l 336 615 q 344 620 370 620 l 370 620 q 398 620 410 619 l 410 619 q 423 618 451 618 l 451 618 l 453 618 l 455 619 l 493 619 q 495 618 499 618 l 499 618 l 506 618 q 514 620 520 618 l 520 618 l 525 618 l 538 618 l 553 618 l 568 618 q 573 616 579 616 l 579 616 q 588 616 590 603 l 590 603 q 591 598 591 586 l 591 586 l 590 552 q 588 524 588 507 l 588 507 q 588 486 591 463 l 591 463 l 591 449 q 588 401 588 348 l 588 348 q 586 321 586 255 l 586 255 l 586 238 l 658 238 q 678 238 688 198 l 688 198 q 693 176 693 136 l 693 136 q 693 129 691 123 l 691 123 q 691 108 690 100 l 690 100 q 690 85 689 80 l 689 80 q 689 71 688 69 q 687 67 681 65 l 681 65 q 674 63 656 63 l 656 63 q 651 61 644 61 l 644 61 l 614 61 q 594 61 584 60 l 584 60 l 583 44 q 581 31 581 9 l 581 9 q 581 -26 574 -38 l 574 -38 q 569 -43 558 -43 l 558 -43 q 557 -43 556 -42 q 555 -41 555 -41 l 555 -41 q 553 -41 551 -43 l 551 -43 l 548 -43 q 544 -43 543 -44 l 543 -44 l 523 -43 l 518 -43 q 515 -41 511 -41 l 511 -41 q 508 -41 505 -44 l 505 -44 l 440 -44 l 433 -45 q 425 -47 418 -49 q 410 -51 403 -53 l 403 -53 l 393 -53 m 309 238 l 358 238 l 358 501 l 343 458 q 337 442 333 430 q 328 418 325 409 l 325 409 q 318 393 308 359 l 308 359 q 293 323 274 271 l 274 271 q 265 247 263 239 l 263 239 q 293 239 309 238 l 309 238"},"5":{"x_min":49,"x_max":543,"ha":588,"o":"m 238 -29 q 224 -29 203 -25 l 203 -25 q 171 -21 149 -16 l 149 -16 q 132 -12 129 -10 l 129 -10 q 120 -9 119 -5 l 119 -5 q 104 0 98 1 l 98 1 q 84 5 76 9 l 76 9 l 49 25 l 55 59 l 54 95 l 56 123 l 59 163 q 127 146 176 146 l 176 146 q 210 146 229 158 l 229 158 q 250 170 250 199 l 250 199 q 250 236 188 241 l 188 241 q 140 241 81 238 l 81 238 l 78 278 l 79 294 l 79 315 l 79 330 q 79 336 80 338 l 80 338 l 79 363 q 79 364 79 368 q 78 371 78 381 l 78 381 q 74 394 74 428 l 74 428 l 74 573 q 75 575 77 578 q 79 581 83 583 l 83 583 l 85 583 q 86 581 89 581 l 89 581 q 96 581 102 582 q 107 583 113 583 l 113 583 q 124 586 136 586 l 136 586 q 152 586 174 584 l 174 584 q 188 583 214 583 l 214 583 l 218 585 l 263 585 q 264 583 270 583 l 270 583 l 273 583 l 278 583 q 280 584 284 584 l 284 584 q 285 585 288 585 l 288 585 l 300 583 l 458 583 q 459 581 462 580 q 464 579 465 579 l 465 579 q 468 579 470 580 l 470 580 q 476 580 479 581 l 479 581 q 484 581 488 583 l 488 583 l 493 583 q 499 583 503 571 l 503 571 q 510 554 513 503 l 513 503 q 514 488 514 458 l 514 458 q 514 453 511 451 q 508 448 504 447 q 500 446 498 445 l 498 445 q 495 445 492 445 q 488 444 483 445 l 483 445 l 469 445 l 458 445 q 445 445 433 443 l 433 443 q 429 443 422 442 q 415 441 403 441 l 403 441 l 384 441 q 374 441 373 443 l 373 443 l 365 438 l 361 419 q 356 404 355 371 l 355 371 q 404 366 430 358 l 430 358 l 436 356 q 452 353 470 343 l 470 343 q 478 338 478 334 l 478 334 l 478 328 q 495 328 511 298 l 511 298 l 523 274 q 525 266 529 258 l 529 258 q 538 237 539 228 l 539 228 q 543 204 543 198 l 543 198 q 543 122 518 59 l 518 59 q 507 37 496 24 q 484 10 475 8 l 475 8 q 423 -19 360 -24 l 360 -24 q 320 -29 238 -29 l 238 -29"},"6":{"x_min":43,"x_max":679,"ha":721,"o":"m 383 -11 q 295 -11 221 23 l 221 23 q 139 60 93 125 l 93 125 q 43 195 43 298 l 43 298 q 43 345 47 377 q 50 408 61 436 l 61 436 q 85 498 148 556 l 148 556 q 248 623 410 623 l 410 623 q 472 623 546 603 l 546 603 l 579 591 q 599 582 609 573 l 609 573 q 611 572 613 571 q 615 569 619 568 l 619 568 q 631 564 631 545 l 631 545 q 631 531 620 493 l 620 493 l 605 459 q 594 434 580 430 l 580 430 l 575 430 q 568 430 556 433 l 556 433 q 510 446 471 446 l 471 446 q 418 446 388 430 l 388 430 q 362 416 356 395 l 356 395 q 352 380 350 364 l 350 364 q 411 384 470 384 l 470 384 q 547 384 594 354 l 594 354 q 634 331 657 293 q 679 254 679 203 l 679 203 q 679 152 655 111 q 631 70 588 43 l 588 43 q 547 17 494 3 q 440 -11 383 -11 l 383 -11 m 428 150 q 479 150 479 199 l 479 199 q 479 236 433 236 l 433 236 q 403 236 381 228 l 381 228 q 367 225 358 220 l 358 220 q 374 150 428 150 l 428 150"},"7":{"x_min":36,"x_max":568,"ha":599,"o":"m 306 -96 q 293 -96 271 -88 q 248 -80 225 -66 l 225 -66 q 170 -36 136 -6 l 136 -6 q 95 28 95 45 l 95 45 q 95 46 97 49 q 98 52 100 59 l 100 59 q 107 73 111 83 l 111 83 q 123 112 135 134 l 135 134 l 147 159 q 150 168 158 184 l 158 184 q 161 189 173 213 l 173 213 q 181 231 183 235 l 183 235 l 224 321 q 227 327 230 334 q 233 340 234 345 l 234 345 q 226 345 211 346 q 195 347 185 348 l 185 348 l 144 348 l 108 348 l 74 348 q 50 348 41 404 l 41 404 q 36 435 36 490 l 36 490 q 36 498 38 505 l 38 505 l 38 529 q 38 544 39 551 l 39 551 q 39 560 41 563 q 42 565 48 568 l 48 568 q 54 569 62 570 q 70 571 75 571 l 75 571 l 88 571 q 92 571 146 574 l 146 574 q 184 578 204 578 l 204 578 q 409 578 518 580 l 518 580 q 545 579 558 571 l 558 571 q 568 564 568 558 l 568 558 l 568 398 q 568 386 563 372 q 557 358 545 333 l 545 333 l 520 281 l 486 210 q 485 207 484 203 q 482 198 479 191 l 479 191 q 472 169 438 100 l 438 100 q 424 70 399 24 l 399 24 l 374 -23 q 367 -37 348 -63 l 348 -63 q 341 -73 326 -88 l 326 -88 q 324 -92 318 -94 q 312 -96 306 -96 l 306 -96"},"8":{"x_min":48,"x_max":698,"ha":743,"o":"m 380 -11 q 324 -11 274 -4 l 274 -4 q 187 7 128 43 l 128 43 l 114 48 q 105 51 103 55 l 103 55 q 67 77 58 110 l 58 110 q 48 139 48 188 l 48 188 q 48 232 59 261 l 59 261 q 72 294 108 315 l 108 315 q 84 333 68 364 l 68 364 q 53 393 53 423 l 53 423 q 53 479 84 521 l 84 521 q 87 526 98 535 l 98 535 q 102 537 106 541 q 109 544 113 546 l 113 546 q 139 568 154 573 l 154 573 q 199 596 273 603 l 273 603 l 338 603 l 403 603 q 442 603 484 595 l 484 595 q 524 589 556 573 l 556 573 q 589 560 613 543 q 636 525 646 509 l 646 509 q 669 468 669 425 l 669 425 q 669 395 658 365 l 658 365 q 642 334 618 315 l 618 315 q 698 269 698 188 l 698 188 q 698 117 664 75 l 664 75 q 642 49 618 36 l 618 36 q 596 22 554 8 l 554 8 l 525 1 q 513 -1 505 -1 l 505 -1 q 491 -1 465 -5 l 465 -5 q 442 -10 413 -10 l 413 -10 q 403 -11 380 -11 l 380 -11 m 364 345 q 386 345 394 358 l 394 358 q 405 375 405 415 l 405 415 q 405 460 391 479 l 391 479 q 384 487 375 490 q 366 492 363 493 l 363 493 q 361 492 352 491 q 343 489 336 481 l 336 481 q 329 474 325 458 l 325 458 q 321 438 321 415 l 321 415 q 321 373 333 356 l 333 356 q 344 345 364 345 l 364 345 m 378 98 q 387 98 394 101 q 400 104 405 113 l 405 113 q 410 121 413 143 l 413 143 q 416 160 416 194 l 416 194 q 416 233 406 250 l 406 250 q 393 268 378 268 l 378 268 l 363 268 q 351 268 343 250 l 343 250 q 334 228 334 194 l 334 194 q 334 132 348 113 l 348 113 q 352 104 360 101 q 367 98 378 98 l 378 98"},"9":{"x_min":43,"x_max":679,"ha":721,"o":"m 311 -11 q 248 -11 174 10 l 174 10 q 149 20 143 23 l 143 23 q 133 26 123 32 q 113 38 111 39 l 111 39 q 109 41 103 44 l 103 44 q 87 51 90 76 l 90 76 q 90 89 101 119 l 101 119 q 113 142 115 153 l 115 153 q 122 167 128 174 q 134 181 143 183 l 143 183 q 155 183 165 180 l 165 180 q 213 166 250 166 l 250 166 q 304 166 333 183 l 333 183 q 357 196 365 218 l 365 218 q 368 227 371 249 l 371 249 q 311 228 250 228 l 250 228 q 176 228 126 259 l 126 259 q 86 282 65 320 q 43 358 43 410 l 43 410 q 43 461 67 502 q 90 542 133 570 l 133 570 q 174 596 228 610 q 281 623 338 623 l 338 623 q 429 623 500 589 l 500 589 q 583 552 628 488 l 628 488 q 679 416 679 315 l 679 315 q 679 272 675 239 q 671 205 660 176 l 660 176 q 638 114 574 56 l 574 56 q 471 -11 311 -11 l 311 -11 m 288 376 q 312 376 340 384 l 340 384 q 352 387 364 393 l 364 393 q 346 463 294 463 l 294 463 q 270 463 257 451 q 243 439 243 414 l 243 414 q 243 394 255 384 l 255 384 q 266 376 288 376 l 288 376"},"\r":{"x_min":0,"x_max":0,"ha":258,"o":""}," ":{"x_min":0,"x_max":0,"ha":258,"o":""},"A":{"x_min":54,"x_max":864,"ha":918,"o":"m 73 -1 q 60 -1 55 19 l 55 19 q 54 22 54 29 l 54 29 q 54 39 58 59 l 58 59 q 60 72 62 80 q 63 87 64 91 l 64 91 q 94 232 123 339 l 123 339 l 193 655 q 193 657 196 661 q 199 665 203 666 l 203 666 l 208 666 q 208 665 211 665 l 211 665 q 223 665 238 668 l 238 668 q 253 671 265 671 l 265 671 q 287 671 306 668 l 306 668 q 315 668 326 667 q 337 666 349 666 l 349 666 q 353 666 358 668 l 358 668 l 376 668 l 399 668 l 423 669 q 430 670 440 670 l 440 670 q 448 670 448 671 l 448 671 l 464 671 l 498 671 l 540 671 q 596 671 614 669 l 614 669 q 617 669 623 669 q 628 668 629 666 l 629 666 q 636 666 643 667 q 650 668 656 668 l 656 668 q 670 671 683 671 l 683 671 q 689 671 695 668 l 695 668 q 701 665 708 665 l 708 665 l 713 666 l 716 666 q 719 664 723 661 q 726 657 726 655 l 726 655 l 796 339 q 828 222 854 91 l 854 91 q 854 85 858 78 l 858 78 q 859 71 861 59 q 863 47 863 39 l 863 39 q 864 35 864 28 l 864 28 q 864 14 858 5 l 858 5 q 854 -1 846 -1 l 846 -1 l 833 -1 q 818 -1 810 0 l 810 0 l 784 0 l 759 0 l 739 0 q 731 0 731 1 l 731 1 l 668 1 l 668 3 q 664 5 658 5 l 658 5 q 658 5 658 5 q 657 4 656 3 l 656 3 q 656 1 654 1 l 654 1 l 651 1 l 643 1 q 638 3 623 3 l 623 3 q 593 5 576 5 l 576 5 q 570 14 564 41 q 557 68 550 101 l 550 101 q 548 117 546 123 l 546 123 q 525 119 491 119 l 491 119 l 460 119 l 431 119 l 424 87 q 411 21 403 5 l 403 5 q 399 5 393 3 l 393 3 q 391 2 390 2 q 388 1 388 1 l 388 1 l 384 1 q 378 1 375 3 l 375 3 q 373 5 370 5 l 370 5 l 325 3 l 309 3 l 294 3 q 290 1 284 1 l 284 1 l 280 1 l 188 1 l 179 1 q 168 0 134 0 l 134 0 l 108 0 q 100 -1 85 -1 l 85 -1 l 73 -1 m 535 244 q 528 293 528 293 l 528 293 q 525 307 518 346 l 518 346 q 516 356 508 400 l 508 400 q 500 448 500 448 l 500 448 q 497 468 494 483 l 494 483 l 493 496 q 490 501 490 505 l 490 505 l 489 511 q 488 509 488 505 l 488 505 q 488 501 486 500 l 486 500 l 486 496 l 484 483 q 483 476 482 468 q 480 459 478 449 l 478 449 l 473 421 q 462 358 460 348 l 460 348 q 459 337 455 315 l 455 315 q 453 308 451 294 l 451 294 l 443 248 l 494 248 l 501 250 l 503 250 q 515 250 521 248 l 521 248 q 525 248 529 247 q 532 245 535 244 l 535 244"},"Á":{"x_min":54,"x_max":864,"ha":918,"o":"m 73 -1 q 60 -1 55 19 l 55 19 q 54 22 54 29 l 54 29 q 54 39 58 59 l 58 59 q 60 72 62 80 q 63 87 64 91 l 64 91 q 94 232 123 339 l 123 339 l 193 655 q 193 657 196 661 q 199 665 203 666 l 203 666 l 208 666 q 208 665 211 665 l 211 665 q 223 665 238 668 l 238 668 q 253 671 265 671 l 265 671 q 287 671 306 668 l 306 668 q 315 668 326 667 q 337 666 349 666 l 349 666 q 353 666 358 668 l 358 668 l 376 668 l 399 668 l 423 669 q 430 670 440 670 l 440 670 q 448 670 448 671 l 448 671 l 464 671 l 498 671 l 540 671 q 596 671 614 669 l 614 669 q 617 669 623 669 q 628 668 629 666 l 629 666 q 636 666 643 667 q 650 668 656 668 l 656 668 q 670 671 683 671 l 683 671 q 689 671 695 668 l 695 668 q 701 665 708 665 l 708 665 l 713 666 l 716 666 q 719 664 723 661 q 726 657 726 655 l 726 655 l 796 339 q 828 222 854 91 l 854 91 q 854 85 858 78 l 858 78 q 859 71 861 59 q 863 47 863 39 l 863 39 q 864 35 864 28 l 864 28 q 864 14 858 5 l 858 5 q 854 -1 846 -1 l 846 -1 l 833 -1 q 818 -1 810 0 l 810 0 l 784 0 l 759 0 l 739 0 q 731 0 731 1 l 731 1 l 668 1 l 668 3 q 664 5 658 5 l 658 5 q 658 5 658 5 q 657 4 656 3 l 656 3 q 656 1 654 1 l 654 1 l 651 1 l 643 1 q 638 3 623 3 l 623 3 q 593 5 576 5 l 576 5 q 570 14 564 41 q 557 68 550 101 l 550 101 q 548 117 546 123 l 546 123 q 525 119 491 119 l 491 119 l 460 119 l 431 119 l 424 87 q 411 21 403 5 l 403 5 q 399 5 393 3 l 393 3 q 391 2 390 2 q 388 1 388 1 l 388 1 l 384 1 q 378 1 375 3 l 375 3 q 373 5 370 5 l 370 5 l 325 3 l 309 3 l 294 3 q 290 1 284 1 l 284 1 l 280 1 l 188 1 l 179 1 q 168 0 134 0 l 134 0 l 108 0 q 100 -1 85 -1 l 85 -1 l 73 -1 m 535 244 q 528 293 528 293 l 528 293 q 525 307 518 346 l 518 346 q 516 356 508 400 l 508 400 q 500 448 500 448 l 500 448 q 497 468 494 483 l 494 483 l 493 496 q 490 501 490 505 l 490 505 l 489 511 q 488 509 488 505 l 488 505 q 488 501 486 500 l 486 500 l 486 496 l 484 483 q 483 476 482 468 q 480 459 478 449 l 478 449 l 473 421 q 462 358 460 348 l 460 348 q 459 337 455 315 l 455 315 q 453 308 451 294 l 451 294 l 443 248 l 494 248 l 501 250 l 503 250 q 515 250 521 248 l 521 248 q 525 248 529 247 q 532 245 535 244 l 535 244 m 394 736 q 383 736 379 744 q 375 752 375 766 l 375 766 q 375 816 384 871 l 384 871 q 390 903 392 923 l 392 923 q 393 932 395 946 q 397 959 398 976 l 398 976 q 412 1051 434 1131 l 434 1131 l 442 1137 l 485 1144 q 530 1144 549 1146 l 549 1146 l 604 1147 l 610 1144 q 613 1146 622 1146 l 622 1146 l 632 1146 q 632 1146 634 1145 q 635 1144 637 1144 l 637 1144 l 643 1143 l 687 1141 l 693 1138 q 697 1138 697 1139 l 697 1139 l 700 1139 q 717 1135 727 1131 l 727 1131 q 734 1129 734 1122 l 734 1122 q 734 1120 732 1112 l 732 1112 l 721 1093 l 707 1069 l 692 1041 q 682 1023 677 1016 l 677 1016 q 672 1009 669 1003 q 666 997 662 992 l 662 992 q 646 967 630 931 l 630 931 q 618 901 598 868 l 598 868 l 580 831 q 558 780 542 751 l 542 751 q 531 736 525 736 l 525 736 l 507 736 l 488 736 l 482 739 l 477 736 l 448 736 q 443 736 437 737 q 430 737 422 736 l 422 736 l 394 736"},"Ă":{"x_min":54,"x_max":864,"ha":918,"o":"m 73 -1 q 60 -1 55 19 l 55 19 q 54 22 54 29 l 54 29 q 54 39 58 59 l 58 59 q 60 72 62 80 q 63 87 64 91 l 64 91 q 94 232 123 339 l 123 339 l 193 655 q 193 657 196 661 q 199 665 203 666 l 203 666 l 208 666 q 208 665 211 665 l 211 665 q 223 665 238 668 l 238 668 q 253 671 265 671 l 265 671 q 287 671 306 668 l 306 668 q 315 668 326 667 q 337 666 349 666 l 349 666 q 353 666 358 668 l 358 668 l 376 668 l 399 668 l 423 669 q 430 670 440 670 l 440 670 q 448 670 448 671 l 448 671 l 464 671 l 498 671 l 540 671 q 596 671 614 669 l 614 669 q 617 669 623 669 q 628 668 629 666 l 629 666 q 636 666 643 667 q 650 668 656 668 l 656 668 q 670 671 683 671 l 683 671 q 689 671 695 668 l 695 668 q 701 665 708 665 l 708 665 l 713 666 l 716 666 q 719 664 723 661 q 726 657 726 655 l 726 655 l 796 339 q 828 222 854 91 l 854 91 q 854 85 858 78 l 858 78 q 859 71 861 59 q 863 47 863 39 l 863 39 q 864 35 864 28 l 864 28 q 864 14 858 5 l 858 5 q 854 -1 846 -1 l 846 -1 l 833 -1 q 818 -1 810 0 l 810 0 l 784 0 l 759 0 l 739 0 q 731 0 731 1 l 731 1 l 668 1 l 668 3 q 664 5 658 5 l 658 5 q 658 5 658 5 q 657 4 656 3 l 656 3 q 656 1 654 1 l 654 1 l 651 1 l 643 1 q 638 3 623 3 l 623 3 q 593 5 576 5 l 576 5 q 570 14 564 41 q 557 68 550 101 l 550 101 q 548 117 546 123 l 546 123 q 525 119 491 119 l 491 119 l 460 119 l 431 119 l 424 87 q 411 21 403 5 l 403 5 q 399 5 393 3 l 393 3 q 391 2 390 2 q 388 1 388 1 l 388 1 l 384 1 q 378 1 375 3 l 375 3 q 373 5 370 5 l 370 5 l 325 3 l 309 3 l 294 3 q 290 1 284 1 l 284 1 l 280 1 l 188 1 l 179 1 q 168 0 134 0 l 134 0 l 108 0 q 100 -1 85 -1 l 85 -1 l 73 -1 m 535 244 q 528 293 528 293 l 528 293 q 525 307 518 346 l 518 346 q 516 356 508 400 l 508 400 q 500 448 500 448 l 500 448 q 497 468 494 483 l 494 483 l 493 496 q 490 501 490 505 l 490 505 l 489 511 q 488 509 488 505 l 488 505 q 488 501 486 500 l 486 500 l 486 496 l 484 483 q 483 476 482 468 q 480 459 478 449 l 478 449 l 473 421 q 462 358 460 348 l 460 348 q 459 337 455 315 l 455 315 q 453 308 451 294 l 451 294 l 443 248 l 494 248 l 501 250 l 503 250 q 515 250 521 248 l 521 248 q 525 248 529 247 q 532 245 535 244 l 535 244 m 447 729 q 403 729 361 744 q 318 758 284 783 l 284 783 q 250 808 231 843 q 212 878 212 918 l 212 918 q 212 961 232 1002 l 232 1002 l 388 1001 q 379 965 379 932 l 379 932 l 380 911 q 380 911 381 910 q 382 908 383 906 l 383 906 q 389 891 423 878 l 423 878 q 440 872 469 872 l 469 872 q 498 872 522 896 l 522 896 q 543 917 543 951 l 543 951 q 543 982 535 1011 l 535 1011 l 697 1006 q 707 977 707 934 l 707 934 q 707 900 691 867 q 674 834 642 796 l 642 796 q 608 758 550 741 l 550 741 q 510 729 447 729 l 447 729"},"Ắ":{"x_min":54,"x_max":864,"ha":918,"o":"m 73 -1 q 60 -1 55 19 l 55 19 q 54 22 54 29 l 54 29 q 54 39 58 59 l 58 59 q 60 72 62 80 q 63 87 64 91 l 64 91 q 94 232 123 339 l 123 339 l 193 655 q 193 657 196 661 q 199 665 203 666 l 203 666 l 208 666 q 208 665 211 665 l 211 665 q 223 665 238 668 l 238 668 q 253 671 265 671 l 265 671 q 287 671 306 668 l 306 668 q 315 668 326 667 q 337 666 349 666 l 349 666 q 353 666 358 668 l 358 668 l 376 668 l 399 668 l 423 669 q 430 670 440 670 l 440 670 q 448 670 448 671 l 448 671 l 464 671 l 498 671 l 540 671 q 596 671 614 669 l 614 669 q 617 669 623 669 q 628 668 629 666 l 629 666 q 636 666 643 667 q 650 668 656 668 l 656 668 q 670 671 683 671 l 683 671 q 689 671 695 668 l 695 668 q 701 665 708 665 l 708 665 l 713 666 l 716 666 q 719 664 723 661 q 726 657 726 655 l 726 655 l 796 339 q 828 222 854 91 l 854 91 q 854 85 858 78 l 858 78 q 859 71 861 59 q 863 47 863 39 l 863 39 q 864 35 864 28 l 864 28 q 864 14 858 5 l 858 5 q 854 -1 846 -1 l 846 -1 l 833 -1 q 818 -1 810 0 l 810 0 l 784 0 l 759 0 l 739 0 q 731 0 731 1 l 731 1 l 668 1 l 668 3 q 664 5 658 5 l 658 5 q 658 5 658 5 q 657 4 656 3 l 656 3 q 656 1 654 1 l 654 1 l 651 1 l 643 1 q 638 3 623 3 l 623 3 q 593 5 576 5 l 576 5 q 570 14 564 41 q 557 68 550 101 l 550 101 q 548 117 546 123 l 546 123 q 525 119 491 119 l 491 119 l 460 119 l 431 119 l 424 87 q 411 21 403 5 l 403 5 q 399 5 393 3 l 393 3 q 391 2 390 2 q 388 1 388 1 l 388 1 l 384 1 q 378 1 375 3 l 375 3 q 373 5 370 5 l 370 5 l 325 3 l 309 3 l 294 3 q 290 1 284 1 l 284 1 l 280 1 l 188 1 l 179 1 q 168 0 134 0 l 134 0 l 108 0 q 100 -1 85 -1 l 85 -1 l 73 -1 m 535 244 q 528 293 528 293 l 528 293 q 525 307 518 346 l 518 346 q 516 356 508 400 l 508 400 q 500 448 500 448 l 500 448 q 497 468 494 483 l 494 483 l 493 496 q 490 501 490 505 l 490 505 l 489 511 q 488 509 488 505 l 488 505 q 488 501 486 500 l 486 500 l 486 496 l 484 483 q 483 476 482 468 q 480 459 478 449 l 478 449 l 473 421 q 462 358 460 348 l 460 348 q 459 337 455 315 l 455 315 q 453 308 451 294 l 451 294 l 443 248 l 494 248 l 501 250 l 503 250 q 515 250 521 248 l 521 248 q 525 248 529 247 q 532 245 535 244 l 535 244 m 442 733 q 409 733 377 744 q 345 754 320 773 l 320 773 q 273 810 273 844 l 273 844 q 273 872 277 897 l 277 897 l 394 897 q 391 885 391 880 l 391 880 q 391 875 394 866 l 394 866 q 400 851 424 844 l 424 844 q 447 839 459 839 l 459 839 q 480 839 499 858 l 499 858 q 511 870 511 883 l 511 883 q 511 886 509 896 l 509 896 l 630 892 q 634 879 622 843 q 610 807 589 783 l 589 783 q 563 754 520 742 l 520 742 q 492 733 442 733 l 442 733 m 447 929 l 439 932 l 435 929 l 412 929 q 400 929 397 937 q 393 945 393 959 l 393 959 q 393 994 394 1010 l 394 1010 q 395 1016 395 1029 l 395 1029 q 395 1039 393 1071 l 393 1071 q 390 1134 390 1146 l 390 1146 l 398 1152 l 423 1160 q 468 1160 487 1161 l 487 1161 l 550 1156 l 558 1154 q 560 1154 560 1155 l 560 1155 l 565 1155 q 571 1153 580 1151 q 589 1149 592 1146 l 592 1146 q 598 1143 598 1137 l 598 1137 q 598 1133 595 1127 l 595 1127 q 594 1121 585 1109 l 585 1109 q 582 1103 575 1086 q 567 1068 557 1051 l 557 1051 q 546 1035 539 1017 l 539 1017 q 523 975 500 944 l 500 944 q 491 929 484 929 l 484 929 l 464 929 l 447 929"},"Ặ":{"x_min":54,"x_max":864,"ha":918,"o":"m 73 -1 q 60 -1 55 19 l 55 19 q 54 22 54 29 l 54 29 q 54 39 58 59 l 58 59 q 60 72 62 80 q 63 87 64 91 l 64 91 q 94 232 123 339 l 123 339 l 193 655 q 193 657 196 661 q 199 665 203 666 l 203 666 l 208 666 q 208 665 211 665 l 211 665 q 223 665 238 668 l 238 668 q 253 671 265 671 l 265 671 q 287 671 306 668 l 306 668 q 315 668 326 667 q 337 666 349 666 l 349 666 q 353 666 358 668 l 358 668 l 376 668 l 399 668 l 423 669 q 430 670 440 670 l 440 670 q 448 670 448 671 l 448 671 l 464 671 l 498 671 l 540 671 q 596 671 614 669 l 614 669 q 617 669 623 669 q 628 668 629 666 l 629 666 q 636 666 643 667 q 650 668 656 668 l 656 668 q 670 671 683 671 l 683 671 q 689 671 695 668 l 695 668 q 701 665 708 665 l 708 665 l 713 666 l 716 666 q 719 664 723 661 q 726 657 726 655 l 726 655 l 796 339 q 828 222 854 91 l 854 91 q 854 85 858 78 l 858 78 q 859 71 861 59 q 863 47 863 39 l 863 39 q 864 35 864 28 l 864 28 q 864 14 858 5 l 858 5 q 854 -1 846 -1 l 846 -1 l 833 -1 q 818 -1 810 0 l 810 0 l 784 0 l 759 0 l 739 0 q 731 0 731 1 l 731 1 l 668 1 l 668 3 q 664 5 658 5 l 658 5 q 658 5 658 5 q 657 4 656 3 l 656 3 q 656 1 654 1 l 654 1 l 651 1 l 643 1 q 638 3 623 3 l 623 3 q 593 5 576 5 l 576 5 q 570 14 564 41 q 557 68 550 101 l 550 101 q 548 117 546 123 l 546 123 q 525 119 491 119 l 491 119 l 460 119 l 431 119 l 424 87 q 411 21 403 5 l 403 5 q 399 5 393 3 l 393 3 q 391 2 390 2 q 388 1 388 1 l 388 1 l 384 1 q 378 1 375 3 l 375 3 q 373 5 370 5 l 370 5 l 325 3 l 309 3 l 294 3 q 290 1 284 1 l 284 1 l 280 1 l 188 1 l 179 1 q 168 0 134 0 l 134 0 l 108 0 q 100 -1 85 -1 l 85 -1 l 73 -1 m 535 244 q 528 293 528 293 l 528 293 q 525 307 518 346 l 518 346 q 516 356 508 400 l 508 400 q 500 448 500 448 l 500 448 q 497 468 494 483 l 494 483 l 493 496 q 490 501 490 505 l 490 505 l 489 511 q 488 509 488 505 l 488 505 q 488 501 486 500 l 486 500 l 486 496 l 484 483 q 483 476 482 468 q 480 459 478 449 l 478 449 l 473 421 q 462 358 460 348 l 460 348 q 459 337 455 315 l 455 315 q 453 308 451 294 l 451 294 l 443 248 l 494 248 l 501 250 l 503 250 q 515 250 521 248 l 521 248 q 525 248 529 247 q 532 245 535 244 l 535 244 m 442 733 q 409 733 377 744 q 345 754 320 773 l 320 773 q 273 810 273 844 l 273 844 q 273 872 277 897 l 277 897 l 394 897 q 391 885 391 880 l 391 880 q 391 875 394 866 l 394 866 q 400 851 424 844 l 424 844 q 447 839 459 839 l 459 839 q 480 839 499 858 l 499 858 q 511 870 511 883 l 511 883 q 511 886 509 896 l 509 896 l 630 892 q 634 879 622 843 q 610 807 589 783 l 589 783 q 563 754 520 742 l 520 742 q 492 733 442 733 l 442 733 m 457 -274 l 444 -274 q 440 -273 430 -273 l 430 -273 l 365 -266 l 360 -261 q 359 -254 359 -225 l 359 -225 q 359 -195 362 -163 l 362 -163 l 364 -134 l 364 -113 q 365 -101 385 -101 l 385 -101 l 414 -101 q 423 -103 442 -103 l 442 -103 l 460 -103 q 468 -101 484 -101 l 484 -101 l 492 -101 l 500 -101 l 509 -101 q 512 -103 515 -103 l 515 -103 q 522 -103 525 -101 l 525 -101 l 535 -101 q 555 -101 555 -110 l 555 -110 l 555 -113 q 554 -118 554 -124 l 554 -124 l 554 -131 l 554 -143 l 554 -169 l 554 -246 q 554 -251 552 -255 l 552 -255 q 549 -265 543 -266 l 543 -266 q 541 -269 533 -269 l 533 -269 l 530 -268 l 528 -268 l 528 -268 l 523 -269 l 504 -271 l 499 -273 l 493 -274 l 487 -273 q 485 -273 484 -272 q 483 -271 482 -271 l 482 -271 q 479 -271 479 -273 l 479 -273 l 474 -274 l 457 -274"},"Ằ":{"x_min":54,"x_max":864,"ha":918,"o":"m 73 -1 q 60 -1 55 19 l 55 19 q 54 22 54 29 l 54 29 q 54 39 58 59 l 58 59 q 60 72 62 80 q 63 87 64 91 l 64 91 q 94 232 123 339 l 123 339 l 193 655 q 193 657 196 661 q 199 665 203 666 l 203 666 l 208 666 q 208 665 211 665 l 211 665 q 223 665 238 668 l 238 668 q 253 671 265 671 l 265 671 q 287 671 306 668 l 306 668 q 315 668 326 667 q 337 666 349 666 l 349 666 q 353 666 358 668 l 358 668 l 376 668 l 399 668 l 423 669 q 430 670 440 670 l 440 670 q 448 670 448 671 l 448 671 l 464 671 l 498 671 l 540 671 q 596 671 614 669 l 614 669 q 617 669 623 669 q 628 668 629 666 l 629 666 q 636 666 643 667 q 650 668 656 668 l 656 668 q 670 671 683 671 l 683 671 q 689 671 695 668 l 695 668 q 701 665 708 665 l 708 665 l 713 666 l 716 666 q 719 664 723 661 q 726 657 726 655 l 726 655 l 796 339 q 828 222 854 91 l 854 91 q 854 85 858 78 l 858 78 q 859 71 861 59 q 863 47 863 39 l 863 39 q 864 35 864 28 l 864 28 q 864 14 858 5 l 858 5 q 854 -1 846 -1 l 846 -1 l 833 -1 q 818 -1 810 0 l 810 0 l 784 0 l 759 0 l 739 0 q 731 0 731 1 l 731 1 l 668 1 l 668 3 q 664 5 658 5 l 658 5 q 658 5 658 5 q 657 4 656 3 l 656 3 q 656 1 654 1 l 654 1 l 651 1 l 643 1 q 638 3 623 3 l 623 3 q 593 5 576 5 l 576 5 q 570 14 564 41 q 557 68 550 101 l 550 101 q 548 117 546 123 l 546 123 q 525 119 491 119 l 491 119 l 460 119 l 431 119 l 424 87 q 411 21 403 5 l 403 5 q 399 5 393 3 l 393 3 q 391 2 390 2 q 388 1 388 1 l 388 1 l 384 1 q 378 1 375 3 l 375 3 q 373 5 370 5 l 370 5 l 325 3 l 309 3 l 294 3 q 290 1 284 1 l 284 1 l 280 1 l 188 1 l 179 1 q 168 0 134 0 l 134 0 l 108 0 q 100 -1 85 -1 l 85 -1 l 73 -1 m 535 244 q 528 293 528 293 l 528 293 q 525 307 518 346 l 518 346 q 516 356 508 400 l 508 400 q 500 448 500 448 l 500 448 q 497 468 494 483 l 494 483 l 493 496 q 490 501 490 505 l 490 505 l 489 511 q 488 509 488 505 l 488 505 q 488 501 486 500 l 486 500 l 486 496 l 484 483 q 483 476 482 468 q 480 459 478 449 l 478 449 l 473 421 q 462 358 460 348 l 460 348 q 459 337 455 315 l 455 315 q 453 308 451 294 l 451 294 l 443 248 l 494 248 l 501 250 l 503 250 q 515 250 521 248 l 521 248 q 525 248 529 247 q 532 245 535 244 l 535 244 m 442 733 q 409 733 377 744 q 345 754 320 773 l 320 773 q 273 810 273 844 l 273 844 q 273 872 277 897 l 277 897 l 394 897 q 391 885 391 880 l 391 880 q 391 875 394 866 l 394 866 q 400 851 424 844 l 424 844 q 447 839 459 839 l 459 839 q 480 839 499 858 l 499 858 q 511 870 511 883 l 511 883 q 511 886 509 896 l 509 896 l 630 892 q 634 879 622 843 q 610 807 589 783 l 589 783 q 563 754 520 742 l 520 742 q 492 733 442 733 l 442 733 m 448 917 l 431 917 l 411 917 q 404 917 394 932 l 394 932 q 375 960 356 1005 l 356 1005 q 352 1012 348 1021 q 343 1030 338 1039 l 338 1039 q 327 1057 318 1079 l 318 1079 l 309 1097 q 303 1106 299 1115 l 299 1115 q 296 1121 296 1125 l 296 1125 q 296 1131 303 1134 l 303 1134 q 306 1137 315 1139 q 323 1141 329 1143 l 329 1143 l 334 1143 q 334 1142 337 1142 l 337 1142 l 344 1144 l 408 1149 q 427 1148 472 1148 l 472 1148 l 497 1140 l 504 1134 q 504 1103 502 1061 l 502 1061 q 500 1031 500 1019 l 500 1019 q 500 1005 501 998 l 501 998 q 502 982 502 947 l 502 947 q 502 933 499 925 q 495 917 483 917 l 483 917 l 459 917 l 456 920 l 448 917"},"Ẳ":{"x_min":54,"x_max":864,"ha":918,"o":"m 73 -1 q 60 -1 55 19 l 55 19 q 54 22 54 29 l 54 29 q 54 39 58 59 l 58 59 q 60 72 62 80 q 63 87 64 91 l 64 91 q 94 232 123 339 l 123 339 l 193 655 q 193 657 196 661 q 199 665 203 666 l 203 666 l 208 666 q 208 665 211 665 l 211 665 q 223 665 238 668 l 238 668 q 253 671 265 671 l 265 671 q 287 671 306 668 l 306 668 q 315 668 326 667 q 337 666 349 666 l 349 666 q 353 666 358 668 l 358 668 l 376 668 l 399 668 l 423 669 q 430 670 440 670 l 440 670 q 448 670 448 671 l 448 671 l 464 671 l 498 671 l 540 671 q 596 671 614 669 l 614 669 q 617 669 623 669 q 628 668 629 666 l 629 666 q 636 666 643 667 q 650 668 656 668 l 656 668 q 670 671 683 671 l 683 671 q 689 671 695 668 l 695 668 q 701 665 708 665 l 708 665 l 713 666 l 716 666 q 719 664 723 661 q 726 657 726 655 l 726 655 l 796 339 q 828 222 854 91 l 854 91 q 854 85 858 78 l 858 78 q 859 71 861 59 q 863 47 863 39 l 863 39 q 864 35 864 28 l 864 28 q 864 14 858 5 l 858 5 q 854 -1 846 -1 l 846 -1 l 833 -1 q 818 -1 810 0 l 810 0 l 784 0 l 759 0 l 739 0 q 731 0 731 1 l 731 1 l 668 1 l 668 3 q 664 5 658 5 l 658 5 q 658 5 658 5 q 657 4 656 3 l 656 3 q 656 1 654 1 l 654 1 l 651 1 l 643 1 q 638 3 623 3 l 623 3 q 593 5 576 5 l 576 5 q 570 14 564 41 q 557 68 550 101 l 550 101 q 548 117 546 123 l 546 123 q 525 119 491 119 l 491 119 l 460 119 l 431 119 l 424 87 q 411 21 403 5 l 403 5 q 399 5 393 3 l 393 3 q 391 2 390 2 q 388 1 388 1 l 388 1 l 384 1 q 378 1 375 3 l 375 3 q 373 5 370 5 l 370 5 l 325 3 l 309 3 l 294 3 q 290 1 284 1 l 284 1 l 280 1 l 188 1 l 179 1 q 168 0 134 0 l 134 0 l 108 0 q 100 -1 85 -1 l 85 -1 l 73 -1 m 535 244 q 528 293 528 293 l 528 293 q 525 307 518 346 l 518 346 q 516 356 508 400 l 508 400 q 500 448 500 448 l 500 448 q 497 468 494 483 l 494 483 l 493 496 q 490 501 490 505 l 490 505 l 489 511 q 488 509 488 505 l 488 505 q 488 501 486 500 l 486 500 l 486 496 l 484 483 q 483 476 482 468 q 480 459 478 449 l 478 449 l 473 421 q 462 358 460 348 l 460 348 q 459 337 455 315 l 455 315 q 453 308 451 294 l 451 294 l 443 248 l 494 248 l 501 250 l 503 250 q 515 250 521 248 l 521 248 q 525 248 529 247 q 532 245 535 244 l 535 244 m 442 733 q 409 733 377 744 q 345 754 320 773 l 320 773 q 273 810 273 844 l 273 844 q 273 872 277 897 l 277 897 l 394 897 q 391 885 391 880 l 391 880 q 391 875 394 866 l 394 866 q 400 851 424 844 l 424 844 q 447 839 459 839 l 459 839 q 480 839 499 858 l 499 858 q 511 870 511 883 l 511 883 q 511 886 509 896 l 509 896 l 630 892 q 634 879 622 843 q 610 807 589 783 l 589 783 q 563 754 520 742 l 520 742 q 492 733 442 733 l 442 733 m 418 917 q 406 917 402 928 l 402 928 q 399 936 399 957 l 399 957 q 399 978 408 993 q 417 1008 444 1027 l 444 1027 q 465 1042 465 1052 l 465 1052 q 465 1066 423 1066 l 423 1066 q 391 1066 378 1063 q 365 1060 362 1060 l 362 1060 q 357 1060 357 1068 l 357 1068 q 357 1096 360 1126 l 360 1126 q 361 1131 362 1135 q 362 1139 363 1141 l 363 1141 q 364 1145 367 1147 q 370 1149 373 1150 q 376 1150 377 1150 l 377 1150 q 421 1156 467 1156 l 467 1156 q 526 1156 565 1138 q 603 1120 603 1081 l 603 1081 q 603 1030 543 995 l 543 995 q 518 980 508 971 q 498 961 498 948 l 498 948 l 497 926 q 497 917 490 917 l 490 917 l 485 917 l 459 918 q 454 918 445 918 q 436 917 418 917 l 418 917"},"Ẵ":{"x_min":54,"x_max":864,"ha":918,"o":"m 73 -1 q 60 -1 55 19 l 55 19 q 54 22 54 29 l 54 29 q 54 39 58 59 l 58 59 q 60 72 62 80 q 63 87 64 91 l 64 91 q 94 232 123 339 l 123 339 l 193 655 q 193 657 196 661 q 199 665 203 666 l 203 666 l 208 666 q 208 665 211 665 l 211 665 q 223 665 238 668 l 238 668 q 253 671 265 671 l 265 671 q 287 671 306 668 l 306 668 q 315 668 326 667 q 337 666 349 666 l 349 666 q 353 666 358 668 l 358 668 l 376 668 l 399 668 l 423 669 q 430 670 440 670 l 440 670 q 448 670 448 671 l 448 671 l 464 671 l 498 671 l 540 671 q 596 671 614 669 l 614 669 q 617 669 623 669 q 628 668 629 666 l 629 666 q 636 666 643 667 q 650 668 656 668 l 656 668 q 670 671 683 671 l 683 671 q 689 671 695 668 l 695 668 q 701 665 708 665 l 708 665 l 713 666 l 716 666 q 719 664 723 661 q 726 657 726 655 l 726 655 l 796 339 q 828 222 854 91 l 854 91 q 854 85 858 78 l 858 78 q 859 71 861 59 q 863 47 863 39 l 863 39 q 864 35 864 28 l 864 28 q 864 14 858 5 l 858 5 q 854 -1 846 -1 l 846 -1 l 833 -1 q 818 -1 810 0 l 810 0 l 784 0 l 759 0 l 739 0 q 731 0 731 1 l 731 1 l 668 1 l 668 3 q 664 5 658 5 l 658 5 q 658 5 658 5 q 657 4 656 3 l 656 3 q 656 1 654 1 l 654 1 l 651 1 l 643 1 q 638 3 623 3 l 623 3 q 593 5 576 5 l 576 5 q 570 14 564 41 q 557 68 550 101 l 550 101 q 548 117 546 123 l 546 123 q 525 119 491 119 l 491 119 l 460 119 l 431 119 l 424 87 q 411 21 403 5 l 403 5 q 399 5 393 3 l 393 3 q 391 2 390 2 q 388 1 388 1 l 388 1 l 384 1 q 378 1 375 3 l 375 3 q 373 5 370 5 l 370 5 l 325 3 l 309 3 l 294 3 q 290 1 284 1 l 284 1 l 280 1 l 188 1 l 179 1 q 168 0 134 0 l 134 0 l 108 0 q 100 -1 85 -1 l 85 -1 l 73 -1 m 535 244 q 528 293 528 293 l 528 293 q 525 307 518 346 l 518 346 q 516 356 508 400 l 508 400 q 500 448 500 448 l 500 448 q 497 468 494 483 l 494 483 l 493 496 q 490 501 490 505 l 490 505 l 489 511 q 488 509 488 505 l 488 505 q 488 501 486 500 l 486 500 l 486 496 l 484 483 q 483 476 482 468 q 480 459 478 449 l 478 449 l 473 421 q 462 358 460 348 l 460 348 q 459 337 455 315 l 455 315 q 453 308 451 294 l 451 294 l 443 248 l 494 248 l 501 250 l 503 250 q 515 250 521 248 l 521 248 q 525 248 529 247 q 532 245 535 244 l 535 244 m 442 733 q 409 733 377 744 q 345 754 320 773 l 320 773 q 273 810 273 844 l 273 844 q 273 872 277 897 l 277 897 l 394 897 q 391 885 391 880 l 391 880 q 391 875 394 866 l 394 866 q 400 851 424 844 l 424 844 q 447 839 459 839 l 459 839 q 480 839 499 858 l 499 858 q 511 870 511 883 l 511 883 q 511 886 509 896 l 509 896 l 630 892 q 634 879 622 843 q 610 807 589 783 l 589 783 q 563 754 520 742 l 520 742 q 492 733 442 733 l 442 733 m 515 931 q 481 931 456 948 l 456 948 q 454 950 447 955 q 439 960 435 965 l 435 965 q 418 987 400 996 l 400 996 q 390 1000 381 1000 l 381 1000 q 373 1000 369 986 l 369 986 q 366 979 366 971 l 366 971 q 366 967 366 959 q 365 951 362 948 l 362 948 q 360 947 359 948 l 359 948 q 311 948 301 951 l 301 951 q 293 953 289 955 q 285 957 284 961 l 284 961 q 282 963 280 970 l 280 970 q 279 972 279 975 q 278 978 277 983 l 277 983 q 277 1004 282 1037 l 282 1037 q 289 1071 311 1090 l 311 1090 q 337 1112 392 1112 l 392 1112 q 399 1112 412 1107 q 425 1102 429 1101 l 429 1101 q 457 1092 464 1076 l 464 1076 q 465 1072 470 1067 l 470 1067 q 474 1063 479 1056 q 483 1049 487 1047 l 487 1047 q 493 1043 499 1043 l 499 1043 q 516 1043 516 1056 l 516 1056 q 516 1067 510 1080 l 510 1080 l 500 1098 q 500 1103 509 1103 l 509 1103 l 512 1103 l 606 1105 q 612 1101 615 1095 l 615 1095 q 625 1076 626 1048 l 626 1048 l 627 1026 q 627 1007 620 995 l 620 995 q 607 968 577 948 l 577 948 q 564 940 545 935 l 545 935 q 535 931 515 931 l 515 931"},"Â":{"x_min":54,"x_max":864,"ha":918,"o":"m 73 -1 q 60 -1 55 19 l 55 19 q 54 22 54 29 l 54 29 q 54 39 58 59 l 58 59 q 60 72 62 80 q 63 87 64 91 l 64 91 q 94 232 123 339 l 123 339 l 193 655 q 193 657 196 661 q 199 665 203 666 l 203 666 l 208 666 q 208 665 211 665 l 211 665 q 223 665 238 668 l 238 668 q 253 671 265 671 l 265 671 q 287 671 306 668 l 306 668 q 315 668 326 667 q 337 666 349 666 l 349 666 q 353 666 358 668 l 358 668 l 376 668 l 399 668 l 423 669 q 430 670 440 670 l 440 670 q 448 670 448 671 l 448 671 l 464 671 l 498 671 l 540 671 q 596 671 614 669 l 614 669 q 617 669 623 669 q 628 668 629 666 l 629 666 q 636 666 643 667 q 650 668 656 668 l 656 668 q 670 671 683 671 l 683 671 q 689 671 695 668 l 695 668 q 701 665 708 665 l 708 665 l 713 666 l 716 666 q 719 664 723 661 q 726 657 726 655 l 726 655 l 796 339 q 828 222 854 91 l 854 91 q 854 85 858 78 l 858 78 q 859 71 861 59 q 863 47 863 39 l 863 39 q 864 35 864 28 l 864 28 q 864 14 858 5 l 858 5 q 854 -1 846 -1 l 846 -1 l 833 -1 q 818 -1 810 0 l 810 0 l 784 0 l 759 0 l 739 0 q 731 0 731 1 l 731 1 l 668 1 l 668 3 q 664 5 658 5 l 658 5 q 658 5 658 5 q 657 4 656 3 l 656 3 q 656 1 654 1 l 654 1 l 651 1 l 643 1 q 638 3 623 3 l 623 3 q 593 5 576 5 l 576 5 q 570 14 564 41 q 557 68 550 101 l 550 101 q 548 117 546 123 l 546 123 q 525 119 491 119 l 491 119 l 460 119 l 431 119 l 424 87 q 411 21 403 5 l 403 5 q 399 5 393 3 l 393 3 q 391 2 390 2 q 388 1 388 1 l 388 1 l 384 1 q 378 1 375 3 l 375 3 q 373 5 370 5 l 370 5 l 325 3 l 309 3 l 294 3 q 290 1 284 1 l 284 1 l 280 1 l 188 1 l 179 1 q 168 0 134 0 l 134 0 l 108 0 q 100 -1 85 -1 l 85 -1 l 73 -1 m 535 244 q 528 293 528 293 l 528 293 q 525 307 518 346 l 518 346 q 516 356 508 400 l 508 400 q 500 448 500 448 l 500 448 q 497 468 494 483 l 494 483 l 493 496 q 490 501 490 505 l 490 505 l 489 511 q 488 509 488 505 l 488 505 q 488 501 486 500 l 486 500 l 486 496 l 484 483 q 483 476 482 468 q 480 459 478 449 l 478 449 l 473 421 q 462 358 460 348 l 460 348 q 459 337 455 315 l 455 315 q 453 308 451 294 l 451 294 l 443 248 l 494 248 l 501 250 l 503 250 q 515 250 521 248 l 521 248 q 525 248 529 247 q 532 245 535 244 l 535 244 m 197 736 q 190 736 187 742 q 183 748 183 756 l 183 756 l 183 762 q 183 766 184 768 l 184 768 q 191 805 222 866 l 222 866 q 229 882 245 914 l 245 914 l 267 963 l 297 1021 q 305 1038 329 1078 l 329 1078 l 335 1086 l 382 1097 l 440 1097 l 478 1096 l 493 1096 l 504 1096 q 508 1094 517 1094 l 517 1094 l 537 1094 l 567 1091 l 589 1078 l 632 1004 q 687 903 708 849 l 708 849 q 726 804 734 768 l 734 768 l 735 762 l 735 756 q 735 736 720 736 l 720 736 l 698 736 l 674 736 l 645 736 l 608 736 l 587 736 q 582 736 573 747 l 573 747 q 552 774 535 802 l 535 802 q 525 818 518 827 l 518 827 q 491 861 459 908 l 459 908 q 420 842 407 822 l 407 822 l 394 804 q 374 774 364 763 l 364 763 q 340 736 332 736 l 332 736 l 313 736 l 292 736 l 288 739 l 283 736 l 253 736 q 249 736 243 737 q 237 737 227 736 l 227 736 l 197 736"},"Ấ":{"x_min":54,"x_max":864,"ha":918,"o":"m 73 -1 q 60 -1 55 19 l 55 19 q 54 22 54 29 l 54 29 q 54 39 58 59 l 58 59 q 60 72 62 80 q 63 87 64 91 l 64 91 q 94 232 123 339 l 123 339 l 193 655 q 193 657 196 661 q 199 665 203 666 l 203 666 l 208 666 q 208 665 211 665 l 211 665 q 223 665 238 668 l 238 668 q 253 671 265 671 l 265 671 q 287 671 306 668 l 306 668 q 315 668 326 667 q 337 666 349 666 l 349 666 q 353 666 358 668 l 358 668 l 376 668 l 399 668 l 423 669 q 430 670 440 670 l 440 670 q 448 670 448 671 l 448 671 l 464 671 l 498 671 l 540 671 q 596 671 614 669 l 614 669 q 617 669 623 669 q 628 668 629 666 l 629 666 q 636 666 643 667 q 650 668 656 668 l 656 668 q 670 671 683 671 l 683 671 q 689 671 695 668 l 695 668 q 701 665 708 665 l 708 665 l 713 666 l 716 666 q 719 664 723 661 q 726 657 726 655 l 726 655 l 796 339 q 828 222 854 91 l 854 91 q 854 85 858 78 l 858 78 q 859 71 861 59 q 863 47 863 39 l 863 39 q 864 35 864 28 l 864 28 q 864 14 858 5 l 858 5 q 854 -1 846 -1 l 846 -1 l 833 -1 q 818 -1 810 0 l 810 0 l 784 0 l 759 0 l 739 0 q 731 0 731 1 l 731 1 l 668 1 l 668 3 q 664 5 658 5 l 658 5 q 658 5 658 5 q 657 4 656 3 l 656 3 q 656 1 654 1 l 654 1 l 651 1 l 643 1 q 638 3 623 3 l 623 3 q 593 5 576 5 l 576 5 q 570 14 564 41 q 557 68 550 101 l 550 101 q 548 117 546 123 l 546 123 q 525 119 491 119 l 491 119 l 460 119 l 431 119 l 424 87 q 411 21 403 5 l 403 5 q 399 5 393 3 l 393 3 q 391 2 390 2 q 388 1 388 1 l 388 1 l 384 1 q 378 1 375 3 l 375 3 q 373 5 370 5 l 370 5 l 325 3 l 309 3 l 294 3 q 290 1 284 1 l 284 1 l 280 1 l 188 1 l 179 1 q 168 0 134 0 l 134 0 l 108 0 q 100 -1 85 -1 l 85 -1 l 73 -1 m 535 244 q 528 293 528 293 l 528 293 q 525 307 518 346 l 518 346 q 516 356 508 400 l 508 400 q 500 448 500 448 l 500 448 q 497 468 494 483 l 494 483 l 493 496 q 490 501 490 505 l 490 505 l 489 511 q 488 509 488 505 l 488 505 q 488 501 486 500 l 486 500 l 486 496 l 484 483 q 483 476 482 468 q 480 459 478 449 l 478 449 l 473 421 q 462 358 460 348 l 460 348 q 459 337 455 315 l 455 315 q 453 308 451 294 l 451 294 l 443 248 l 494 248 l 501 250 l 503 250 q 515 250 521 248 l 521 248 q 525 248 529 247 q 532 245 535 244 l 535 244 m 254 729 q 249 729 247 734 q 244 738 244 744 l 244 744 l 244 749 q 244 753 245 754 l 245 754 q 254 768 264 779 l 264 779 q 288 811 295 827 l 295 827 l 318 856 q 322 863 337 878 l 337 878 q 350 890 357 899 l 357 899 l 360 906 l 394 926 l 465 926 l 477 926 l 485 926 q 488 924 494 924 l 494 924 l 509 924 l 533 922 l 549 912 l 617 809 l 634 786 q 646 767 658 754 l 658 754 l 659 749 l 659 744 q 659 729 648 729 l 648 729 l 630 729 l 612 729 l 592 729 l 563 729 l 548 729 q 542 729 537 738 l 537 738 l 513 759 q 479 787 452 814 l 452 814 q 435 800 420 785 l 420 785 q 384 753 380 749 l 380 749 q 362 729 355 729 l 355 729 l 342 729 l 325 729 l 322 732 l 319 729 l 295 729 l 277 729 l 254 729 m 700 829 l 692 832 l 688 829 l 665 829 q 653 829 650 837 q 646 845 646 859 l 646 859 q 646 894 647 910 l 647 910 q 648 916 648 929 l 648 929 q 648 939 646 971 l 646 971 q 643 1034 643 1046 l 643 1046 l 651 1052 l 676 1060 q 721 1060 740 1061 l 740 1061 l 803 1056 l 811 1054 q 813 1054 813 1055 l 813 1055 l 818 1055 q 824 1053 833 1051 q 842 1049 845 1046 l 845 1046 q 851 1043 851 1037 l 851 1037 q 851 1033 848 1027 l 848 1027 q 847 1021 838 1009 l 838 1009 q 835 1003 828 986 q 820 968 810 951 l 810 951 q 799 935 792 917 l 792 917 q 776 875 753 844 l 753 844 q 744 829 737 829 l 737 829 l 717 829 l 700 829"},"Ậ":{"x_min":54,"x_max":864,"ha":918,"o":"m 73 -1 q 60 -1 55 19 l 55 19 q 54 22 54 29 l 54 29 q 54 39 58 59 l 58 59 q 60 72 62 80 q 63 87 64 91 l 64 91 q 94 232 123 339 l 123 339 l 193 655 q 193 657 196 661 q 199 665 203 666 l 203 666 l 208 666 q 208 665 211 665 l 211 665 q 223 665 238 668 l 238 668 q 253 671 265 671 l 265 671 q 287 671 306 668 l 306 668 q 315 668 326 667 q 337 666 349 666 l 349 666 q 353 666 358 668 l 358 668 l 376 668 l 399 668 l 423 669 q 430 670 440 670 l 440 670 q 448 670 448 671 l 448 671 l 464 671 l 498 671 l 540 671 q 596 671 614 669 l 614 669 q 617 669 623 669 q 628 668 629 666 l 629 666 q 636 666 643 667 q 650 668 656 668 l 656 668 q 670 671 683 671 l 683 671 q 689 671 695 668 l 695 668 q 701 665 708 665 l 708 665 l 713 666 l 716 666 q 719 664 723 661 q 726 657 726 655 l 726 655 l 796 339 q 828 222 854 91 l 854 91 q 854 85 858 78 l 858 78 q 859 71 861 59 q 863 47 863 39 l 863 39 q 864 35 864 28 l 864 28 q 864 14 858 5 l 858 5 q 854 -1 846 -1 l 846 -1 l 833 -1 q 818 -1 810 0 l 810 0 l 784 0 l 759 0 l 739 0 q 731 0 731 1 l 731 1 l 668 1 l 668 3 q 664 5 658 5 l 658 5 q 658 5 658 5 q 657 4 656 3 l 656 3 q 656 1 654 1 l 654 1 l 651 1 l 643 1 q 638 3 623 3 l 623 3 q 593 5 576 5 l 576 5 q 570 14 564 41 q 557 68 550 101 l 550 101 q 548 117 546 123 l 546 123 q 525 119 491 119 l 491 119 l 460 119 l 431 119 l 424 87 q 411 21 403 5 l 403 5 q 399 5 393 3 l 393 3 q 391 2 390 2 q 388 1 388 1 l 388 1 l 384 1 q 378 1 375 3 l 375 3 q 373 5 370 5 l 370 5 l 325 3 l 309 3 l 294 3 q 290 1 284 1 l 284 1 l 280 1 l 188 1 l 179 1 q 168 0 134 0 l 134 0 l 108 0 q 100 -1 85 -1 l 85 -1 l 73 -1 m 535 244 q 528 293 528 293 l 528 293 q 525 307 518 346 l 518 346 q 516 356 508 400 l 508 400 q 500 448 500 448 l 500 448 q 497 468 494 483 l 494 483 l 493 496 q 490 501 490 505 l 490 505 l 489 511 q 488 509 488 505 l 488 505 q 488 501 486 500 l 486 500 l 486 496 l 484 483 q 483 476 482 468 q 480 459 478 449 l 478 449 l 473 421 q 462 358 460 348 l 460 348 q 459 337 455 315 l 455 315 q 453 308 451 294 l 451 294 l 443 248 l 494 248 l 501 250 l 503 250 q 515 250 521 248 l 521 248 q 525 248 529 247 q 532 245 535 244 l 535 244 m 254 729 q 249 729 247 734 q 244 738 244 744 l 244 744 l 244 749 q 244 753 245 754 l 245 754 q 254 768 264 779 l 264 779 q 288 811 295 827 l 295 827 l 318 856 q 322 863 337 878 l 337 878 q 350 890 357 899 l 357 899 l 360 906 l 394 926 l 465 926 l 477 926 l 485 926 q 488 924 494 924 l 494 924 l 509 924 l 533 922 l 549 912 l 617 809 l 634 786 q 646 767 658 754 l 658 754 l 659 749 l 659 744 q 659 729 648 729 l 648 729 l 630 729 l 612 729 l 592 729 l 563 729 l 548 729 q 542 729 537 738 l 537 738 l 513 759 q 479 787 452 814 l 452 814 q 435 800 420 785 l 420 785 q 384 753 380 749 l 380 749 q 362 729 355 729 l 355 729 l 342 729 l 325 729 l 322 732 l 319 729 l 295 729 l 277 729 l 254 729 m 457 -274 l 444 -274 q 440 -273 430 -273 l 430 -273 l 365 -266 l 360 -261 q 359 -254 359 -225 l 359 -225 q 359 -195 362 -163 l 362 -163 l 364 -134 l 364 -113 q 365 -101 385 -101 l 385 -101 l 414 -101 q 423 -103 442 -103 l 442 -103 l 460 -103 q 468 -101 484 -101 l 484 -101 l 492 -101 l 500 -101 l 509 -101 q 512 -103 515 -103 l 515 -103 q 522 -103 525 -101 l 525 -101 l 535 -101 q 555 -101 555 -110 l 555 -110 l 555 -113 q 554 -118 554 -124 l 554 -124 l 554 -131 l 554 -143 l 554 -169 l 554 -246 q 554 -251 552 -255 l 552 -255 q 549 -265 543 -266 l 543 -266 q 541 -269 533 -269 l 533 -269 l 530 -268 l 528 -268 l 528 -268 l 523 -269 l 504 -271 l 499 -273 l 493 -274 l 487 -273 q 485 -273 484 -272 q 483 -271 482 -271 l 482 -271 q 479 -271 479 -273 l 479 -273 l 474 -274 l 457 -274"},"Ầ":{"x_min":54,"x_max":864,"ha":918,"o":"m 73 -1 q 60 -1 55 19 l 55 19 q 54 22 54 29 l 54 29 q 54 39 58 59 l 58 59 q 60 72 62 80 q 63 87 64 91 l 64 91 q 94 232 123 339 l 123 339 l 193 655 q 193 657 196 661 q 199 665 203 666 l 203 666 l 208 666 q 208 665 211 665 l 211 665 q 223 665 238 668 l 238 668 q 253 671 265 671 l 265 671 q 287 671 306 668 l 306 668 q 315 668 326 667 q 337 666 349 666 l 349 666 q 353 666 358 668 l 358 668 l 376 668 l 399 668 l 423 669 q 430 670 440 670 l 440 670 q 448 670 448 671 l 448 671 l 464 671 l 498 671 l 540 671 q 596 671 614 669 l 614 669 q 617 669 623 669 q 628 668 629 666 l 629 666 q 636 666 643 667 q 650 668 656 668 l 656 668 q 670 671 683 671 l 683 671 q 689 671 695 668 l 695 668 q 701 665 708 665 l 708 665 l 713 666 l 716 666 q 719 664 723 661 q 726 657 726 655 l 726 655 l 796 339 q 828 222 854 91 l 854 91 q 854 85 858 78 l 858 78 q 859 71 861 59 q 863 47 863 39 l 863 39 q 864 35 864 28 l 864 28 q 864 14 858 5 l 858 5 q 854 -1 846 -1 l 846 -1 l 833 -1 q 818 -1 810 0 l 810 0 l 784 0 l 759 0 l 739 0 q 731 0 731 1 l 731 1 l 668 1 l 668 3 q 664 5 658 5 l 658 5 q 658 5 658 5 q 657 4 656 3 l 656 3 q 656 1 654 1 l 654 1 l 651 1 l 643 1 q 638 3 623 3 l 623 3 q 593 5 576 5 l 576 5 q 570 14 564 41 q 557 68 550 101 l 550 101 q 548 117 546 123 l 546 123 q 525 119 491 119 l 491 119 l 460 119 l 431 119 l 424 87 q 411 21 403 5 l 403 5 q 399 5 393 3 l 393 3 q 391 2 390 2 q 388 1 388 1 l 388 1 l 384 1 q 378 1 375 3 l 375 3 q 373 5 370 5 l 370 5 l 325 3 l 309 3 l 294 3 q 290 1 284 1 l 284 1 l 280 1 l 188 1 l 179 1 q 168 0 134 0 l 134 0 l 108 0 q 100 -1 85 -1 l 85 -1 l 73 -1 m 535 244 q 528 293 528 293 l 528 293 q 525 307 518 346 l 518 346 q 516 356 508 400 l 508 400 q 500 448 500 448 l 500 448 q 497 468 494 483 l 494 483 l 493 496 q 490 501 490 505 l 490 505 l 489 511 q 488 509 488 505 l 488 505 q 488 501 486 500 l 486 500 l 486 496 l 484 483 q 483 476 482 468 q 480 459 478 449 l 478 449 l 473 421 q 462 358 460 348 l 460 348 q 459 337 455 315 l 455 315 q 453 308 451 294 l 451 294 l 443 248 l 494 248 l 501 250 l 503 250 q 515 250 521 248 l 521 248 q 525 248 529 247 q 532 245 535 244 l 535 244 m 254 729 q 249 729 247 734 q 244 738 244 744 l 244 744 l 244 749 q 244 753 245 754 l 245 754 q 254 768 264 779 l 264 779 q 288 811 295 827 l 295 827 l 318 856 q 322 863 337 878 l 337 878 q 350 890 357 899 l 357 899 l 360 906 l 394 926 l 465 926 l 477 926 l 485 926 q 488 924 494 924 l 494 924 l 509 924 l 533 922 l 549 912 l 617 809 l 634 786 q 646 767 658 754 l 658 754 l 659 749 l 659 744 q 659 729 648 729 l 648 729 l 630 729 l 612 729 l 592 729 l 563 729 l 548 729 q 542 729 537 738 l 537 738 l 513 759 q 479 787 452 814 l 452 814 q 435 800 420 785 l 420 785 q 384 753 380 749 l 380 749 q 362 729 355 729 l 355 729 l 342 729 l 325 729 l 322 732 l 319 729 l 295 729 l 277 729 l 254 729 m 709 865 l 692 865 l 672 865 q 665 865 655 880 l 655 880 q 636 908 617 953 l 617 953 q 613 960 609 969 q 604 978 599 987 l 599 987 q 588 1005 579 1027 l 579 1027 l 570 1045 q 564 1054 560 1063 l 560 1063 q 557 1069 557 1073 l 557 1073 q 557 1079 564 1082 l 564 1082 q 567 1085 576 1087 q 584 1089 590 1091 l 590 1091 l 595 1091 q 595 1090 598 1090 l 598 1090 l 605 1092 l 669 1097 q 688 1096 733 1096 l 733 1096 l 758 1088 l 765 1082 q 765 1051 763 1009 l 763 1009 q 761 979 761 967 l 761 967 q 761 953 762 946 l 762 946 q 763 930 763 895 l 763 895 q 763 881 760 873 q 756 865 744 865 l 744 865 l 720 865 l 717 868 l 709 865"},"Ẩ":{"x_min":54,"x_max":864,"ha":918,"o":"m 73 -1 q 60 -1 55 19 l 55 19 q 54 22 54 29 l 54 29 q 54 39 58 59 l 58 59 q 60 72 62 80 q 63 87 64 91 l 64 91 q 94 232 123 339 l 123 339 l 193 655 q 193 657 196 661 q 199 665 203 666 l 203 666 l 208 666 q 208 665 211 665 l 211 665 q 223 665 238 668 l 238 668 q 253 671 265 671 l 265 671 q 287 671 306 668 l 306 668 q 315 668 326 667 q 337 666 349 666 l 349 666 q 353 666 358 668 l 358 668 l 376 668 l 399 668 l 423 669 q 430 670 440 670 l 440 670 q 448 670 448 671 l 448 671 l 464 671 l 498 671 l 540 671 q 596 671 614 669 l 614 669 q 617 669 623 669 q 628 668 629 666 l 629 666 q 636 666 643 667 q 650 668 656 668 l 656 668 q 670 671 683 671 l 683 671 q 689 671 695 668 l 695 668 q 701 665 708 665 l 708 665 l 713 666 l 716 666 q 719 664 723 661 q 726 657 726 655 l 726 655 l 796 339 q 828 222 854 91 l 854 91 q 854 85 858 78 l 858 78 q 859 71 861 59 q 863 47 863 39 l 863 39 q 864 35 864 28 l 864 28 q 864 14 858 5 l 858 5 q 854 -1 846 -1 l 846 -1 l 833 -1 q 818 -1 810 0 l 810 0 l 784 0 l 759 0 l 739 0 q 731 0 731 1 l 731 1 l 668 1 l 668 3 q 664 5 658 5 l 658 5 q 658 5 658 5 q 657 4 656 3 l 656 3 q 656 1 654 1 l 654 1 l 651 1 l 643 1 q 638 3 623 3 l 623 3 q 593 5 576 5 l 576 5 q 570 14 564 41 q 557 68 550 101 l 550 101 q 548 117 546 123 l 546 123 q 525 119 491 119 l 491 119 l 460 119 l 431 119 l 424 87 q 411 21 403 5 l 403 5 q 399 5 393 3 l 393 3 q 391 2 390 2 q 388 1 388 1 l 388 1 l 384 1 q 378 1 375 3 l 375 3 q 373 5 370 5 l 370 5 l 325 3 l 309 3 l 294 3 q 290 1 284 1 l 284 1 l 280 1 l 188 1 l 179 1 q 168 0 134 0 l 134 0 l 108 0 q 100 -1 85 -1 l 85 -1 l 73 -1 m 535 244 q 528 293 528 293 l 528 293 q 525 307 518 346 l 518 346 q 516 356 508 400 l 508 400 q 500 448 500 448 l 500 448 q 497 468 494 483 l 494 483 l 493 496 q 490 501 490 505 l 490 505 l 489 511 q 488 509 488 505 l 488 505 q 488 501 486 500 l 486 500 l 486 496 l 484 483 q 483 476 482 468 q 480 459 478 449 l 478 449 l 473 421 q 462 358 460 348 l 460 348 q 459 337 455 315 l 455 315 q 453 308 451 294 l 451 294 l 443 248 l 494 248 l 501 250 l 503 250 q 515 250 521 248 l 521 248 q 525 248 529 247 q 532 245 535 244 l 535 244 m 254 729 q 249 729 247 734 q 244 738 244 744 l 244 744 l 244 749 q 244 753 245 754 l 245 754 q 254 768 264 779 l 264 779 q 288 811 295 827 l 295 827 l 318 856 q 322 863 337 878 l 337 878 q 350 890 357 899 l 357 899 l 360 906 l 394 926 l 465 926 l 477 926 l 485 926 q 488 924 494 924 l 494 924 l 509 924 l 533 922 l 549 912 l 617 809 l 634 786 q 646 767 658 754 l 658 754 l 659 749 l 659 744 q 659 729 648 729 l 648 729 l 630 729 l 612 729 l 592 729 l 563 729 l 548 729 q 542 729 537 738 l 537 738 l 513 759 q 479 787 452 814 l 452 814 q 435 800 420 785 l 420 785 q 384 753 380 749 l 380 749 q 362 729 355 729 l 355 729 l 342 729 l 325 729 l 322 732 l 319 729 l 295 729 l 277 729 l 254 729 m 661 836 q 649 836 645 847 l 645 847 q 642 855 642 876 l 642 876 q 642 897 651 912 q 660 927 687 946 l 687 946 q 708 961 708 971 l 708 971 q 708 985 666 985 l 666 985 q 634 985 621 982 q 608 979 605 979 l 605 979 q 600 979 600 987 l 600 987 q 600 1015 603 1045 l 603 1045 q 604 1050 605 1054 q 605 1058 606 1060 l 606 1060 q 607 1064 610 1066 q 613 1068 616 1069 q 619 1069 620 1069 l 620 1069 q 664 1075 710 1075 l 710 1075 q 769 1075 808 1057 q 846 1039 846 1000 l 846 1000 q 846 949 786 914 l 786 914 q 761 899 751 890 q 741 880 741 867 l 741 867 l 740 845 q 740 836 733 836 l 733 836 l 728 836 l 702 837 q 697 837 688 837 q 679 836 661 836 l 661 836"},"Ẫ":{"x_min":54,"x_max":864,"ha":918,"o":"m 73 -1 q 60 -1 55 19 l 55 19 q 54 22 54 29 l 54 29 q 54 39 58 59 l 58 59 q 60 72 62 80 q 63 87 64 91 l 64 91 q 94 232 123 339 l 123 339 l 193 655 q 193 657 196 661 q 199 665 203 666 l 203 666 l 208 666 q 208 665 211 665 l 211 665 q 223 665 238 668 l 238 668 q 253 671 265 671 l 265 671 q 287 671 306 668 l 306 668 q 315 668 326 667 q 337 666 349 666 l 349 666 q 353 666 358 668 l 358 668 l 376 668 l 399 668 l 423 669 q 430 670 440 670 l 440 670 q 448 670 448 671 l 448 671 l 464 671 l 498 671 l 540 671 q 596 671 614 669 l 614 669 q 617 669 623 669 q 628 668 629 666 l 629 666 q 636 666 643 667 q 650 668 656 668 l 656 668 q 670 671 683 671 l 683 671 q 689 671 695 668 l 695 668 q 701 665 708 665 l 708 665 l 713 666 l 716 666 q 719 664 723 661 q 726 657 726 655 l 726 655 l 796 339 q 828 222 854 91 l 854 91 q 854 85 858 78 l 858 78 q 859 71 861 59 q 863 47 863 39 l 863 39 q 864 35 864 28 l 864 28 q 864 14 858 5 l 858 5 q 854 -1 846 -1 l 846 -1 l 833 -1 q 818 -1 810 0 l 810 0 l 784 0 l 759 0 l 739 0 q 731 0 731 1 l 731 1 l 668 1 l 668 3 q 664 5 658 5 l 658 5 q 658 5 658 5 q 657 4 656 3 l 656 3 q 656 1 654 1 l 654 1 l 651 1 l 643 1 q 638 3 623 3 l 623 3 q 593 5 576 5 l 576 5 q 570 14 564 41 q 557 68 550 101 l 550 101 q 548 117 546 123 l 546 123 q 525 119 491 119 l 491 119 l 460 119 l 431 119 l 424 87 q 411 21 403 5 l 403 5 q 399 5 393 3 l 393 3 q 391 2 390 2 q 388 1 388 1 l 388 1 l 384 1 q 378 1 375 3 l 375 3 q 373 5 370 5 l 370 5 l 325 3 l 309 3 l 294 3 q 290 1 284 1 l 284 1 l 280 1 l 188 1 l 179 1 q 168 0 134 0 l 134 0 l 108 0 q 100 -1 85 -1 l 85 -1 l 73 -1 m 535 244 q 528 293 528 293 l 528 293 q 525 307 518 346 l 518 346 q 516 356 508 400 l 508 400 q 500 448 500 448 l 500 448 q 497 468 494 483 l 494 483 l 493 496 q 490 501 490 505 l 490 505 l 489 511 q 488 509 488 505 l 488 505 q 488 501 486 500 l 486 500 l 486 496 l 484 483 q 483 476 482 468 q 480 459 478 449 l 478 449 l 473 421 q 462 358 460 348 l 460 348 q 459 337 455 315 l 455 315 q 453 308 451 294 l 451 294 l 443 248 l 494 248 l 501 250 l 503 250 q 515 250 521 248 l 521 248 q 525 248 529 247 q 532 245 535 244 l 535 244 m 254 729 q 249 729 247 734 q 244 738 244 744 l 244 744 l 244 749 q 244 753 245 754 l 245 754 q 254 768 264 779 l 264 779 q 288 811 295 827 l 295 827 l 318 856 q 322 863 337 878 l 337 878 q 350 890 357 899 l 357 899 l 360 906 l 394 926 l 465 926 l 477 926 l 485 926 q 488 924 494 924 l 494 924 l 509 924 l 533 922 l 549 912 l 617 809 l 634 786 q 646 767 658 754 l 658 754 l 659 749 l 659 744 q 659 729 648 729 l 648 729 l 630 729 l 612 729 l 592 729 l 563 729 l 548 729 q 542 729 537 738 l 537 738 l 513 759 q 479 787 452 814 l 452 814 q 435 800 420 785 l 420 785 q 384 753 380 749 l 380 749 q 362 729 355 729 l 355 729 l 342 729 l 325 729 l 322 732 l 319 729 l 295 729 l 277 729 l 254 729 m 532 948 q 498 948 473 965 l 473 965 q 471 967 464 972 q 456 977 452 982 l 452 982 q 435 1004 417 1013 l 417 1013 q 407 1017 398 1017 l 398 1017 q 390 1017 386 1003 l 386 1003 q 383 996 383 988 l 383 988 q 383 984 383 976 q 382 968 379 965 l 379 965 q 377 964 376 965 l 376 965 q 328 965 318 968 l 318 968 q 310 970 306 972 q 302 974 301 978 l 301 978 q 299 980 297 987 l 297 987 q 296 989 296 992 q 295 995 294 1000 l 294 1000 q 294 1021 299 1054 l 299 1054 q 306 1088 328 1107 l 328 1107 q 354 1129 409 1129 l 409 1129 q 416 1129 429 1124 q 442 1119 446 1118 l 446 1118 q 474 1109 481 1093 l 481 1093 q 482 1089 487 1084 l 487 1084 q 491 1080 496 1073 q 500 1066 504 1064 l 504 1064 q 510 1060 516 1060 l 516 1060 q 533 1060 533 1073 l 533 1073 q 533 1084 527 1097 l 527 1097 l 517 1115 q 517 1120 526 1120 l 526 1120 l 529 1120 l 623 1122 q 629 1118 632 1112 l 632 1112 q 642 1093 643 1065 l 643 1065 l 644 1043 q 644 1024 637 1012 l 637 1012 q 624 985 594 965 l 594 965 q 581 957 562 952 l 562 952 q 552 948 532 948 l 532 948"},"Ȁ":{"x_min":21,"x_max":864,"ha":918,"o":"m 73 -1 q 60 -1 55 19 l 55 19 q 54 22 54 29 l 54 29 q 54 39 58 59 l 58 59 q 60 72 62 80 q 63 87 64 91 l 64 91 q 94 232 123 339 l 123 339 l 193 655 q 193 657 196 661 q 199 665 203 666 l 203 666 l 208 666 q 208 665 211 665 l 211 665 q 223 665 238 668 l 238 668 q 253 671 265 671 l 265 671 q 287 671 306 668 l 306 668 q 315 668 326 667 q 337 666 349 666 l 349 666 q 353 666 358 668 l 358 668 l 376 668 l 399 668 l 423 669 q 430 670 440 670 l 440 670 q 448 670 448 671 l 448 671 l 464 671 l 498 671 l 540 671 q 596 671 614 669 l 614 669 q 617 669 623 669 q 628 668 629 666 l 629 666 q 636 666 643 667 q 650 668 656 668 l 656 668 q 670 671 683 671 l 683 671 q 689 671 695 668 l 695 668 q 701 665 708 665 l 708 665 l 713 666 l 716 666 q 719 664 723 661 q 726 657 726 655 l 726 655 l 796 339 q 828 222 854 91 l 854 91 q 854 85 858 78 l 858 78 q 859 71 861 59 q 863 47 863 39 l 863 39 q 864 35 864 28 l 864 28 q 864 14 858 5 l 858 5 q 854 -1 846 -1 l 846 -1 l 833 -1 q 818 -1 810 0 l 810 0 l 784 0 l 759 0 l 739 0 q 731 0 731 1 l 731 1 l 668 1 l 668 3 q 664 5 658 5 l 658 5 q 658 5 658 5 q 657 4 656 3 l 656 3 q 656 1 654 1 l 654 1 l 651 1 l 643 1 q 638 3 623 3 l 623 3 q 593 5 576 5 l 576 5 q 570 14 564 41 q 557 68 550 101 l 550 101 q 548 117 546 123 l 546 123 q 525 119 491 119 l 491 119 l 460 119 l 431 119 l 424 87 q 411 21 403 5 l 403 5 q 399 5 393 3 l 393 3 q 391 2 390 2 q 388 1 388 1 l 388 1 l 384 1 q 378 1 375 3 l 375 3 q 373 5 370 5 l 370 5 l 325 3 l 309 3 l 294 3 q 290 1 284 1 l 284 1 l 280 1 l 188 1 l 179 1 q 168 0 134 0 l 134 0 l 108 0 q 100 -1 85 -1 l 85 -1 l 73 -1 m 535 244 q 528 293 528 293 l 528 293 q 525 307 518 346 l 518 346 q 516 356 508 400 l 508 400 q 500 448 500 448 l 500 448 q 497 468 494 483 l 494 483 l 493 496 q 490 501 490 505 l 490 505 l 489 511 q 488 509 488 505 l 488 505 q 488 501 486 500 l 486 500 l 486 496 l 484 483 q 483 476 482 468 q 480 459 478 449 l 478 449 l 473 421 q 462 358 460 348 l 460 348 q 459 337 455 315 l 455 315 q 453 308 451 294 l 451 294 l 443 248 l 494 248 l 501 250 l 503 250 q 515 250 521 248 l 521 248 q 525 248 529 247 q 532 245 535 244 l 535 244 m 267 736 l 249 736 l 230 736 q 223 736 214 751 l 214 751 q 198 777 175 831 l 175 831 l 157 868 q 153 876 125 931 l 125 931 q 112 964 93 992 l 93 992 q 85 1004 79 1016 l 79 1016 l 64 1041 q 61 1047 57 1056 q 52 1064 48 1069 l 48 1069 q 39 1081 24 1112 l 24 1112 q 21 1118 21 1121 l 21 1121 q 21 1127 28 1131 l 28 1131 q 34 1134 55 1139 l 55 1139 l 58 1139 q 59 1138 61 1138 q 62 1138 62 1138 l 62 1138 l 69 1141 l 112 1143 l 119 1144 q 121 1144 122 1145 q 123 1146 124 1146 l 124 1146 l 134 1146 q 142 1146 145 1144 l 145 1144 l 152 1147 l 207 1146 q 225 1144 270 1144 l 270 1144 l 313 1137 l 322 1131 q 341 1063 357 976 l 357 976 l 364 923 l 372 871 l 375 837 q 380 797 380 766 l 380 766 q 380 752 377 744 q 373 736 362 736 l 362 736 l 334 736 l 307 736 l 278 736 l 274 739 l 267 736 m 595 736 l 577 736 l 558 736 q 550 736 544 751 l 544 751 q 529 795 519 831 l 519 831 q 511 860 508 868 l 508 868 q 500 887 495 906 q 489 925 487 931 l 487 931 q 476 973 467 992 l 467 992 q 460 1003 457 1016 l 457 1016 q 453 1023 445 1041 l 445 1041 q 443 1047 439 1055 q 435 1063 433 1069 l 433 1069 q 426 1088 425 1091 l 425 1091 q 421 1099 420 1104 q 418 1109 417 1112 l 417 1112 q 416 1115 416 1119 l 416 1119 q 416 1127 425 1131 l 425 1131 q 433 1134 453 1139 l 453 1139 l 457 1139 q 457 1138 460 1138 l 460 1138 l 468 1141 l 512 1143 l 517 1144 q 519 1144 521 1145 q 523 1146 524 1146 l 524 1146 l 534 1146 q 542 1146 544 1144 l 544 1144 l 552 1147 l 605 1146 q 624 1144 669 1144 l 669 1144 l 712 1137 l 718 1131 q 723 1072 727 976 l 727 976 q 724 949 724 923 l 724 923 q 724 888 723 871 l 723 871 q 722 828 713 766 l 713 766 q 711 736 689 736 l 689 736 l 662 736 l 635 736 l 607 736 l 603 739 l 595 736"},"Ä":{"x_min":54,"x_max":864,"ha":918,"o":"m 73 -1 q 60 -1 55 19 l 55 19 q 54 22 54 29 l 54 29 q 54 39 58 59 l 58 59 q 60 72 62 80 q 63 87 64 91 l 64 91 q 94 232 123 339 l 123 339 l 193 655 q 193 657 196 661 q 199 665 203 666 l 203 666 l 208 666 q 208 665 211 665 l 211 665 q 223 665 238 668 l 238 668 q 253 671 265 671 l 265 671 q 287 671 306 668 l 306 668 q 315 668 326 667 q 337 666 349 666 l 349 666 q 353 666 358 668 l 358 668 l 376 668 l 399 668 l 423 669 q 430 670 440 670 l 440 670 q 448 670 448 671 l 448 671 l 464 671 l 498 671 l 540 671 q 596 671 614 669 l 614 669 q 617 669 623 669 q 628 668 629 666 l 629 666 q 636 666 643 667 q 650 668 656 668 l 656 668 q 670 671 683 671 l 683 671 q 689 671 695 668 l 695 668 q 701 665 708 665 l 708 665 l 713 666 l 716 666 q 719 664 723 661 q 726 657 726 655 l 726 655 l 796 339 q 828 222 854 91 l 854 91 q 854 85 858 78 l 858 78 q 859 71 861 59 q 863 47 863 39 l 863 39 q 864 35 864 28 l 864 28 q 864 14 858 5 l 858 5 q 854 -1 846 -1 l 846 -1 l 833 -1 q 818 -1 810 0 l 810 0 l 784 0 l 759 0 l 739 0 q 731 0 731 1 l 731 1 l 668 1 l 668 3 q 664 5 658 5 l 658 5 q 658 5 658 5 q 657 4 656 3 l 656 3 q 656 1 654 1 l 654 1 l 651 1 l 643 1 q 638 3 623 3 l 623 3 q 593 5 576 5 l 576 5 q 570 14 564 41 q 557 68 550 101 l 550 101 q 548 117 546 123 l 546 123 q 525 119 491 119 l 491 119 l 460 119 l 431 119 l 424 87 q 411 21 403 5 l 403 5 q 399 5 393 3 l 393 3 q 391 2 390 2 q 388 1 388 1 l 388 1 l 384 1 q 378 1 375 3 l 375 3 q 373 5 370 5 l 370 5 l 325 3 l 309 3 l 294 3 q 290 1 284 1 l 284 1 l 280 1 l 188 1 l 179 1 q 168 0 134 0 l 134 0 l 108 0 q 100 -1 85 -1 l 85 -1 l 73 -1 m 535 244 q 528 293 528 293 l 528 293 q 525 307 518 346 l 518 346 q 516 356 508 400 l 508 400 q 500 448 500 448 l 500 448 q 497 468 494 483 l 494 483 l 493 496 q 490 501 490 505 l 490 505 l 489 511 q 488 509 488 505 l 488 505 q 488 501 486 500 l 486 500 l 486 496 l 484 483 q 483 476 482 468 q 480 459 478 449 l 478 449 l 473 421 q 462 358 460 348 l 460 348 q 459 337 455 315 l 455 315 q 453 308 451 294 l 451 294 l 443 248 l 494 248 l 501 250 l 503 250 q 515 250 521 248 l 521 248 q 525 248 529 247 q 532 245 535 244 l 535 244 m 203 771 l 197 777 l 190 809 l 190 838 l 189 858 l 188 864 q 188 872 192 877 l 192 877 l 195 908 l 195 911 l 194 916 q 198 928 205 939 l 205 939 q 210 944 223 944 l 223 944 l 327 944 q 352 947 362 947 l 362 947 q 372 947 375 946 l 375 946 q 378 946 381 945 q 384 944 388 944 l 388 944 l 395 944 q 397 944 399 945 q 400 946 402 946 l 402 946 l 405 946 q 417 946 417 921 l 417 921 l 417 901 q 415 893 415 881 l 415 881 q 415 880 416 878 q 416 876 417 874 l 417 874 l 417 864 l 417 852 l 417 842 l 417 821 q 418 813 418 798 l 418 798 q 418 788 414 780 q 410 772 402 771 l 402 771 l 203 771 m 567 771 l 508 777 l 502 809 l 502 838 q 502 854 499 864 l 499 864 l 499 869 q 498 871 498 877 l 498 877 q 498 881 498 891 q 497 900 497 918 l 497 918 q 497 919 498 920 q 498 921 497 922 l 497 922 l 497 926 q 499 928 503 934 q 506 939 510 941 l 510 941 q 521 944 535 944 l 535 944 l 639 944 q 666 947 673 947 l 673 947 q 683 947 687 946 l 687 946 q 689 946 692 945 q 695 944 700 944 l 700 944 l 707 944 q 709 944 711 945 q 712 946 714 946 l 714 946 l 717 946 q 724 946 726 940 q 728 933 728 921 l 728 921 l 728 908 l 727 881 q 727 880 727 878 q 727 876 728 874 l 728 874 l 728 864 l 728 852 l 728 842 l 727 831 l 727 821 q 727 813 728 811 l 728 811 q 730 803 730 798 l 730 798 q 730 772 714 771 l 714 771 l 567 771"},"Ạ":{"x_min":54,"x_max":864,"ha":918,"o":"m 73 -1 q 60 -1 55 19 l 55 19 q 54 22 54 29 l 54 29 q 54 39 58 59 l 58 59 q 60 72 62 80 q 63 87 64 91 l 64 91 q 94 232 123 339 l 123 339 l 193 655 q 193 657 196 661 q 199 665 203 666 l 203 666 l 208 666 q 208 665 211 665 l 211 665 q 223 665 238 668 l 238 668 q 253 671 265 671 l 265 671 q 287 671 306 668 l 306 668 q 315 668 326 667 q 337 666 349 666 l 349 666 q 353 666 358 668 l 358 668 l 376 668 l 399 668 l 423 669 q 430 670 440 670 l 440 670 q 448 670 448 671 l 448 671 l 464 671 l 498 671 l 540 671 q 596 671 614 669 l 614 669 q 617 669 623 669 q 628 668 629 666 l 629 666 q 636 666 643 667 q 650 668 656 668 l 656 668 q 670 671 683 671 l 683 671 q 689 671 695 668 l 695 668 q 701 665 708 665 l 708 665 l 713 666 l 716 666 q 719 664 723 661 q 726 657 726 655 l 726 655 l 796 339 q 828 222 854 91 l 854 91 q 854 85 858 78 l 858 78 q 859 71 861 59 q 863 47 863 39 l 863 39 q 864 35 864 28 l 864 28 q 864 14 858 5 l 858 5 q 854 -1 846 -1 l 846 -1 l 833 -1 q 818 -1 810 0 l 810 0 l 784 0 l 759 0 l 739 0 q 731 0 731 1 l 731 1 l 668 1 l 668 3 q 664 5 658 5 l 658 5 q 658 5 658 5 q 657 4 656 3 l 656 3 q 656 1 654 1 l 654 1 l 651 1 l 643 1 q 638 3 623 3 l 623 3 q 593 5 576 5 l 576 5 q 570 14 564 41 q 557 68 550 101 l 550 101 q 548 117 546 123 l 546 123 q 525 119 491 119 l 491 119 l 460 119 l 431 119 l 424 87 q 411 21 403 5 l 403 5 q 399 5 393 3 l 393 3 q 391 2 390 2 q 388 1 388 1 l 388 1 l 384 1 q 378 1 375 3 l 375 3 q 373 5 370 5 l 370 5 l 325 3 l 309 3 l 294 3 q 290 1 284 1 l 284 1 l 280 1 l 188 1 l 179 1 q 168 0 134 0 l 134 0 l 108 0 q 100 -1 85 -1 l 85 -1 l 73 -1 m 535 244 q 528 293 528 293 l 528 293 q 525 307 518 346 l 518 346 q 516 356 508 400 l 508 400 q 500 448 500 448 l 500 448 q 497 468 494 483 l 494 483 l 493 496 q 490 501 490 505 l 490 505 l 489 511 q 488 509 488 505 l 488 505 q 488 501 486 500 l 486 500 l 486 496 l 484 483 q 483 476 482 468 q 480 459 478 449 l 478 449 l 473 421 q 462 358 460 348 l 460 348 q 459 337 455 315 l 455 315 q 453 308 451 294 l 451 294 l 443 248 l 494 248 l 501 250 l 503 250 q 515 250 521 248 l 521 248 q 525 248 529 247 q 532 245 535 244 l 535 244 m 457 -274 l 444 -274 q 440 -273 430 -273 l 430 -273 l 365 -266 l 360 -261 q 359 -254 359 -225 l 359 -225 q 359 -195 362 -163 l 362 -163 l 364 -134 l 364 -113 q 365 -101 385 -101 l 385 -101 l 414 -101 q 423 -103 442 -103 l 442 -103 l 460 -103 q 468 -101 484 -101 l 484 -101 l 492 -101 l 500 -101 l 509 -101 q 512 -103 515 -103 l 515 -103 q 522 -103 525 -101 l 525 -101 l 535 -101 q 555 -101 555 -110 l 555 -110 l 555 -113 q 554 -118 554 -124 l 554 -124 l 554 -131 l 554 -143 l 554 -169 l 554 -246 q 554 -251 552 -255 l 552 -255 q 549 -265 543 -266 l 543 -266 q 541 -269 533 -269 l 533 -269 l 530 -268 l 528 -268 l 528 -268 l 523 -269 l 504 -271 l 499 -273 l 493 -274 l 487 -273 q 485 -273 484 -272 q 483 -271 482 -271 l 482 -271 q 479 -271 479 -273 l 479 -273 l 474 -274 l 457 -274"},"À":{"x_min":54,"x_max":864,"ha":918,"o":"m 73 -1 q 60 -1 55 19 l 55 19 q 54 22 54 29 l 54 29 q 54 39 58 59 l 58 59 q 60 72 62 80 q 63 87 64 91 l 64 91 q 94 232 123 339 l 123 339 l 193 655 q 193 657 196 661 q 199 665 203 666 l 203 666 l 208 666 q 208 665 211 665 l 211 665 q 223 665 238 668 l 238 668 q 253 671 265 671 l 265 671 q 287 671 306 668 l 306 668 q 315 668 326 667 q 337 666 349 666 l 349 666 q 353 666 358 668 l 358 668 l 376 668 l 399 668 l 423 669 q 430 670 440 670 l 440 670 q 448 670 448 671 l 448 671 l 464 671 l 498 671 l 540 671 q 596 671 614 669 l 614 669 q 617 669 623 669 q 628 668 629 666 l 629 666 q 636 666 643 667 q 650 668 656 668 l 656 668 q 670 671 683 671 l 683 671 q 689 671 695 668 l 695 668 q 701 665 708 665 l 708 665 l 713 666 l 716 666 q 719 664 723 661 q 726 657 726 655 l 726 655 l 796 339 q 828 222 854 91 l 854 91 q 854 85 858 78 l 858 78 q 859 71 861 59 q 863 47 863 39 l 863 39 q 864 35 864 28 l 864 28 q 864 14 858 5 l 858 5 q 854 -1 846 -1 l 846 -1 l 833 -1 q 818 -1 810 0 l 810 0 l 784 0 l 759 0 l 739 0 q 731 0 731 1 l 731 1 l 668 1 l 668 3 q 664 5 658 5 l 658 5 q 658 5 658 5 q 657 4 656 3 l 656 3 q 656 1 654 1 l 654 1 l 651 1 l 643 1 q 638 3 623 3 l 623 3 q 593 5 576 5 l 576 5 q 570 14 564 41 q 557 68 550 101 l 550 101 q 548 117 546 123 l 546 123 q 525 119 491 119 l 491 119 l 460 119 l 431 119 l 424 87 q 411 21 403 5 l 403 5 q 399 5 393 3 l 393 3 q 391 2 390 2 q 388 1 388 1 l 388 1 l 384 1 q 378 1 375 3 l 375 3 q 373 5 370 5 l 370 5 l 325 3 l 309 3 l 294 3 q 290 1 284 1 l 284 1 l 280 1 l 188 1 l 179 1 q 168 0 134 0 l 134 0 l 108 0 q 100 -1 85 -1 l 85 -1 l 73 -1 m 535 244 q 528 293 528 293 l 528 293 q 525 307 518 346 l 518 346 q 516 356 508 400 l 508 400 q 500 448 500 448 l 500 448 q 497 468 494 483 l 494 483 l 493 496 q 490 501 490 505 l 490 505 l 489 511 q 488 509 488 505 l 488 505 q 488 501 486 500 l 486 500 l 486 496 l 484 483 q 483 476 482 468 q 480 459 478 449 l 478 449 l 473 421 q 462 358 460 348 l 460 348 q 459 337 455 315 l 455 315 q 453 308 451 294 l 451 294 l 443 248 l 494 248 l 501 250 l 503 250 q 515 250 521 248 l 521 248 q 525 248 529 247 q 532 245 535 244 l 535 244 m 424 736 l 407 736 l 387 736 q 380 736 370 751 l 370 751 q 351 779 332 824 l 332 824 q 328 831 324 840 q 319 849 314 858 l 314 858 q 305 872 290 907 l 290 907 l 282 926 l 274 945 q 272 949 266 964 q 259 979 250 992 l 250 992 l 237 1016 q 232 1023 222 1041 l 222 1041 q 196 1084 192 1093 l 192 1093 q 183 1108 182 1112 l 182 1112 q 179 1118 179 1122 l 179 1122 q 179 1128 185 1131 l 185 1131 q 190 1134 212 1139 l 212 1139 l 217 1139 q 217 1138 219 1138 l 219 1138 l 227 1141 l 269 1143 l 275 1144 q 277 1144 279 1145 q 281 1146 282 1146 l 282 1146 l 292 1146 q 299 1146 302 1144 l 302 1144 l 308 1147 l 363 1146 q 382 1144 427 1144 l 427 1144 l 470 1137 l 478 1131 q 500 1051 514 976 l 514 976 q 515 951 520 923 l 520 923 q 533 860 535 817 l 535 817 q 537 801 537 766 l 537 766 q 537 752 534 744 q 530 736 518 736 l 518 736 l 492 736 l 464 736 l 435 736 l 432 739 l 424 736"},"Ả":{"x_min":54,"x_max":864,"ha":918,"o":"m 73 -1 q 60 -1 55 19 l 55 19 q 54 22 54 29 l 54 29 q 54 39 58 59 l 58 59 q 60 72 62 80 q 63 87 64 91 l 64 91 q 94 232 123 339 l 123 339 l 193 655 q 193 657 196 661 q 199 665 203 666 l 203 666 l 208 666 q 208 665 211 665 l 211 665 q 223 665 238 668 l 238 668 q 253 671 265 671 l 265 671 q 287 671 306 668 l 306 668 q 315 668 326 667 q 337 666 349 666 l 349 666 q 353 666 358 668 l 358 668 l 376 668 l 399 668 l 423 669 q 430 670 440 670 l 440 670 q 448 670 448 671 l 448 671 l 464 671 l 498 671 l 540 671 q 596 671 614 669 l 614 669 q 617 669 623 669 q 628 668 629 666 l 629 666 q 636 666 643 667 q 650 668 656 668 l 656 668 q 670 671 683 671 l 683 671 q 689 671 695 668 l 695 668 q 701 665 708 665 l 708 665 l 713 666 l 716 666 q 719 664 723 661 q 726 657 726 655 l 726 655 l 796 339 q 828 222 854 91 l 854 91 q 854 85 858 78 l 858 78 q 859 71 861 59 q 863 47 863 39 l 863 39 q 864 35 864 28 l 864 28 q 864 14 858 5 l 858 5 q 854 -1 846 -1 l 846 -1 l 833 -1 q 818 -1 810 0 l 810 0 l 784 0 l 759 0 l 739 0 q 731 0 731 1 l 731 1 l 668 1 l 668 3 q 664 5 658 5 l 658 5 q 658 5 658 5 q 657 4 656 3 l 656 3 q 656 1 654 1 l 654 1 l 651 1 l 643 1 q 638 3 623 3 l 623 3 q 593 5 576 5 l 576 5 q 570 14 564 41 q 557 68 550 101 l 550 101 q 548 117 546 123 l 546 123 q 525 119 491 119 l 491 119 l 460 119 l 431 119 l 424 87 q 411 21 403 5 l 403 5 q 399 5 393 3 l 393 3 q 391 2 390 2 q 388 1 388 1 l 388 1 l 384 1 q 378 1 375 3 l 375 3 q 373 5 370 5 l 370 5 l 325 3 l 309 3 l 294 3 q 290 1 284 1 l 284 1 l 280 1 l 188 1 l 179 1 q 168 0 134 0 l 134 0 l 108 0 q 100 -1 85 -1 l 85 -1 l 73 -1 m 535 244 q 528 293 528 293 l 528 293 q 525 307 518 346 l 518 346 q 516 356 508 400 l 508 400 q 500 448 500 448 l 500 448 q 497 468 494 483 l 494 483 l 493 496 q 490 501 490 505 l 490 505 l 489 511 q 488 509 488 505 l 488 505 q 488 501 486 500 l 486 500 l 486 496 l 484 483 q 483 476 482 468 q 480 459 478 449 l 478 449 l 473 421 q 462 358 460 348 l 460 348 q 459 337 455 315 l 455 315 q 453 308 451 294 l 451 294 l 443 248 l 494 248 l 501 250 l 503 250 q 515 250 521 248 l 521 248 q 525 248 529 247 q 532 245 535 244 l 535 244 m 428 768 q 416 768 412 779 l 412 779 q 409 787 409 808 l 409 808 q 409 829 418 844 q 427 859 454 878 l 454 878 q 475 893 475 903 l 475 903 q 475 917 433 917 l 433 917 q 401 917 388 914 q 375 911 372 911 l 372 911 q 367 911 367 919 l 367 919 q 367 947 370 977 l 370 977 q 371 982 372 986 q 372 990 373 992 l 373 992 q 374 996 377 998 q 380 1000 383 1001 q 386 1001 387 1001 l 387 1001 q 431 1007 477 1007 l 477 1007 q 536 1007 575 989 q 613 971 613 932 l 613 932 q 613 881 553 846 l 553 846 q 528 831 518 822 q 508 812 508 799 l 508 799 l 507 777 q 507 768 500 768 l 500 768 l 495 768 l 469 769 q 464 769 455 769 q 446 768 428 768 l 428 768"},"Ȃ":{"x_min":54,"x_max":864,"ha":918,"o":"m 73 -1 q 60 -1 55 19 l 55 19 q 54 22 54 29 l 54 29 q 54 39 58 59 l 58 59 q 60 72 62 80 q 63 87 64 91 l 64 91 q 94 232 123 339 l 123 339 l 193 655 q 193 657 196 661 q 199 665 203 666 l 203 666 l 208 666 q 208 665 211 665 l 211 665 q 223 665 238 668 l 238 668 q 253 671 265 671 l 265 671 q 287 671 306 668 l 306 668 q 315 668 326 667 q 337 666 349 666 l 349 666 q 353 666 358 668 l 358 668 l 376 668 l 399 668 l 423 669 q 430 670 440 670 l 440 670 q 448 670 448 671 l 448 671 l 464 671 l 498 671 l 540 671 q 596 671 614 669 l 614 669 q 617 669 623 669 q 628 668 629 666 l 629 666 q 636 666 643 667 q 650 668 656 668 l 656 668 q 670 671 683 671 l 683 671 q 689 671 695 668 l 695 668 q 701 665 708 665 l 708 665 l 713 666 l 716 666 q 719 664 723 661 q 726 657 726 655 l 726 655 l 796 339 q 828 222 854 91 l 854 91 q 854 85 858 78 l 858 78 q 859 71 861 59 q 863 47 863 39 l 863 39 q 864 35 864 28 l 864 28 q 864 14 858 5 l 858 5 q 854 -1 846 -1 l 846 -1 l 833 -1 q 818 -1 810 0 l 810 0 l 784 0 l 759 0 l 739 0 q 731 0 731 1 l 731 1 l 668 1 l 668 3 q 664 5 658 5 l 658 5 q 658 5 658 5 q 657 4 656 3 l 656 3 q 656 1 654 1 l 654 1 l 651 1 l 643 1 q 638 3 623 3 l 623 3 q 593 5 576 5 l 576 5 q 570 14 564 41 q 557 68 550 101 l 550 101 q 548 117 546 123 l 546 123 q 525 119 491 119 l 491 119 l 460 119 l 431 119 l 424 87 q 411 21 403 5 l 403 5 q 399 5 393 3 l 393 3 q 391 2 390 2 q 388 1 388 1 l 388 1 l 384 1 q 378 1 375 3 l 375 3 q 373 5 370 5 l 370 5 l 325 3 l 309 3 l 294 3 q 290 1 284 1 l 284 1 l 280 1 l 188 1 l 179 1 q 168 0 134 0 l 134 0 l 108 0 q 100 -1 85 -1 l 85 -1 l 73 -1 m 535 244 q 528 293 528 293 l 528 293 q 525 307 518 346 l 518 346 q 516 356 508 400 l 508 400 q 500 448 500 448 l 500 448 q 497 468 494 483 l 494 483 l 493 496 q 490 501 490 505 l 490 505 l 489 511 q 488 509 488 505 l 488 505 q 488 501 486 500 l 486 500 l 486 496 l 484 483 q 483 476 482 468 q 480 459 478 449 l 478 449 l 473 421 q 462 358 460 348 l 460 348 q 459 337 455 315 l 455 315 q 453 308 451 294 l 451 294 l 443 248 l 494 248 l 501 250 l 503 250 q 515 250 521 248 l 521 248 q 525 248 529 247 q 532 245 535 244 l 535 244 m 387 728 l 224 732 q 215 759 215 804 l 215 804 q 215 868 280 943 l 280 943 q 315 982 372 998 l 372 998 q 407 1009 474 1009 l 474 1009 q 519 1009 561 995 q 603 981 637 956 l 637 956 q 671 930 691 895 q 710 860 710 821 l 710 821 q 710 781 689 736 l 689 736 l 533 737 q 542 775 542 806 l 542 806 l 542 827 q 542 827 541 829 q 539 830 538 833 l 538 833 q 532 847 498 861 l 498 861 q 480 866 452 866 l 452 866 q 423 866 400 843 l 400 843 q 378 819 378 788 l 378 788 q 378 759 387 728 l 387 728"},"Ā":{"x_min":54,"x_max":864,"ha":918,"o":"m 73 -1 q 60 -1 55 19 l 55 19 q 54 22 54 29 l 54 29 q 54 39 58 59 l 58 59 q 60 72 62 80 q 63 87 64 91 l 64 91 q 94 232 123 339 l 123 339 l 193 655 q 193 657 196 661 q 199 665 203 666 l 203 666 l 208 666 q 208 665 211 665 l 211 665 q 223 665 238 668 l 238 668 q 253 671 265 671 l 265 671 q 287 671 306 668 l 306 668 q 315 668 326 667 q 337 666 349 666 l 349 666 q 353 666 358 668 l 358 668 l 376 668 l 399 668 l 423 669 q 430 670 440 670 l 440 670 q 448 670 448 671 l 448 671 l 464 671 l 498 671 l 540 671 q 596 671 614 669 l 614 669 q 617 669 623 669 q 628 668 629 666 l 629 666 q 636 666 643 667 q 650 668 656 668 l 656 668 q 670 671 683 671 l 683 671 q 689 671 695 668 l 695 668 q 701 665 708 665 l 708 665 l 713 666 l 716 666 q 719 664 723 661 q 726 657 726 655 l 726 655 l 796 339 q 828 222 854 91 l 854 91 q 854 85 858 78 l 858 78 q 859 71 861 59 q 863 47 863 39 l 863 39 q 864 35 864 28 l 864 28 q 864 14 858 5 l 858 5 q 854 -1 846 -1 l 846 -1 l 833 -1 q 818 -1 810 0 l 810 0 l 784 0 l 759 0 l 739 0 q 731 0 731 1 l 731 1 l 668 1 l 668 3 q 664 5 658 5 l 658 5 q 658 5 658 5 q 657 4 656 3 l 656 3 q 656 1 654 1 l 654 1 l 651 1 l 643 1 q 638 3 623 3 l 623 3 q 593 5 576 5 l 576 5 q 570 14 564 41 q 557 68 550 101 l 550 101 q 548 117 546 123 l 546 123 q 525 119 491 119 l 491 119 l 460 119 l 431 119 l 424 87 q 411 21 403 5 l 403 5 q 399 5 393 3 l 393 3 q 391 2 390 2 q 388 1 388 1 l 388 1 l 384 1 q 378 1 375 3 l 375 3 q 373 5 370 5 l 370 5 l 325 3 l 309 3 l 294 3 q 290 1 284 1 l 284 1 l 280 1 l 188 1 l 179 1 q 168 0 134 0 l 134 0 l 108 0 q 100 -1 85 -1 l 85 -1 l 73 -1 m 535 244 q 528 293 528 293 l 528 293 q 525 307 518 346 l 518 346 q 516 356 508 400 l 508 400 q 500 448 500 448 l 500 448 q 497 468 494 483 l 494 483 l 493 496 q 490 501 490 505 l 490 505 l 489 511 q 488 509 488 505 l 488 505 q 488 501 486 500 l 486 500 l 486 496 l 484 483 q 483 476 482 468 q 480 459 478 449 l 478 449 l 473 421 q 462 358 460 348 l 460 348 q 459 337 455 315 l 455 315 q 453 308 451 294 l 451 294 l 443 248 l 494 248 l 501 250 l 503 250 q 515 250 521 248 l 521 248 q 525 248 529 247 q 532 245 535 244 l 535 244 m 610 766 q 600 767 584 767 l 584 767 l 562 768 l 537 768 l 527 769 l 507 769 q 503 769 495 769 q 487 768 482 769 l 482 769 q 472 771 457 771 l 457 771 l 435 771 l 425 771 l 325 771 l 297 771 q 281 771 271 773 q 261 775 255 781 l 255 781 q 248 786 248 796 l 248 796 l 248 832 l 248 862 l 248 891 q 247 901 247 926 l 247 926 q 247 936 255 942 l 255 942 q 256 943 261 947 q 266 951 272 951 l 272 951 l 382 951 l 404 951 q 417 951 457 949 l 457 949 l 497 948 q 567 946 587 946 l 587 946 l 610 946 q 630 946 647 941 l 647 941 q 665 936 665 921 l 665 921 q 665 906 666 897 q 667 887 667 881 l 667 881 l 667 871 q 667 856 668 844 l 668 844 l 668 821 q 668 799 664 786 l 664 786 q 661 766 644 766 l 644 766 l 610 766"},"Ą":{"x_min":54,"x_max":884,"ha":918,"o":"m 877 -143 q 884 -146 884 -153 l 884 -153 l 884 -158 l 867 -240 q 866 -244 859 -248 q 851 -253 841 -258 l 841 -258 q 811 -269 794 -271 l 794 -271 q 787 -273 782 -273 q 777 -273 774 -274 l 774 -274 l 764 -276 q 655 -276 597 -253 l 597 -253 q 542 -233 526 -195 l 526 -195 q 521 -181 521 -163 l 521 -163 q 521 -118 545 -84 l 545 -84 q 562 -61 604 -33 l 604 -33 q 611 -26 623 -19 q 634 -13 639 -10 l 639 -10 l 662 5 l 658 5 q 658 5 658 5 q 657 4 656 3 l 656 3 q 656 1 654 1 l 654 1 l 651 1 l 643 1 q 638 3 623 3 l 623 3 q 593 5 576 5 l 576 5 q 570 14 564 41 q 557 68 550 101 l 550 101 q 548 117 546 123 l 546 123 q 525 119 491 119 l 491 119 l 460 119 l 431 119 l 424 87 q 411 21 403 5 l 403 5 q 399 5 393 3 l 393 3 q 391 2 390 2 q 388 1 388 1 l 388 1 l 384 1 q 378 1 375 3 l 375 3 q 373 5 370 5 l 370 5 l 325 3 l 309 3 l 294 3 q 290 1 284 1 l 284 1 l 280 1 l 188 1 l 179 1 q 168 0 134 0 l 134 0 l 108 0 q 100 -1 85 -1 l 85 -1 l 73 -1 q 60 -1 55 19 l 55 19 q 54 22 54 29 l 54 29 q 54 39 58 59 l 58 59 q 60 72 62 80 q 63 87 64 91 l 64 91 q 94 232 123 339 l 123 339 l 193 655 q 193 657 196 661 q 199 665 203 666 l 203 666 l 208 666 q 208 665 211 665 l 211 665 q 223 665 238 668 l 238 668 q 253 671 265 671 l 265 671 q 287 671 306 668 l 306 668 q 315 668 326 667 q 337 666 349 666 l 349 666 q 353 666 358 668 l 358 668 l 376 668 l 399 668 l 423 669 q 430 670 440 670 l 440 670 q 448 670 448 671 l 448 671 l 464 671 l 498 671 l 540 671 q 596 671 614 669 l 614 669 q 617 669 623 669 q 628 668 629 666 l 629 666 q 636 666 643 667 q 650 668 656 668 l 656 668 q 670 671 683 671 l 683 671 q 689 671 695 668 l 695 668 q 701 665 708 665 l 708 665 l 713 666 l 716 666 q 719 664 723 661 q 726 657 726 655 l 726 655 l 796 339 q 828 222 854 91 l 854 91 q 854 85 858 78 l 858 78 q 859 71 861 59 q 863 47 863 39 l 863 39 q 864 35 864 28 l 864 28 q 864 14 858 5 l 858 5 q 854 -1 846 -1 l 846 -1 l 833 -1 l 816 -1 l 785 -33 q 771 -45 762 -58 l 762 -58 q 749 -73 739 -90 l 739 -90 q 726 -114 726 -126 l 726 -126 q 726 -141 732 -148 q 738 -155 749 -158 l 749 -158 q 751 -159 758 -161 q 764 -163 770 -161 l 770 -161 q 777 -160 790 -160 l 790 -160 q 831 -160 877 -143 l 877 -143 m 521 248 q 525 248 529 247 q 532 245 535 244 l 535 244 q 528 293 528 293 l 528 293 q 525 307 518 346 l 518 346 q 516 356 508 400 l 508 400 q 500 448 500 448 l 500 448 q 497 468 494 483 l 494 483 l 493 496 q 490 501 490 505 l 490 505 l 489 511 q 488 509 488 505 l 488 505 q 488 501 486 500 l 486 500 l 486 496 l 484 483 q 483 476 482 468 q 480 459 478 449 l 478 449 l 473 421 q 462 358 460 348 l 460 348 q 459 337 455 315 l 455 315 q 453 308 451 294 l 451 294 l 443 248 l 494 248 l 501 250 l 503 250 q 515 250 521 248 l 521 248"},"Å":{"x_min":54,"x_max":864,"ha":918,"o":"m 73 -1 q 60 -1 55 19 l 55 19 q 54 22 54 29 l 54 29 q 54 39 58 59 l 58 59 q 60 72 62 80 q 63 87 64 91 l 64 91 q 94 232 123 339 l 123 339 l 193 655 q 193 657 196 661 q 199 665 203 666 l 203 666 l 208 666 q 208 665 211 665 l 211 665 q 223 665 238 668 l 238 668 q 253 671 265 671 l 265 671 q 287 671 306 668 l 306 668 q 315 668 326 667 q 337 666 349 666 l 349 666 q 353 666 358 668 l 358 668 l 376 668 l 399 668 l 423 669 q 430 670 440 670 l 440 670 q 448 670 448 671 l 448 671 l 464 671 l 498 671 l 540 671 q 596 671 614 669 l 614 669 q 617 669 623 669 q 628 668 629 666 l 629 666 q 636 666 643 667 q 650 668 656 668 l 656 668 q 670 671 683 671 l 683 671 q 689 671 695 668 l 695 668 q 701 665 708 665 l 708 665 l 713 666 l 716 666 q 719 664 723 661 q 726 657 726 655 l 726 655 l 796 339 q 828 222 854 91 l 854 91 q 854 85 858 78 l 858 78 q 859 71 861 59 q 863 47 863 39 l 863 39 q 864 35 864 28 l 864 28 q 864 14 858 5 l 858 5 q 854 -1 846 -1 l 846 -1 l 833 -1 q 818 -1 810 0 l 810 0 l 784 0 l 759 0 l 739 0 q 731 0 731 1 l 731 1 l 668 1 l 668 3 q 664 5 658 5 l 658 5 q 658 5 658 5 q 657 4 656 3 l 656 3 q 656 1 654 1 l 654 1 l 651 1 l 643 1 q 638 3 623 3 l 623 3 q 593 5 576 5 l 576 5 q 570 14 564 41 q 557 68 550 101 l 550 101 q 548 117 546 123 l 546 123 q 525 119 491 119 l 491 119 l 460 119 l 431 119 l 424 87 q 411 21 403 5 l 403 5 q 399 5 393 3 l 393 3 q 391 2 390 2 q 388 1 388 1 l 388 1 l 384 1 q 378 1 375 3 l 375 3 q 373 5 370 5 l 370 5 l 325 3 l 309 3 l 294 3 q 290 1 284 1 l 284 1 l 280 1 l 188 1 l 179 1 q 168 0 134 0 l 134 0 l 108 0 q 100 -1 85 -1 l 85 -1 l 73 -1 m 535 244 q 528 293 528 293 l 528 293 q 525 307 518 346 l 518 346 q 516 356 508 400 l 508 400 q 500 448 500 448 l 500 448 q 497 468 494 483 l 494 483 l 493 496 q 490 501 490 505 l 490 505 l 489 511 q 488 509 488 505 l 488 505 q 488 501 486 500 l 486 500 l 486 496 l 484 483 q 483 476 482 468 q 480 459 478 449 l 478 449 l 473 421 q 462 358 460 348 l 460 348 q 459 337 455 315 l 455 315 q 453 308 451 294 l 451 294 l 443 248 l 494 248 l 501 250 l 503 250 q 515 250 521 248 l 521 248 q 525 248 529 247 q 532 245 535 244 l 535 244 m 442 729 q 371 727 313 759 l 313 759 q 293 771 279 790 q 265 809 253 836 l 253 836 q 235 879 235 928 l 235 928 q 235 966 248 1005 q 260 1043 282 1074 l 282 1074 q 306 1107 339 1126 q 372 1144 410 1144 l 410 1144 q 427 1144 434 1142 l 434 1142 q 434 1143 437 1143 l 437 1143 l 439 1143 q 500 1143 522 1141 l 522 1141 q 555 1135 580 1121 l 580 1121 q 637 1084 657 1043 l 657 1043 q 682 996 682 934 l 682 934 q 682 898 672 863 q 661 827 640 798 l 640 798 l 635 796 q 607 753 547 738 l 547 738 q 524 732 500 731 q 475 730 470 730 l 470 730 q 451 730 442 729 l 442 729 m 448 857 q 489 857 513 881 l 513 881 q 536 901 542 924 l 542 924 q 547 939 547 956 l 547 956 l 547 961 q 547 974 537 991 l 537 991 q 519 1015 492 1021 l 492 1021 q 470 1026 448 1026 l 448 1026 q 422 1026 404 1007 l 404 1007 q 379 980 379 923 l 379 923 l 379 918 l 379 911 q 380 910 381 908 q 382 906 382 903 l 382 903 q 385 884 412 866 l 412 866 q 430 857 448 857 l 448 857"},"Ǻ":{"x_min":54,"x_max":891,"ha":918,"o":"m 696 903 q 689 903 687 908 q 684 913 683 923 l 683 923 q 682 930 682 944 l 682 944 l 683 988 q 683 995 684 1004 q 685 1012 685 1020 l 685 1020 l 685 1053 q 692 1112 700 1149 l 700 1149 l 704 1154 l 731 1158 l 771 1159 l 805 1160 l 809 1158 q 810 1159 815 1159 l 815 1159 l 823 1159 l 825 1158 l 829 1158 l 856 1156 l 860 1154 q 863 1154 863 1155 l 863 1155 l 865 1155 q 869 1154 875 1153 q 880 1152 883 1150 l 883 1150 q 891 1147 886 1138 l 886 1138 q 880 1128 873 1111 l 873 1111 q 872 1108 865 1094 l 865 1094 q 863 1090 862 1086 q 860 1082 858 1078 l 858 1078 q 855 1074 854 1071 q 852 1067 849 1063 l 849 1063 q 843 1054 839 1043 q 835 1031 833 1025 l 833 1025 q 820 995 816 986 l 816 986 q 815 983 812 977 q 809 970 808 963 l 808 963 q 802 946 788 913 l 788 913 q 781 904 778 904 l 778 904 l 766 904 q 758 904 754 903 l 754 903 l 750 905 l 748 904 l 730 904 q 727 904 723 905 q 718 905 713 904 l 713 904 q 708 903 696 903 l 696 903 m 440 713 q 388 713 336 740 l 336 740 q 305 757 283 808 l 283 808 q 268 843 268 890 l 268 890 q 268 924 279 958 q 289 992 309 1020 l 309 1020 q 354 1083 423 1083 l 423 1083 q 438 1083 444 1081 l 444 1081 q 444 1083 448 1083 l 448 1083 q 483 1083 523 1079 l 523 1079 q 550 1075 574 1063 l 574 1063 q 626 1026 643 993 l 643 993 q 664 955 664 895 l 664 895 q 664 863 655 831 q 646 799 628 774 l 628 774 l 623 773 q 597 735 545 721 l 545 721 q 521 715 500 714 q 479 713 440 713 l 440 713 m 456 828 q 496 828 514 848 l 514 848 q 534 865 540 888 l 540 888 q 545 903 545 915 l 545 915 l 545 919 q 545 929 535 946 l 535 946 q 521 967 495 973 l 495 973 q 477 978 456 978 l 456 978 q 433 978 418 960 l 418 960 q 395 939 395 886 l 395 886 l 395 881 l 395 875 q 396 875 397 873 q 398 871 398 868 l 398 868 q 398 860 405 851 q 412 842 424 835 l 424 835 q 437 828 456 828 l 456 828 m 73 -1 q 60 -1 55 19 l 55 19 q 54 22 54 29 l 54 29 q 54 39 58 59 l 58 59 q 60 72 62 80 q 63 87 64 91 l 64 91 q 94 232 123 339 l 123 339 l 193 655 q 193 657 196 661 q 199 665 203 666 l 203 666 l 208 666 q 208 665 211 665 l 211 665 q 223 665 238 668 l 238 668 q 253 671 265 671 l 265 671 q 287 671 306 668 l 306 668 q 315 668 326 667 q 337 666 349 666 l 349 666 q 353 666 358 668 l 358 668 l 376 668 l 399 668 l 423 669 q 430 670 440 670 l 440 670 q 448 670 448 671 l 448 671 l 464 671 l 498 671 l 540 671 q 596 671 614 669 l 614 669 q 617 669 623 669 q 628 668 629 666 l 629 666 q 636 666 643 667 q 650 668 656 668 l 656 668 q 670 671 683 671 l 683 671 q 689 671 695 668 l 695 668 q 701 665 708 665 l 708 665 l 713 666 l 716 666 q 719 664 723 661 q 726 657 726 655 l 726 655 l 796 339 q 828 222 854 91 l 854 91 q 854 85 858 78 l 858 78 q 859 71 861 59 q 863 47 863 39 l 863 39 q 864 35 864 28 l 864 28 q 864 14 858 5 l 858 5 q 854 -1 846 -1 l 846 -1 l 833 -1 q 818 -1 810 0 l 810 0 l 784 0 l 759 0 l 739 0 q 731 0 731 1 l 731 1 l 668 1 l 668 3 q 664 5 658 5 l 658 5 q 658 5 658 5 q 657 4 656 3 l 656 3 q 656 1 654 1 l 654 1 l 651 1 l 643 1 q 638 3 623 3 l 623 3 q 593 5 576 5 l 576 5 q 570 14 564 41 q 557 68 550 101 l 550 101 q 548 117 546 123 l 546 123 q 525 119 491 119 l 491 119 l 460 119 l 431 119 l 424 87 q 411 21 403 5 l 403 5 q 399 5 393 3 l 393 3 q 391 2 390 2 q 388 1 388 1 l 388 1 l 384 1 q 378 1 375 3 l 375 3 q 373 5 370 5 l 370 5 l 325 3 l 309 3 l 294 3 q 290 1 284 1 l 284 1 l 280 1 l 188 1 l 179 1 q 168 0 134 0 l 134 0 l 108 0 q 100 -1 85 -1 l 85 -1 l 73 -1 m 535 244 q 528 293 528 293 l 528 293 q 525 307 518 346 l 518 346 q 516 356 508 400 l 508 400 q 500 448 500 448 l 500 448 q 497 468 494 483 l 494 483 l 493 496 q 490 501 490 505 l 490 505 l 489 511 q 488 509 488 505 l 488 505 q 488 501 486 500 l 486 500 l 486 496 l 484 483 q 483 476 482 468 q 480 459 478 449 l 478 449 l 473 421 q 462 358 460 348 l 460 348 q 459 337 455 315 l 455 315 q 453 308 451 294 l 451 294 l 443 248 l 494 248 l 501 250 l 503 250 q 515 250 521 248 l 521 248 q 525 248 529 247 q 532 245 535 244 l 535 244"},"Ã":{"x_min":54,"x_max":864,"ha":918,"o":"m 73 -1 q 60 -1 55 19 l 55 19 q 54 22 54 29 l 54 29 q 54 39 58 59 l 58 59 q 60 72 62 80 q 63 87 64 91 l 64 91 q 94 232 123 339 l 123 339 l 193 655 q 193 657 196 661 q 199 665 203 666 l 203 666 l 208 666 q 208 665 211 665 l 211 665 q 223 665 238 668 l 238 668 q 253 671 265 671 l 265 671 q 287 671 306 668 l 306 668 q 315 668 326 667 q 337 666 349 666 l 349 666 q 353 666 358 668 l 358 668 l 376 668 l 399 668 l 423 669 q 430 670 440 670 l 440 670 q 448 670 448 671 l 448 671 l 464 671 l 498 671 l 540 671 q 596 671 614 669 l 614 669 q 617 669 623 669 q 628 668 629 666 l 629 666 q 636 666 643 667 q 650 668 656 668 l 656 668 q 670 671 683 671 l 683 671 q 689 671 695 668 l 695 668 q 701 665 708 665 l 708 665 l 713 666 l 716 666 q 719 664 723 661 q 726 657 726 655 l 726 655 l 796 339 q 828 222 854 91 l 854 91 q 854 85 858 78 l 858 78 q 859 71 861 59 q 863 47 863 39 l 863 39 q 864 35 864 28 l 864 28 q 864 14 858 5 l 858 5 q 854 -1 846 -1 l 846 -1 l 833 -1 q 818 -1 810 0 l 810 0 l 784 0 l 759 0 l 739 0 q 731 0 731 1 l 731 1 l 668 1 l 668 3 q 664 5 658 5 l 658 5 q 658 5 658 5 q 657 4 656 3 l 656 3 q 656 1 654 1 l 654 1 l 651 1 l 643 1 q 638 3 623 3 l 623 3 q 593 5 576 5 l 576 5 q 570 14 564 41 q 557 68 550 101 l 550 101 q 548 117 546 123 l 546 123 q 525 119 491 119 l 491 119 l 460 119 l 431 119 l 424 87 q 411 21 403 5 l 403 5 q 399 5 393 3 l 393 3 q 391 2 390 2 q 388 1 388 1 l 388 1 l 384 1 q 378 1 375 3 l 375 3 q 373 5 370 5 l 370 5 l 325 3 l 309 3 l 294 3 q 290 1 284 1 l 284 1 l 280 1 l 188 1 l 179 1 q 168 0 134 0 l 134 0 l 108 0 q 100 -1 85 -1 l 85 -1 l 73 -1 m 535 244 q 528 293 528 293 l 528 293 q 525 307 518 346 l 518 346 q 516 356 508 400 l 508 400 q 500 448 500 448 l 500 448 q 497 468 494 483 l 494 483 l 493 496 q 490 501 490 505 l 490 505 l 489 511 q 488 509 488 505 l 488 505 q 488 501 486 500 l 486 500 l 486 496 l 484 483 q 483 476 482 468 q 480 459 478 449 l 478 449 l 473 421 q 462 358 460 348 l 460 348 q 459 337 455 315 l 455 315 q 453 308 451 294 l 451 294 l 443 248 l 494 248 l 501 250 l 503 250 q 515 250 521 248 l 521 248 q 525 248 529 247 q 532 245 535 244 l 535 244 m 562 716 q 503 716 467 744 l 467 744 q 447 758 433 772 l 433 772 q 430 775 413 793 q 395 810 377 821 l 377 821 q 364 828 347 828 l 347 828 q 332 828 325 804 l 325 804 q 322 794 322 782 l 322 782 q 316 749 315 746 l 315 746 q 313 741 309 744 l 309 744 q 296 745 273 745 l 273 745 q 231 747 217 749 l 217 749 q 204 751 198 755 q 191 758 188 764 l 188 764 q 187 767 186 771 q 184 774 183 779 l 183 779 q 183 778 178 801 l 178 801 q 178 852 187 888 l 187 888 q 198 944 234 972 l 234 972 q 281 1009 364 1009 l 364 1009 q 375 1009 392 1004 q 408 999 423 991 l 423 991 q 464 971 478 951 l 478 951 q 481 947 484 943 q 487 939 489 936 l 489 936 q 504 912 517 904 l 517 904 q 527 898 535 898 l 535 898 q 563 898 563 922 l 563 922 q 563 936 554 956 l 554 956 q 551 963 537 986 l 537 986 q 537 994 552 994 l 552 994 l 557 994 l 709 996 q 718 992 722 981 l 722 981 q 736 952 740 906 l 740 906 q 742 884 742 874 l 742 874 q 742 843 730 819 l 730 819 q 711 777 662 746 l 662 746 q 640 731 609 723 l 609 723 q 590 716 562 716 l 562 716"},"Æ":{"x_min":49,"x_max":1158,"ha":1210,"o":"m 63 -1 q 49 -1 51 19 l 51 19 q 53 31 63 59 l 63 59 q 65 64 70 78 l 70 78 q 74 84 76 91 l 76 91 q 130 214 190 339 l 190 339 l 341 655 q 341 657 346 661 q 350 665 354 666 l 354 666 l 358 666 q 358 665 363 665 l 363 665 q 374 665 389 668 l 389 668 q 403 671 418 671 l 418 671 q 438 671 458 668 l 458 668 q 468 668 479 667 q 489 666 500 666 l 500 666 q 503 666 508 668 l 508 668 l 523 668 l 543 668 l 561 669 q 566 670 575 670 l 575 670 q 580 670 580 671 l 580 671 l 600 671 l 638 671 q 703 671 728 670 l 728 670 l 760 671 q 782 671 824 673 l 824 673 q 910 675 954 675 l 954 675 q 994 675 1015 674 l 1015 674 q 1074 674 1123 669 l 1123 669 q 1129 669 1134 658 l 1134 658 q 1142 631 1145 585 l 1145 585 q 1146 576 1148 564 q 1150 551 1151 543 l 1151 543 l 1151 525 q 1150 515 1145 516 l 1145 516 l 1138 516 l 1043 516 q 1010 515 945 515 l 945 515 q 943 515 941 512 q 939 508 938 503 l 938 503 q 930 478 928 443 l 928 443 q 926 431 926 418 l 926 418 q 926 405 929 402 q 932 398 941 398 l 941 398 l 1031 398 q 1069 398 1119 393 l 1119 393 l 1133 393 q 1144 389 1148 383 l 1148 383 l 1153 370 l 1158 281 l 1158 278 q 1158 261 1121 258 l 1121 258 q 1099 253 1041 253 l 1041 253 q 990 253 974 254 l 974 254 q 946 254 938 253 l 938 253 q 928 250 926 243 q 923 235 923 213 l 923 213 q 923 189 920 178 l 920 178 q 919 168 919 143 l 919 143 l 1016 143 l 1113 143 l 1115 136 q 1120 119 1123 91 l 1123 91 l 1126 69 l 1129 41 l 1130 26 q 1130 5 1110 5 l 1110 5 q 1087 5 1049 3 l 1049 3 q 1030 1 988 1 l 988 1 l 913 1 q 886 0 834 0 l 834 0 l 828 -1 l 813 -1 q 799 -1 791 0 l 791 0 l 738 0 l 671 0 q 664 0 658 1 l 658 1 l 650 1 l 650 3 l 639 3 q 638 3 638 2 q 637 1 636 1 l 636 1 l 633 1 l 625 1 q 619 3 605 3 l 605 3 q 575 5 558 5 l 558 5 q 554 16 554 48 l 554 48 q 554 94 555 123 l 555 123 q 529 118 504 119 l 504 119 l 449 119 q 427 67 415 42 q 403 16 394 5 l 394 5 l 385 3 q 381 1 378 1 l 378 1 l 375 1 q 369 1 368 3 l 368 3 l 363 5 l 318 3 l 300 3 l 286 3 q 281 1 275 1 l 275 1 l 271 1 l 179 1 l 170 1 q 160 0 125 0 l 125 0 l 99 0 q 91 -1 78 -1 l 78 -1 l 63 -1 m 571 244 l 578 346 q 578 366 580 400 l 580 400 l 581 420 q 583 440 583 448 l 583 448 l 584 483 l 585 496 l 585 500 l 585 505 l 585 511 q 584 508 584 506 q 583 503 581 500 l 581 500 l 579 496 q 579 495 578 492 q 577 488 575 483 l 575 483 q 571 474 569 466 q 566 457 563 449 l 563 449 q 549 410 546 403 l 546 403 q 540 384 526 348 l 526 348 q 523 339 517 323 q 511 307 508 294 l 508 294 q 506 289 490 248 l 490 248 l 531 248 q 561 248 571 244 l 571 244"},"Ǽ":{"x_min":51,"x_max":1158,"ha":1210,"o":"m 63 -1 q 49 -1 51 19 l 51 19 q 53 31 63 59 l 63 59 q 65 64 70 78 l 70 78 q 74 84 76 91 l 76 91 q 130 214 190 339 l 190 339 l 341 655 q 341 657 346 661 q 350 665 354 666 l 354 666 l 358 666 q 358 665 363 665 l 363 665 q 374 665 389 668 l 389 668 q 403 671 418 671 l 418 671 q 438 671 458 668 l 458 668 q 468 668 479 667 q 489 666 500 666 l 500 666 q 503 666 508 668 l 508 668 l 523 668 l 543 668 l 561 669 q 566 670 575 670 l 575 670 q 580 670 580 671 l 580 671 l 600 671 l 638 671 q 703 671 728 670 l 728 670 l 760 671 q 782 671 824 673 l 824 673 q 910 675 954 675 l 954 675 q 994 675 1015 674 l 1015 674 q 1074 674 1123 669 l 1123 669 q 1129 669 1134 658 l 1134 658 q 1142 631 1145 585 l 1145 585 q 1146 576 1148 564 q 1150 551 1151 543 l 1151 543 l 1151 525 q 1150 515 1145 516 l 1145 516 l 1138 516 l 1043 516 q 1010 515 945 515 l 945 515 q 943 515 941 512 q 939 508 938 503 l 938 503 q 930 478 928 443 l 928 443 q 926 431 926 418 l 926 418 q 926 405 929 402 q 932 398 941 398 l 941 398 l 1031 398 q 1069 398 1119 393 l 1119 393 l 1133 393 q 1144 389 1148 383 l 1148 383 l 1153 370 l 1158 281 l 1158 278 q 1158 261 1121 258 l 1121 258 q 1099 253 1041 253 l 1041 253 q 990 253 974 254 l 974 254 q 946 254 938 253 l 938 253 q 928 250 926 243 q 923 235 923 213 l 923 213 q 923 189 920 178 l 920 178 q 919 168 919 143 l 919 143 l 1016 143 l 1113 143 l 1115 136 q 1120 119 1123 91 l 1123 91 l 1126 69 l 1129 41 l 1130 26 q 1130 5 1110 5 l 1110 5 q 1087 5 1049 3 l 1049 3 q 1030 1 988 1 l 988 1 l 913 1 q 886 0 834 0 l 834 0 l 828 -1 l 813 -1 q 799 -1 791 0 l 791 0 l 738 0 l 671 0 q 664 0 658 1 l 658 1 l 650 1 l 650 3 l 639 3 q 638 3 638 2 q 637 1 636 1 l 636 1 l 633 1 l 625 1 q 619 3 605 3 l 605 3 q 575 5 558 5 l 558 5 q 554 16 554 48 l 554 48 q 554 94 555 123 l 555 123 q 529 118 504 119 l 504 119 l 449 119 q 427 67 415 42 q 403 16 394 5 l 394 5 l 385 3 q 381 1 378 1 l 378 1 l 375 1 q 369 1 368 3 l 368 3 l 363 5 l 318 3 l 300 3 l 286 3 q 281 1 275 1 l 275 1 l 271 1 l 179 1 l 170 1 q 160 0 125 0 l 125 0 l 99 0 q 91 -1 78 -1 l 78 -1 l 63 -1 m 571 244 l 578 346 q 578 366 580 400 l 580 400 l 581 420 q 583 440 583 448 l 583 448 l 584 483 l 585 496 l 585 500 l 585 505 l 585 511 q 584 508 584 506 q 583 503 581 500 l 581 500 l 579 496 q 579 495 578 492 q 577 488 575 483 l 575 483 q 571 474 569 466 q 566 457 563 449 l 563 449 q 549 410 546 403 l 546 403 q 540 384 526 348 l 526 348 q 523 339 517 323 q 511 307 508 294 l 508 294 q 506 289 490 248 l 490 248 l 531 248 q 561 248 571 244 l 571 244 m 678 736 q 667 736 663 744 q 659 752 659 766 l 659 766 q 659 816 668 871 l 668 871 q 674 903 676 923 l 676 923 q 677 932 679 946 q 681 959 682 976 l 682 976 q 696 1051 718 1131 l 718 1131 l 726 1137 l 769 1144 q 814 1144 833 1146 l 833 1146 l 888 1147 l 894 1144 q 897 1146 906 1146 l 906 1146 l 916 1146 q 916 1146 918 1145 q 919 1144 921 1144 l 921 1144 l 927 1143 l 971 1141 l 977 1138 q 981 1138 981 1139 l 981 1139 l 984 1139 q 1001 1135 1011 1131 l 1011 1131 q 1018 1129 1018 1122 l 1018 1122 q 1018 1120 1016 1112 l 1016 1112 l 1005 1093 l 991 1069 l 976 1041 q 966 1023 961 1016 l 961 1016 q 956 1009 953 1003 q 950 997 946 992 l 946 992 q 930 967 914 931 l 914 931 q 902 901 882 868 l 882 868 l 864 831 q 842 780 826 751 l 826 751 q 815 736 809 736 l 809 736 l 791 736 l 772 736 l 766 739 l 761 736 l 732 736 q 727 736 721 737 q 714 737 706 736 l 706 736 l 678 736"},"B":{"x_min":58,"x_max":780,"ha":820,"o":"m 294 -24 q 223 -24 181 -20 q 138 -17 113 -8 l 113 -8 q 87 3 75 22 q 63 41 63 73 l 63 73 l 63 98 q 64 108 64 128 l 64 128 q 65 138 65 158 l 65 158 q 66 168 66 179 l 66 179 q 66 217 64 293 l 64 293 l 63 353 q 58 424 58 525 l 58 525 l 58 559 l 58 590 q 58 625 61 641 l 61 641 q 63 646 64 650 q 64 654 64 656 l 64 656 q 65 674 79 683 l 79 683 q 87 686 101 686 l 101 686 q 110 686 121 687 q 131 688 143 688 l 143 688 q 159 688 193 690 l 193 690 q 202 691 215 692 q 227 693 243 693 l 243 693 q 275 695 288 695 l 288 695 q 370 695 480 679 l 480 679 q 557 670 600 660 l 600 660 q 673 642 711 613 l 711 613 q 760 571 760 506 l 760 506 q 760 422 691 379 l 691 379 q 686 376 682 375 q 678 373 674 371 l 674 371 q 656 366 643 358 l 643 358 q 641 357 638 355 q 635 352 633 348 l 633 348 q 633 348 634 348 q 634 347 634 346 l 634 346 q 634 346 636 344 l 636 344 q 705 316 748 275 l 748 275 q 780 239 780 200 l 780 200 q 780 145 713 89 l 713 89 q 647 37 550 10 l 550 10 q 478 -10 408 -18 l 408 -18 q 355 -24 294 -24 l 294 -24 m 413 443 q 418 443 424 446 l 424 446 q 450 455 473 468 l 473 468 q 487 474 501 481 q 514 487 519 489 l 519 489 l 528 493 l 536 495 q 540 495 540 500 l 540 500 q 540 517 503 523 l 503 523 q 481 528 448 528 l 448 528 q 418 528 410 505 l 410 505 q 405 493 405 475 q 405 457 405 453 l 405 453 l 405 448 q 405 443 413 443 l 413 443 m 396 154 l 398 154 q 398 154 399 154 q 399 154 399 155 l 399 155 q 469 189 558 229 l 558 229 q 562 233 563 233 l 563 233 l 568 236 q 526 249 485 253 l 485 253 q 433 255 399 255 l 399 255 q 388 255 388 241 l 388 241 l 388 161 q 388 154 396 154 l 396 154"},"C":{"x_min":41,"x_max":631,"ha":676,"o":"m 403 -24 q 337 -24 293 -18 l 293 -18 q 236 -10 190 11 l 190 11 q 184 14 173 21 q 161 27 153 33 l 153 33 q 120 61 99 96 l 99 96 q 82 114 68 146 l 68 146 q 41 216 41 313 l 41 313 q 41 427 88 513 l 88 513 q 129 595 198 642 q 266 688 353 694 l 353 694 l 365 695 l 378 695 q 456 695 546 663 l 546 663 q 554 659 581 647 q 608 635 631 620 l 631 620 l 613 490 l 554 505 q 522 513 494 513 l 494 513 q 438 513 410 471 l 410 471 q 380 427 380 328 l 380 328 q 380 296 383 283 l 383 283 q 387 220 411 190 l 411 190 q 434 164 466 164 l 466 164 q 496 164 533 183 l 533 183 q 565 198 603 224 l 603 224 l 613 60 q 574 24 513 -1 l 513 -1 q 455 -24 403 -24 l 403 -24"},"Ć":{"x_min":41,"x_max":633,"ha":676,"o":"m 403 -24 q 337 -24 293 -18 l 293 -18 q 236 -10 190 11 l 190 11 q 184 14 173 21 q 161 27 153 33 l 153 33 q 120 61 99 96 l 99 96 q 82 114 68 146 l 68 146 q 41 216 41 313 l 41 313 q 41 427 88 513 l 88 513 q 129 595 198 642 q 266 688 353 694 l 353 694 l 365 695 l 378 695 q 456 695 546 663 l 546 663 q 554 659 581 647 q 608 635 631 620 l 631 620 l 613 490 l 554 505 q 522 513 494 513 l 494 513 q 438 513 410 471 l 410 471 q 380 427 380 328 l 380 328 q 380 296 383 283 l 383 283 q 387 220 411 190 l 411 190 q 434 164 466 164 l 466 164 q 496 164 533 183 l 533 183 q 565 198 603 224 l 603 224 l 613 60 q 574 24 513 -1 l 513 -1 q 455 -24 403 -24 l 403 -24 m 293 736 q 282 736 278 744 q 274 752 274 766 l 274 766 q 274 816 283 871 l 283 871 q 289 903 291 923 l 291 923 q 292 932 294 946 q 296 959 297 976 l 297 976 q 311 1051 333 1131 l 333 1131 l 341 1137 l 384 1144 q 429 1144 448 1146 l 448 1146 l 503 1147 l 509 1144 q 512 1146 521 1146 l 521 1146 l 531 1146 q 531 1146 533 1145 q 534 1144 536 1144 l 536 1144 l 542 1143 l 586 1141 l 592 1138 q 596 1138 596 1139 l 596 1139 l 599 1139 q 616 1135 626 1131 l 626 1131 q 633 1129 633 1122 l 633 1122 q 633 1120 631 1112 l 631 1112 l 620 1093 l 606 1069 l 591 1041 q 581 1023 576 1016 l 576 1016 q 571 1009 568 1003 q 565 997 561 992 l 561 992 q 545 967 529 931 l 529 931 q 517 901 497 868 l 497 868 l 479 831 q 457 780 441 751 l 441 751 q 430 736 424 736 l 424 736 l 406 736 l 387 736 l 381 739 l 376 736 l 347 736 q 342 736 336 737 q 329 737 321 736 l 321 736 l 293 736"},"Č":{"x_min":41,"x_max":636,"ha":676,"o":"m 403 -24 q 337 -24 293 -18 l 293 -18 q 236 -10 190 11 l 190 11 q 184 14 173 21 q 161 27 153 33 l 153 33 q 120 61 99 96 l 99 96 q 82 114 68 146 l 68 146 q 41 216 41 313 l 41 313 q 41 427 88 513 l 88 513 q 129 595 198 642 q 266 688 353 694 l 353 694 l 365 695 l 378 695 q 456 695 546 663 l 546 663 q 554 659 581 647 q 608 635 631 620 l 631 620 l 613 490 l 554 505 q 522 513 494 513 l 494 513 q 438 513 410 471 l 410 471 q 380 427 380 328 l 380 328 q 380 296 383 283 l 383 283 q 387 220 411 190 l 411 190 q 434 164 466 164 l 466 164 q 496 164 533 183 l 533 183 q 565 198 603 224 l 603 224 l 613 60 q 574 24 513 -1 l 513 -1 q 455 -24 403 -24 l 403 -24 m 436 738 q 426 738 417 740 q 408 741 404 741 l 404 741 q 397 742 377 742 l 377 742 l 341 741 l 281 741 l 236 746 l 228 754 q 204 794 196 812 l 196 812 l 166 869 q 162 882 155 898 q 148 913 146 918 l 146 918 l 135 939 q 109 987 98 1016 l 98 1016 q 91 1032 83 1064 l 83 1064 l 82 1071 l 82 1077 q 82 1085 86 1091 q 89 1097 97 1097 l 97 1097 q 101 1097 110 1098 q 119 1098 126 1097 l 126 1097 q 136 1096 153 1096 l 153 1096 l 183 1096 l 187 1093 l 192 1097 l 212 1096 l 231 1096 q 236 1096 245 1089 q 254 1081 263 1069 l 263 1069 q 287 1039 306 1011 l 306 1011 q 340 959 359 924 l 359 924 q 369 940 393 972 l 393 972 l 417 1006 l 436 1031 q 459 1070 472 1086 l 472 1086 q 481 1096 486 1096 l 486 1096 l 507 1096 l 544 1097 l 564 1096 l 574 1096 l 597 1097 l 621 1097 q 628 1097 632 1091 q 636 1085 636 1077 l 636 1077 l 634 1071 l 634 1064 q 617 994 571 906 l 571 906 q 554 870 540 846 l 540 846 l 531 828 q 511 795 489 754 l 489 754 l 466 741 l 436 738"},"Ç":{"x_min":41,"x_max":631,"ha":676,"o":"m 494 513 q 438 513 410 471 l 410 471 q 380 427 380 328 l 380 328 q 380 296 383 283 l 383 283 q 387 220 411 190 l 411 190 q 434 164 466 164 l 466 164 q 496 164 533 183 l 533 183 q 565 198 603 224 l 603 224 l 613 60 q 574 24 513 -1 l 513 -1 q 455 -24 403 -24 l 403 -24 l 366 -24 l 361 -48 q 446 -61 491 -99 l 491 -99 q 526 -130 526 -174 l 526 -174 q 526 -239 483 -278 l 483 -278 q 430 -328 303 -328 l 303 -328 l 286 -328 q 256 -328 222 -315 l 222 -315 q 205 -309 196 -298 l 196 -298 l 206 -243 q 210 -232 213 -224 q 216 -217 217 -215 l 217 -215 q 248 -229 286 -229 l 286 -229 q 320 -229 337 -208 l 337 -208 q 351 -188 351 -163 l 351 -163 q 351 -137 334 -123 q 317 -109 288 -109 l 288 -109 q 265 -109 246 -118 l 246 -118 l 248 -78 l 259 -12 q 218 -2 190 11 l 190 11 q 184 14 173 21 q 161 27 153 33 l 153 33 q 120 61 99 96 l 99 96 q 82 114 68 146 l 68 146 q 41 216 41 313 l 41 313 q 41 427 88 513 l 88 513 q 129 595 198 642 q 266 688 353 694 l 353 694 l 365 695 l 378 695 q 456 695 546 663 l 546 663 q 554 659 581 647 q 608 635 631 620 l 631 620 l 613 490 l 554 505 q 522 513 494 513 l 494 513"},"Ĉ":{"x_min":41,"x_max":634,"ha":676,"o":"m 403 -24 q 337 -24 293 -18 l 293 -18 q 236 -10 190 11 l 190 11 q 184 14 173 21 q 161 27 153 33 l 153 33 q 120 61 99 96 l 99 96 q 82 114 68 146 l 68 146 q 41 216 41 313 l 41 313 q 41 427 88 513 l 88 513 q 129 595 198 642 q 266 688 353 694 l 353 694 l 365 695 l 378 695 q 456 695 546 663 l 546 663 q 554 659 581 647 q 608 635 631 620 l 631 620 l 613 490 l 554 505 q 522 513 494 513 l 494 513 q 438 513 410 471 l 410 471 q 380 427 380 328 l 380 328 q 380 296 383 283 l 383 283 q 387 220 411 190 l 411 190 q 434 164 466 164 l 466 164 q 496 164 533 183 l 533 183 q 565 198 603 224 l 603 224 l 613 60 q 574 24 513 -1 l 513 -1 q 455 -24 403 -24 l 403 -24 m 96 736 q 89 736 86 742 q 82 748 82 756 l 82 756 l 82 762 q 82 766 83 768 l 83 768 q 90 805 121 866 l 121 866 q 128 882 144 914 l 144 914 l 166 963 l 196 1021 q 204 1038 228 1078 l 228 1078 l 234 1086 l 281 1097 l 339 1097 l 377 1096 l 392 1096 l 403 1096 q 407 1094 416 1094 l 416 1094 l 436 1094 l 466 1091 l 488 1078 l 531 1004 q 586 903 607 849 l 607 849 q 625 804 633 768 l 633 768 l 634 762 l 634 756 q 634 736 619 736 l 619 736 l 597 736 l 573 736 l 544 736 l 507 736 l 486 736 q 481 736 472 747 l 472 747 q 451 774 434 802 l 434 802 q 424 818 417 827 l 417 827 q 390 861 358 908 l 358 908 q 319 842 306 822 l 306 822 l 293 804 q 273 774 263 763 l 263 763 q 239 736 231 736 l 231 736 l 212 736 l 191 736 l 187 739 l 182 736 l 152 736 q 148 736 142 737 q 136 737 126 736 l 126 736 l 96 736"},"Ċ":{"x_min":41,"x_max":631,"ha":676,"o":"m 403 -24 q 337 -24 293 -18 l 293 -18 q 236 -10 190 11 l 190 11 q 184 14 173 21 q 161 27 153 33 l 153 33 q 120 61 99 96 l 99 96 q 82 114 68 146 l 68 146 q 41 216 41 313 l 41 313 q 41 427 88 513 l 88 513 q 129 595 198 642 q 266 688 353 694 l 353 694 l 365 695 l 378 695 q 456 695 546 663 l 546 663 q 554 659 581 647 q 608 635 631 620 l 631 620 l 613 490 l 554 505 q 522 513 494 513 l 494 513 q 438 513 410 471 l 410 471 q 380 427 380 328 l 380 328 q 380 296 383 283 l 383 283 q 387 220 411 190 l 411 190 q 434 164 466 164 l 466 164 q 496 164 533 183 l 533 183 q 565 198 603 224 l 603 224 l 613 60 q 574 24 513 -1 l 513 -1 q 455 -24 403 -24 l 403 -24 m 356 736 q 346 736 339 737 l 339 737 q 329 739 321 739 l 321 739 l 236 746 l 229 753 q 227 763 227 801 l 227 801 q 227 847 231 884 l 231 884 q 231 899 233 923 l 233 923 l 234 952 q 236 967 262 967 l 262 967 q 288 967 299 966 l 299 966 q 308 966 317 965 q 326 964 336 964 l 336 964 q 353 964 362 966 l 362 966 l 393 966 l 403 966 l 416 966 l 426 966 l 434 966 l 448 966 q 453 967 462 967 l 462 967 q 488 967 488 954 l 488 954 l 488 952 q 486 946 486 936 l 486 936 l 486 927 l 486 912 q 486 908 487 901 q 487 893 487 877 l 487 877 l 487 773 q 486 770 485 768 q 484 765 483 761 l 483 761 q 480 750 472 746 l 472 746 q 470 746 467 745 q 463 744 458 744 l 458 744 q 456 744 456 746 l 456 746 l 451 746 l 451 746 l 444 743 l 421 741 q 419 741 417 740 q 415 739 413 739 l 413 739 l 406 737 q 405 737 397 739 l 397 739 q 395 739 393 740 q 391 741 389 741 l 389 741 q 387 741 387 739 l 387 739 l 381 736 l 356 736"},"D":{"x_min":58,"x_max":813,"ha":858,"o":"m 375 -1 l 243 0 l 90 1 q 73 1 68 23 l 68 23 q 63 37 63 63 l 63 63 q 63 150 61 218 l 61 218 q 58 316 58 425 l 58 425 l 58 645 q 58 654 67 663 q 75 671 84 671 l 84 671 l 200 670 q 233 669 283 669 l 283 669 q 358 669 400 670 l 400 670 l 437 671 q 499 673 535 673 l 535 673 q 597 673 655 649 l 655 649 q 723 623 764 560 l 764 560 q 813 484 813 373 l 813 373 q 813 268 790 198 q 766 128 715 83 l 715 83 q 664 39 582 19 q 499 -1 375 -1 l 375 -1 m 383 133 q 387 132 394 132 l 394 132 q 402 132 416 134 l 416 134 q 421 135 424 137 q 426 138 428 139 l 428 139 q 440 153 451 198 l 451 198 q 458 226 468 294 l 468 294 q 473 352 473 394 l 473 394 l 473 413 q 473 439 468 491 l 468 491 q 461 543 448 564 l 448 564 q 437 578 428 578 l 428 578 q 419 578 412 576 q 405 574 403 573 l 403 573 q 401 572 394 568 l 394 568 l 393 448 q 393 432 391 400 l 391 400 l 390 376 q 388 326 388 304 l 388 304 l 383 133"},"Ǆ":{"x_min":58,"x_max":1424,"ha":1480,"o":"m 375 -1 l 243 0 l 90 1 q 73 1 68 23 l 68 23 q 63 37 63 63 l 63 63 q 63 150 61 218 l 61 218 q 58 316 58 425 l 58 425 l 58 645 q 58 654 67 663 q 75 671 84 671 l 84 671 l 200 670 q 233 669 283 669 l 283 669 q 358 669 400 670 l 400 670 l 437 671 q 499 673 535 673 l 535 673 q 597 673 655 649 l 655 649 q 723 623 764 560 l 764 560 q 813 484 813 373 l 813 373 q 813 268 790 198 q 766 128 715 83 l 715 83 q 664 39 582 19 q 499 -1 375 -1 l 375 -1 m 383 133 q 387 132 394 132 l 394 132 q 402 132 416 134 l 416 134 q 421 135 424 137 q 426 138 428 139 l 428 139 q 440 153 451 198 l 451 198 q 458 226 468 294 l 468 294 q 473 352 473 394 l 473 394 l 473 413 q 473 439 468 491 l 468 491 q 461 543 448 564 l 448 564 q 437 578 428 578 l 428 578 q 419 578 412 576 q 405 574 403 573 l 403 573 q 401 572 394 568 l 394 568 l 393 448 q 393 432 391 400 l 391 400 l 390 376 q 388 326 388 304 l 388 304 l 383 133 m 1173 0 q 1071 0 1024 1 l 1024 1 q 979 1 956 2 l 956 2 l 876 3 q 866 3 858 11 l 858 11 q 849 20 849 28 l 849 28 l 849 213 q 916 276 957 323 l 957 323 q 982 346 1005 372 q 1027 398 1032 404 l 1032 404 q 1052 428 1056 436 l 1056 436 q 1066 449 1066 455 l 1066 455 q 1066 459 1061 459 l 1061 459 l 871 463 q 854 463 843 486 l 843 486 q 838 500 834 538 l 834 538 q 832 554 832 584 l 832 584 q 832 593 833 600 l 833 600 q 833 615 834 623 l 834 623 q 834 639 836 645 l 836 645 l 836 655 l 841 660 q 849 668 861 668 l 861 668 q 868 668 873 666 l 873 666 l 884 665 q 920 665 958 668 l 958 668 q 994 671 1031 671 l 1031 671 q 1126 671 1173 673 l 1173 673 l 1318 674 q 1374 674 1404 668 l 1404 668 q 1417 663 1421 660 l 1421 660 q 1424 654 1424 653 l 1424 653 l 1424 493 q 1424 484 1417 461 l 1417 461 q 1409 440 1387 408 l 1387 408 q 1343 340 1212 203 l 1212 203 q 1256 203 1277 204 l 1277 204 l 1336 204 l 1393 204 q 1402 204 1410 198 q 1418 191 1418 184 l 1418 184 l 1418 23 l 1418 20 q 1418 13 1411 8 l 1411 8 q 1402 4 1389 3 l 1389 3 q 1377 0 1348 0 l 1348 0 l 1173 0 m 1209 738 q 1199 738 1190 740 q 1181 741 1177 741 l 1177 741 q 1170 742 1150 742 l 1150 742 l 1114 741 l 1054 741 l 1009 746 l 1001 754 q 977 794 969 812 l 969 812 l 939 869 q 935 882 928 898 q 921 913 919 918 l 919 918 l 908 939 q 882 987 871 1016 l 871 1016 q 864 1032 856 1064 l 856 1064 l 855 1071 l 855 1077 q 855 1085 859 1091 q 862 1097 870 1097 l 870 1097 q 874 1097 883 1098 q 892 1098 899 1097 l 899 1097 q 909 1096 926 1096 l 926 1096 l 956 1096 l 960 1093 l 965 1097 l 985 1096 l 1004 1096 q 1009 1096 1018 1089 q 1027 1081 1036 1069 l 1036 1069 q 1060 1039 1079 1011 l 1079 1011 q 1113 959 1132 924 l 1132 924 q 1142 940 1166 972 l 1166 972 l 1190 1006 l 1209 1031 q 1232 1070 1245 1086 l 1245 1086 q 1254 1096 1259 1096 l 1259 1096 l 1280 1096 l 1317 1097 l 1337 1096 l 1347 1096 l 1370 1097 l 1394 1097 q 1401 1097 1405 1091 q 1409 1085 1409 1077 l 1409 1077 l 1407 1071 l 1407 1064 q 1390 994 1344 906 l 1344 906 q 1327 870 1313 846 l 1313 846 l 1304 828 q 1284 795 1262 754 l 1262 754 l 1239 741 l 1209 738"},"Ð":{"x_min":43,"x_max":848,"ha":895,"o":"m 411 -1 l 291 0 l 151 1 q 136 1 129 23 l 129 23 q 125 34 125 63 l 125 63 q 125 85 124 100 l 124 100 q 124 133 123 151 l 123 151 l 123 211 q 123 232 122 243 l 122 243 l 121 278 q 81 278 68 280 l 68 280 q 44 285 44 294 l 44 294 l 44 353 q 43 369 43 408 l 43 408 q 43 412 53 418 l 53 418 q 61 423 71 423 l 71 423 l 95 423 l 119 423 l 119 645 q 119 655 128 663 q 136 671 146 671 l 146 671 l 248 670 q 274 669 320 669 l 320 669 q 395 669 438 670 l 438 670 l 473 671 q 535 673 573 673 l 573 673 q 635 673 693 648 l 693 648 q 764 618 801 556 l 801 556 q 848 481 848 363 l 848 363 q 848 261 826 193 q 803 124 753 81 l 753 81 q 701 38 618 19 q 535 -1 411 -1 l 411 -1 m 419 133 q 424 132 433 132 l 433 132 q 444 132 460 134 l 460 134 q 464 135 468 137 q 472 138 474 139 l 474 139 q 497 162 510 211 l 510 211 q 524 272 524 394 l 524 394 l 524 413 q 524 454 518 491 l 518 491 q 510 540 489 564 l 489 564 q 480 578 464 578 l 464 578 q 453 578 444 576 q 434 574 431 573 l 431 573 q 429 571 420 568 l 420 568 l 420 503 l 420 423 q 439 423 463 419 l 463 419 q 472 418 478 415 q 484 412 484 408 l 484 408 l 483 354 q 483 341 481 334 l 481 334 l 481 311 q 481 295 473 289 l 473 289 q 465 284 454 283 l 454 283 q 442 280 419 280 l 419 280 l 419 223 l 419 175 l 419 133"},"Ď":{"x_min":58,"x_max":813,"ha":858,"o":"m 375 -1 l 243 0 l 90 1 q 73 1 68 23 l 68 23 q 63 37 63 63 l 63 63 q 63 150 61 218 l 61 218 q 58 316 58 425 l 58 425 l 58 645 q 58 654 67 663 q 75 671 84 671 l 84 671 l 200 670 q 233 669 283 669 l 283 669 q 358 669 400 670 l 400 670 l 437 671 q 499 673 535 673 l 535 673 q 597 673 655 649 l 655 649 q 723 623 764 560 l 764 560 q 813 484 813 373 l 813 373 q 813 268 790 198 q 766 128 715 83 l 715 83 q 664 39 582 19 q 499 -1 375 -1 l 375 -1 m 383 133 q 387 132 394 132 l 394 132 q 402 132 416 134 l 416 134 q 421 135 424 137 q 426 138 428 139 l 428 139 q 440 153 451 198 l 451 198 q 458 226 468 294 l 468 294 q 473 352 473 394 l 473 394 l 473 413 q 473 439 468 491 l 468 491 q 461 543 448 564 l 448 564 q 437 578 428 578 l 428 578 q 419 578 412 576 q 405 574 403 573 l 403 573 q 401 572 394 568 l 394 568 l 393 448 q 393 432 391 400 l 391 400 l 390 376 q 388 326 388 304 l 388 304 l 383 133 m 507 738 q 497 738 488 740 q 479 741 475 741 l 475 741 q 468 742 448 742 l 448 742 l 412 741 l 352 741 l 307 746 l 299 754 q 275 794 267 812 l 267 812 l 237 869 q 233 882 226 898 q 219 913 217 918 l 217 918 l 206 939 q 180 987 169 1016 l 169 1016 q 162 1032 154 1064 l 154 1064 l 153 1071 l 153 1077 q 153 1085 157 1091 q 160 1097 168 1097 l 168 1097 q 172 1097 181 1098 q 190 1098 197 1097 l 197 1097 q 207 1096 224 1096 l 224 1096 l 254 1096 l 258 1093 l 263 1097 l 283 1096 l 302 1096 q 307 1096 316 1089 q 325 1081 334 1069 l 334 1069 q 358 1039 377 1011 l 377 1011 q 411 959 430 924 l 430 924 q 440 940 464 972 l 464 972 l 488 1006 l 507 1031 q 530 1070 543 1086 l 543 1086 q 552 1096 557 1096 l 557 1096 l 578 1096 l 615 1097 l 635 1096 l 645 1096 l 668 1097 l 692 1097 q 699 1097 703 1091 q 707 1085 707 1077 l 707 1077 l 705 1071 l 705 1064 q 688 994 642 906 l 642 906 q 625 870 611 846 l 611 846 l 602 828 q 582 795 560 754 l 560 754 l 537 741 l 507 738"},"Đ":{"x_min":43,"x_max":848,"ha":895,"o":"m 411 -1 l 291 0 l 151 1 q 136 1 129 23 l 129 23 q 125 34 125 63 l 125 63 q 125 85 124 100 l 124 100 q 124 133 123 151 l 123 151 l 123 211 q 123 232 122 243 l 122 243 l 121 278 q 81 278 68 280 l 68 280 q 44 285 44 294 l 44 294 l 44 353 q 43 369 43 408 l 43 408 q 43 412 53 418 l 53 418 q 61 423 71 423 l 71 423 l 95 423 l 119 423 l 119 645 q 119 655 128 663 q 136 671 146 671 l 146 671 l 248 670 q 274 669 320 669 l 320 669 q 395 669 438 670 l 438 670 l 473 671 q 535 673 573 673 l 573 673 q 635 673 693 648 l 693 648 q 764 618 801 556 l 801 556 q 848 481 848 363 l 848 363 q 848 261 826 193 q 803 124 753 81 l 753 81 q 701 38 618 19 q 535 -1 411 -1 l 411 -1 m 419 133 q 424 132 433 132 l 433 132 q 444 132 460 134 l 460 134 q 464 135 468 137 q 472 138 474 139 l 474 139 q 497 162 510 211 l 510 211 q 524 272 524 394 l 524 394 l 524 413 q 524 454 518 491 l 518 491 q 510 540 489 564 l 489 564 q 480 578 464 578 l 464 578 q 453 578 444 576 q 434 574 431 573 l 431 573 q 429 571 420 568 l 420 568 l 420 503 l 420 423 q 439 423 463 419 l 463 419 q 472 418 478 415 q 484 412 484 408 l 484 408 l 483 354 q 483 341 481 334 l 481 334 l 481 311 q 481 295 473 289 l 473 289 q 465 284 454 283 l 454 283 q 442 280 419 280 l 419 280 l 419 223 l 419 175 l 419 133"},"ǅ":{"x_min":58,"x_max":1377,"ha":1434,"o":"m 375 -1 l 243 0 l 90 1 q 73 1 68 23 l 68 23 q 63 37 63 63 l 63 63 q 63 150 61 218 l 61 218 q 58 316 58 425 l 58 425 l 58 645 q 58 654 67 663 q 75 671 84 671 l 84 671 l 200 670 q 233 669 283 669 l 283 669 q 358 669 400 670 l 400 670 l 437 671 q 499 673 535 673 l 535 673 q 597 673 655 649 l 655 649 q 723 623 764 560 l 764 560 q 813 484 813 373 l 813 373 q 813 268 790 198 q 766 128 715 83 l 715 83 q 664 39 582 19 q 499 -1 375 -1 l 375 -1 m 383 133 q 387 132 394 132 l 394 132 q 402 132 416 134 l 416 134 q 421 135 424 137 q 426 138 428 139 l 428 139 q 440 153 451 198 l 451 198 q 458 226 468 294 l 468 294 q 473 352 473 394 l 473 394 l 473 413 q 473 439 468 491 l 468 491 q 461 543 448 564 l 448 564 q 437 578 428 578 l 428 578 q 419 578 412 576 q 405 574 403 573 l 403 573 q 401 572 394 568 l 394 568 l 393 448 q 393 432 391 400 l 391 400 l 390 376 q 388 326 388 304 l 388 304 l 383 133 m 1136 0 q 1047 0 1007 1 l 1007 1 q 969 1 949 2 l 949 2 l 879 3 q 871 3 864 10 q 857 17 857 24 l 857 24 l 857 183 l 898 225 q 951 278 951 278 l 951 278 l 1014 349 q 1019 355 1025 362 q 1031 369 1036 376 l 1036 376 q 1043 387 1043 393 l 1043 393 q 1043 398 1039 398 l 1039 398 l 876 399 q 864 399 857 410 q 850 420 846 440 l 846 440 q 842 463 842 505 l 842 505 l 842 518 q 843 524 843 539 l 843 539 q 844 545 844 558 l 844 558 q 846 563 846 566 l 846 566 l 849 571 q 856 578 866 578 l 866 578 q 873 578 877 576 l 877 576 l 887 575 q 918 575 951 578 l 951 578 q 991 580 1013 580 l 1013 580 q 1076 580 1136 583 l 1136 583 l 1261 583 q 1314 583 1336 578 l 1336 578 l 1351 571 q 1353 565 1353 564 l 1353 564 l 1353 425 q 1353 416 1347 398 l 1347 398 q 1338 376 1322 353 l 1322 353 q 1271 279 1171 176 l 1171 176 l 1327 176 q 1335 176 1342 171 q 1349 166 1349 159 l 1349 159 l 1349 19 q 1349 11 1342 8 l 1342 8 q 1338 5 1324 3 l 1324 3 q 1312 0 1288 0 l 1288 0 l 1136 0 m 1177 640 q 1167 640 1158 642 q 1149 643 1145 643 l 1145 643 q 1138 644 1118 644 l 1118 644 l 1082 643 l 1022 643 l 977 648 l 969 656 q 945 696 937 714 l 937 714 l 907 771 q 903 784 896 800 q 889 815 887 820 l 887 820 l 876 841 q 850 889 839 918 l 839 918 q 832 934 824 966 l 824 966 l 823 973 l 823 979 q 823 987 827 993 q 830 999 838 999 l 838 999 q 842 999 851 1000 q 860 1000 867 999 l 867 999 q 877 998 894 998 l 894 998 l 924 998 l 928 995 l 933 999 l 953 998 l 972 998 q 977 998 986 991 q 995 983 1004 971 l 1004 971 q 1028 941 1047 913 l 1047 913 q 1081 861 1100 826 l 1100 826 q 1110 842 1134 874 l 1134 874 l 1158 908 l 1177 933 q 1200 972 1213 988 l 1213 988 q 1222 998 1227 998 l 1227 998 l 1248 998 l 1285 999 l 1305 998 l 1315 998 l 1338 999 l 1362 999 q 1369 999 1373 993 q 1377 987 1377 979 l 1377 979 l 1375 973 l 1375 966 q 1358 896 1312 808 l 1312 808 q 1295 772 1281 748 l 1281 748 l 1272 730 q 1252 697 1230 656 l 1230 656 l 1207 643 l 1177 640"},"E":{"x_min":58,"x_max":645,"ha":693,"o":"m 140 0 q 135 0 125 2 q 115 3 101 4 l 101 4 l 80 9 q 75 10 73 12 q 70 13 71 14 l 71 14 q 71 40 68 83 l 68 83 q 68 98 67 110 q 66 121 65 129 l 65 129 l 63 172 q 63 189 61 215 l 61 215 l 60 246 q 60 284 59 305 l 59 305 q 58 326 58 393 l 58 393 q 58 456 59 523 q 60 590 65 650 l 65 650 q 65 661 89 668 l 89 668 q 104 670 139 670 l 139 670 q 220 670 258 673 l 258 673 q 376 675 436 675 l 436 675 l 480 675 q 562 673 606 669 l 606 669 q 622 669 629 631 l 629 631 q 632 624 636 595 l 636 595 q 639 580 644 558 l 644 558 q 645 552 645 547 q 644 541 644 540 l 644 540 q 643 530 633 530 l 633 530 q 629 531 621 531 l 621 531 q 579 531 518 524 l 518 524 l 465 520 q 432 516 413 515 l 413 515 q 410 515 405 503 l 405 503 q 401 490 396 443 l 396 443 l 394 418 q 394 405 397 402 q 400 398 410 398 l 410 398 l 499 398 q 538 398 588 393 l 588 393 l 600 393 q 613 390 616 383 l 616 383 q 620 377 621 370 l 621 370 l 625 281 l 625 278 q 625 261 589 258 l 589 258 q 568 253 509 253 l 509 253 q 458 253 443 254 l 443 254 q 414 254 408 253 l 408 253 q 397 250 394 242 q 391 233 391 213 l 391 213 q 391 200 389 176 l 389 176 q 388 164 388 138 l 388 138 q 453 138 484 140 l 484 140 q 518 143 580 143 l 580 143 q 584 143 588 136 l 588 136 q 593 126 604 91 l 604 91 q 610 71 616 41 l 616 41 q 618 34 618 26 l 618 26 q 618 5 598 5 l 598 5 q 572 5 528 3 l 528 3 q 505 1 456 1 l 456 1 q 351 1 298 0 l 298 0 l 140 0"},"É":{"x_min":58,"x_max":644,"ha":693,"o":"m 140 0 q 135 0 125 2 q 115 3 101 4 l 101 4 l 80 9 q 75 10 73 12 q 70 13 71 14 l 71 14 q 71 40 68 83 l 68 83 q 68 98 67 110 q 66 121 65 129 l 65 129 l 63 172 q 63 189 61 215 l 61 215 l 60 246 q 60 284 59 305 l 59 305 q 58 326 58 393 l 58 393 q 58 456 59 523 q 60 590 65 650 l 65 650 q 65 661 89 668 l 89 668 q 104 670 139 670 l 139 670 q 220 670 258 673 l 258 673 q 376 675 436 675 l 436 675 l 480 675 q 562 673 606 669 l 606 669 q 622 669 629 631 l 629 631 q 632 624 636 595 l 636 595 q 639 580 644 558 l 644 558 q 645 552 645 547 q 644 541 644 540 l 644 540 q 643 530 633 530 l 633 530 q 629 531 621 531 l 621 531 q 579 531 518 524 l 518 524 l 465 520 q 432 516 413 515 l 413 515 q 410 515 405 503 l 405 503 q 401 490 396 443 l 396 443 l 394 418 q 394 405 397 402 q 400 398 410 398 l 410 398 l 499 398 q 538 398 588 393 l 588 393 l 600 393 q 613 390 616 383 l 616 383 q 620 377 621 370 l 621 370 l 625 281 l 625 278 q 625 261 589 258 l 589 258 q 568 253 509 253 l 509 253 q 458 253 443 254 l 443 254 q 414 254 408 253 l 408 253 q 397 250 394 242 q 391 233 391 213 l 391 213 q 391 200 389 176 l 389 176 q 388 164 388 138 l 388 138 q 453 138 484 140 l 484 140 q 518 143 580 143 l 580 143 q 584 143 588 136 l 588 136 q 593 126 604 91 l 604 91 q 610 71 616 41 l 616 41 q 618 34 618 26 l 618 26 q 618 5 598 5 l 598 5 q 572 5 528 3 l 528 3 q 505 1 456 1 l 456 1 q 351 1 298 0 l 298 0 l 140 0 m 283 736 q 272 736 268 744 q 264 752 264 766 l 264 766 q 264 816 273 871 l 273 871 q 279 903 281 923 l 281 923 q 282 932 284 946 q 286 959 287 976 l 287 976 q 301 1051 323 1131 l 323 1131 l 331 1137 l 374 1144 q 419 1144 438 1146 l 438 1146 l 493 1147 l 499 1144 q 502 1146 511 1146 l 511 1146 l 521 1146 q 521 1146 523 1145 q 524 1144 526 1144 l 526 1144 l 532 1143 l 576 1141 l 582 1138 q 586 1138 586 1139 l 586 1139 l 589 1139 q 606 1135 616 1131 l 616 1131 q 623 1129 623 1122 l 623 1122 q 623 1120 621 1112 l 621 1112 l 610 1093 l 596 1069 l 581 1041 q 571 1023 566 1016 l 566 1016 q 561 1009 558 1003 q 555 997 551 992 l 551 992 q 535 967 519 931 l 519 931 q 507 901 487 868 l 487 868 l 469 831 q 447 780 431 751 l 431 751 q 420 736 414 736 l 414 736 l 396 736 l 377 736 l 371 739 l 366 736 l 337 736 q 332 736 326 737 q 319 737 311 736 l 311 736 l 283 736"},"Ĕ":{"x_min":58,"x_max":644,"ha":693,"o":"m 140 0 q 135 0 125 2 q 115 3 101 4 l 101 4 l 80 9 q 75 10 73 12 q 70 13 71 14 l 71 14 q 71 40 68 83 l 68 83 q 68 98 67 110 q 66 121 65 129 l 65 129 l 63 172 q 63 189 61 215 l 61 215 l 60 246 q 60 284 59 305 l 59 305 q 58 326 58 393 l 58 393 q 58 456 59 523 q 60 590 65 650 l 65 650 q 65 661 89 668 l 89 668 q 104 670 139 670 l 139 670 q 220 670 258 673 l 258 673 q 376 675 436 675 l 436 675 l 480 675 q 562 673 606 669 l 606 669 q 622 669 629 631 l 629 631 q 632 624 636 595 l 636 595 q 639 580 644 558 l 644 558 q 645 552 645 547 q 644 541 644 540 l 644 540 q 643 530 633 530 l 633 530 q 629 531 621 531 l 621 531 q 579 531 518 524 l 518 524 l 465 520 q 432 516 413 515 l 413 515 q 410 515 405 503 l 405 503 q 401 490 396 443 l 396 443 l 394 418 q 394 405 397 402 q 400 398 410 398 l 410 398 l 499 398 q 538 398 588 393 l 588 393 l 600 393 q 613 390 616 383 l 616 383 q 620 377 621 370 l 621 370 l 625 281 l 625 278 q 625 261 589 258 l 589 258 q 568 253 509 253 l 509 253 q 458 253 443 254 l 443 254 q 414 254 408 253 l 408 253 q 397 250 394 242 q 391 233 391 213 l 391 213 q 391 200 389 176 l 389 176 q 388 164 388 138 l 388 138 q 453 138 484 140 l 484 140 q 518 143 580 143 l 580 143 q 584 143 588 136 l 588 136 q 593 126 604 91 l 604 91 q 610 71 616 41 l 616 41 q 618 34 618 26 l 618 26 q 618 5 598 5 l 598 5 q 572 5 528 3 l 528 3 q 505 1 456 1 l 456 1 q 351 1 298 0 l 298 0 l 140 0 m 336 729 q 292 729 250 744 q 207 758 173 783 l 173 783 q 139 808 120 843 q 101 878 101 918 l 101 918 q 101 961 121 1002 l 121 1002 l 277 1001 q 268 965 268 932 l 268 932 l 269 911 q 269 911 270 910 q 271 908 272 906 l 272 906 q 278 891 312 878 l 312 878 q 329 872 358 872 l 358 872 q 387 872 411 896 l 411 896 q 432 917 432 951 l 432 951 q 432 982 424 1011 l 424 1011 l 586 1006 q 596 977 596 934 l 596 934 q 596 900 580 867 q 563 834 531 796 l 531 796 q 497 758 439 741 l 439 741 q 399 729 336 729 l 336 729"},"Ě":{"x_min":58,"x_max":644,"ha":693,"o":"m 140 0 q 135 0 125 2 q 115 3 101 4 l 101 4 l 80 9 q 75 10 73 12 q 70 13 71 14 l 71 14 q 71 40 68 83 l 68 83 q 68 98 67 110 q 66 121 65 129 l 65 129 l 63 172 q 63 189 61 215 l 61 215 l 60 246 q 60 284 59 305 l 59 305 q 58 326 58 393 l 58 393 q 58 456 59 523 q 60 590 65 650 l 65 650 q 65 661 89 668 l 89 668 q 104 670 139 670 l 139 670 q 220 670 258 673 l 258 673 q 376 675 436 675 l 436 675 l 480 675 q 562 673 606 669 l 606 669 q 622 669 629 631 l 629 631 q 632 624 636 595 l 636 595 q 639 580 644 558 l 644 558 q 645 552 645 547 q 644 541 644 540 l 644 540 q 643 530 633 530 l 633 530 q 629 531 621 531 l 621 531 q 579 531 518 524 l 518 524 l 465 520 q 432 516 413 515 l 413 515 q 410 515 405 503 l 405 503 q 401 490 396 443 l 396 443 l 394 418 q 394 405 397 402 q 400 398 410 398 l 410 398 l 499 398 q 538 398 588 393 l 588 393 l 600 393 q 613 390 616 383 l 616 383 q 620 377 621 370 l 621 370 l 625 281 l 625 278 q 625 261 589 258 l 589 258 q 568 253 509 253 l 509 253 q 458 253 443 254 l 443 254 q 414 254 408 253 l 408 253 q 397 250 394 242 q 391 233 391 213 l 391 213 q 391 200 389 176 l 389 176 q 388 164 388 138 l 388 138 q 453 138 484 140 l 484 140 q 518 143 580 143 l 580 143 q 584 143 588 136 l 588 136 q 593 126 604 91 l 604 91 q 610 71 616 41 l 616 41 q 618 34 618 26 l 618 26 q 618 5 598 5 l 598 5 q 572 5 528 3 l 528 3 q 505 1 456 1 l 456 1 q 351 1 298 0 l 298 0 l 140 0 m 426 738 q 416 738 407 740 q 398 741 394 741 l 394 741 q 387 742 367 742 l 367 742 l 331 741 l 271 741 l 226 746 l 218 754 q 194 794 186 812 l 186 812 l 156 869 q 152 882 145 898 q 138 913 136 918 l 136 918 l 125 939 q 99 987 88 1016 l 88 1016 q 81 1032 73 1064 l 73 1064 l 72 1071 l 72 1077 q 72 1085 76 1091 q 79 1097 87 1097 l 87 1097 q 91 1097 100 1098 q 109 1098 116 1097 l 116 1097 q 126 1096 143 1096 l 143 1096 l 173 1096 l 177 1093 l 182 1097 l 202 1096 l 221 1096 q 226 1096 235 1089 q 244 1081 253 1069 l 253 1069 q 277 1039 296 1011 l 296 1011 q 330 959 349 924 l 349 924 q 359 940 383 972 l 383 972 l 407 1006 l 426 1031 q 449 1070 462 1086 l 462 1086 q 471 1096 476 1096 l 476 1096 l 497 1096 l 534 1097 l 554 1096 l 564 1096 l 587 1097 l 611 1097 q 618 1097 622 1091 q 626 1085 626 1077 l 626 1077 l 624 1071 l 624 1064 q 607 994 561 906 l 561 906 q 544 870 530 846 l 530 846 l 521 828 q 501 795 479 754 l 479 754 l 456 741 l 426 738"},"Ê":{"x_min":58,"x_max":644,"ha":693,"o":"m 140 0 q 135 0 125 2 q 115 3 101 4 l 101 4 l 80 9 q 75 10 73 12 q 70 13 71 14 l 71 14 q 71 40 68 83 l 68 83 q 68 98 67 110 q 66 121 65 129 l 65 129 l 63 172 q 63 189 61 215 l 61 215 l 60 246 q 60 284 59 305 l 59 305 q 58 326 58 393 l 58 393 q 58 456 59 523 q 60 590 65 650 l 65 650 q 65 661 89 668 l 89 668 q 104 670 139 670 l 139 670 q 220 670 258 673 l 258 673 q 376 675 436 675 l 436 675 l 480 675 q 562 673 606 669 l 606 669 q 622 669 629 631 l 629 631 q 632 624 636 595 l 636 595 q 639 580 644 558 l 644 558 q 645 552 645 547 q 644 541 644 540 l 644 540 q 643 530 633 530 l 633 530 q 629 531 621 531 l 621 531 q 579 531 518 524 l 518 524 l 465 520 q 432 516 413 515 l 413 515 q 410 515 405 503 l 405 503 q 401 490 396 443 l 396 443 l 394 418 q 394 405 397 402 q 400 398 410 398 l 410 398 l 499 398 q 538 398 588 393 l 588 393 l 600 393 q 613 390 616 383 l 616 383 q 620 377 621 370 l 621 370 l 625 281 l 625 278 q 625 261 589 258 l 589 258 q 568 253 509 253 l 509 253 q 458 253 443 254 l 443 254 q 414 254 408 253 l 408 253 q 397 250 394 242 q 391 233 391 213 l 391 213 q 391 200 389 176 l 389 176 q 388 164 388 138 l 388 138 q 453 138 484 140 l 484 140 q 518 143 580 143 l 580 143 q 584 143 588 136 l 588 136 q 593 126 604 91 l 604 91 q 610 71 616 41 l 616 41 q 618 34 618 26 l 618 26 q 618 5 598 5 l 598 5 q 572 5 528 3 l 528 3 q 505 1 456 1 l 456 1 q 351 1 298 0 l 298 0 l 140 0 m 86 736 q 79 736 76 742 q 72 748 72 756 l 72 756 l 72 762 q 72 766 73 768 l 73 768 q 80 805 111 866 l 111 866 q 118 882 134 914 l 134 914 l 156 963 l 186 1021 q 194 1038 218 1078 l 218 1078 l 224 1086 l 271 1097 l 329 1097 l 367 1096 l 382 1096 l 393 1096 q 397 1094 406 1094 l 406 1094 l 426 1094 l 456 1091 l 478 1078 l 521 1004 q 576 903 597 849 l 597 849 q 615 804 623 768 l 623 768 l 624 762 l 624 756 q 624 736 609 736 l 609 736 l 587 736 l 563 736 l 534 736 l 497 736 l 476 736 q 471 736 462 747 l 462 747 q 441 774 424 802 l 424 802 q 414 818 407 827 l 407 827 q 380 861 348 908 l 348 908 q 309 842 296 822 l 296 822 l 283 804 q 263 774 253 763 l 253 763 q 229 736 221 736 l 221 736 l 202 736 l 181 736 l 177 739 l 172 736 l 142 736 q 138 736 132 737 q 126 737 116 736 l 116 736 l 86 736"},"Ế":{"x_min":58,"x_max":740,"ha":693,"o":"m 140 0 q 135 0 125 2 q 115 3 101 4 l 101 4 l 80 9 q 75 10 73 12 q 70 13 71 14 l 71 14 q 71 40 68 83 l 68 83 q 68 98 67 110 q 66 121 65 129 l 65 129 l 63 172 q 63 189 61 215 l 61 215 l 60 246 q 60 284 59 305 l 59 305 q 58 326 58 393 l 58 393 q 58 456 59 523 q 60 590 65 650 l 65 650 q 65 661 89 668 l 89 668 q 104 670 139 670 l 139 670 q 220 670 258 673 l 258 673 q 376 675 436 675 l 436 675 l 480 675 q 562 673 606 669 l 606 669 q 622 669 629 631 l 629 631 q 632 624 636 595 l 636 595 q 639 580 644 558 l 644 558 q 645 552 645 547 q 644 541 644 540 l 644 540 q 643 530 633 530 l 633 530 q 629 531 621 531 l 621 531 q 579 531 518 524 l 518 524 l 465 520 q 432 516 413 515 l 413 515 q 410 515 405 503 l 405 503 q 401 490 396 443 l 396 443 l 394 418 q 394 405 397 402 q 400 398 410 398 l 410 398 l 499 398 q 538 398 588 393 l 588 393 l 600 393 q 613 390 616 383 l 616 383 q 620 377 621 370 l 621 370 l 625 281 l 625 278 q 625 261 589 258 l 589 258 q 568 253 509 253 l 509 253 q 458 253 443 254 l 443 254 q 414 254 408 253 l 408 253 q 397 250 394 242 q 391 233 391 213 l 391 213 q 391 200 389 176 l 389 176 q 388 164 388 138 l 388 138 q 453 138 484 140 l 484 140 q 518 143 580 143 l 580 143 q 584 143 588 136 l 588 136 q 593 126 604 91 l 604 91 q 610 71 616 41 l 616 41 q 618 34 618 26 l 618 26 q 618 5 598 5 l 598 5 q 572 5 528 3 l 528 3 q 505 1 456 1 l 456 1 q 351 1 298 0 l 298 0 l 140 0 m 143 729 q 138 729 136 734 q 133 738 133 744 l 133 744 l 133 749 q 133 753 134 754 l 134 754 q 143 768 153 779 l 153 779 q 177 811 184 827 l 184 827 l 207 856 q 211 863 226 878 l 226 878 q 239 890 246 899 l 246 899 l 249 906 l 283 926 l 354 926 l 366 926 l 374 926 q 377 924 383 924 l 383 924 l 398 924 l 422 922 l 438 912 l 506 809 l 523 786 q 535 767 547 754 l 547 754 l 548 749 l 548 744 q 548 729 537 729 l 537 729 l 519 729 l 501 729 l 481 729 l 452 729 l 437 729 q 431 729 426 738 l 426 738 l 402 759 q 368 787 341 814 l 341 814 q 324 800 309 785 l 309 785 q 273 753 269 749 l 269 749 q 251 729 244 729 l 244 729 l 231 729 l 214 729 l 211 732 l 208 729 l 184 729 l 166 729 l 143 729 m 589 829 l 581 832 l 577 829 l 554 829 q 542 829 539 837 q 535 845 535 859 l 535 859 q 535 894 536 910 l 536 910 q 537 916 537 929 l 537 929 q 537 939 535 971 l 535 971 q 532 1034 532 1046 l 532 1046 l 540 1052 l 565 1060 q 610 1060 629 1061 l 629 1061 l 692 1056 l 700 1054 q 702 1054 702 1055 l 702 1055 l 707 1055 q 713 1053 722 1051 q 731 1049 734 1046 l 734 1046 q 740 1043 740 1037 l 740 1037 q 740 1033 737 1027 l 737 1027 q 736 1021 727 1009 l 727 1009 q 724 1003 717 986 q 709 968 699 951 l 699 951 q 688 935 681 917 l 681 917 q 665 875 642 844 l 642 844 q 633 829 626 829 l 626 829 l 606 829 l 589 829"},"Ệ":{"x_min":58,"x_max":644,"ha":693,"o":"m 140 0 q 135 0 125 2 q 115 3 101 4 l 101 4 l 80 9 q 75 10 73 12 q 70 13 71 14 l 71 14 q 71 40 68 83 l 68 83 q 68 98 67 110 q 66 121 65 129 l 65 129 l 63 172 q 63 189 61 215 l 61 215 l 60 246 q 60 284 59 305 l 59 305 q 58 326 58 393 l 58 393 q 58 456 59 523 q 60 590 65 650 l 65 650 q 65 661 89 668 l 89 668 q 104 670 139 670 l 139 670 q 220 670 258 673 l 258 673 q 376 675 436 675 l 436 675 l 480 675 q 562 673 606 669 l 606 669 q 622 669 629 631 l 629 631 q 632 624 636 595 l 636 595 q 639 580 644 558 l 644 558 q 645 552 645 547 q 644 541 644 540 l 644 540 q 643 530 633 530 l 633 530 q 629 531 621 531 l 621 531 q 579 531 518 524 l 518 524 l 465 520 q 432 516 413 515 l 413 515 q 410 515 405 503 l 405 503 q 401 490 396 443 l 396 443 l 394 418 q 394 405 397 402 q 400 398 410 398 l 410 398 l 499 398 q 538 398 588 393 l 588 393 l 600 393 q 613 390 616 383 l 616 383 q 620 377 621 370 l 621 370 l 625 281 l 625 278 q 625 261 589 258 l 589 258 q 568 253 509 253 l 509 253 q 458 253 443 254 l 443 254 q 414 254 408 253 l 408 253 q 397 250 394 242 q 391 233 391 213 l 391 213 q 391 200 389 176 l 389 176 q 388 164 388 138 l 388 138 q 453 138 484 140 l 484 140 q 518 143 580 143 l 580 143 q 584 143 588 136 l 588 136 q 593 126 604 91 l 604 91 q 610 71 616 41 l 616 41 q 618 34 618 26 l 618 26 q 618 5 598 5 l 598 5 q 572 5 528 3 l 528 3 q 505 1 456 1 l 456 1 q 351 1 298 0 l 298 0 l 140 0 m 143 729 q 138 729 136 734 q 133 738 133 744 l 133 744 l 133 749 q 133 753 134 754 l 134 754 q 143 768 153 779 l 153 779 q 177 811 184 827 l 184 827 l 207 856 q 211 863 226 878 l 226 878 q 239 890 246 899 l 246 899 l 249 906 l 283 926 l 354 926 l 366 926 l 374 926 q 377 924 383 924 l 383 924 l 398 924 l 422 922 l 438 912 l 506 809 l 523 786 q 535 767 547 754 l 547 754 l 548 749 l 548 744 q 548 729 537 729 l 537 729 l 519 729 l 501 729 l 481 729 l 452 729 l 437 729 q 431 729 426 738 l 426 738 l 402 759 q 368 787 341 814 l 341 814 q 324 800 309 785 l 309 785 q 273 753 269 749 l 269 749 q 251 729 244 729 l 244 729 l 231 729 l 214 729 l 211 732 l 208 729 l 184 729 l 166 729 l 143 729 m 346 -274 l 333 -274 q 329 -273 319 -273 l 319 -273 l 254 -266 l 249 -261 q 248 -254 248 -225 l 248 -225 q 248 -195 251 -163 l 251 -163 l 253 -134 l 253 -113 q 254 -101 274 -101 l 274 -101 l 303 -101 q 312 -103 331 -103 l 331 -103 l 349 -103 q 357 -101 373 -101 l 373 -101 l 381 -101 l 389 -101 l 398 -101 q 401 -103 404 -103 l 404 -103 q 411 -103 414 -101 l 414 -101 l 424 -101 q 444 -101 444 -110 l 444 -110 l 444 -113 q 443 -118 443 -124 l 443 -124 l 443 -131 l 443 -143 l 443 -169 l 443 -246 q 443 -251 441 -255 l 441 -255 q 438 -265 432 -266 l 432 -266 q 430 -269 422 -269 l 422 -269 l 419 -268 l 417 -268 l 417 -268 l 412 -269 l 393 -271 l 388 -273 l 382 -274 l 376 -273 q 374 -273 373 -272 q 372 -271 371 -271 l 371 -271 q 368 -271 368 -273 l 368 -273 l 363 -274 l 346 -274"},"Ề":{"x_min":58,"x_max":654,"ha":693,"o":"m 140 0 q 135 0 125 2 q 115 3 101 4 l 101 4 l 80 9 q 75 10 73 12 q 70 13 71 14 l 71 14 q 71 40 68 83 l 68 83 q 68 98 67 110 q 66 121 65 129 l 65 129 l 63 172 q 63 189 61 215 l 61 215 l 60 246 q 60 284 59 305 l 59 305 q 58 326 58 393 l 58 393 q 58 456 59 523 q 60 590 65 650 l 65 650 q 65 661 89 668 l 89 668 q 104 670 139 670 l 139 670 q 220 670 258 673 l 258 673 q 376 675 436 675 l 436 675 l 480 675 q 562 673 606 669 l 606 669 q 622 669 629 631 l 629 631 q 632 624 636 595 l 636 595 q 639 580 644 558 l 644 558 q 645 552 645 547 q 644 541 644 540 l 644 540 q 643 530 633 530 l 633 530 q 629 531 621 531 l 621 531 q 579 531 518 524 l 518 524 l 465 520 q 432 516 413 515 l 413 515 q 410 515 405 503 l 405 503 q 401 490 396 443 l 396 443 l 394 418 q 394 405 397 402 q 400 398 410 398 l 410 398 l 499 398 q 538 398 588 393 l 588 393 l 600 393 q 613 390 616 383 l 616 383 q 620 377 621 370 l 621 370 l 625 281 l 625 278 q 625 261 589 258 l 589 258 q 568 253 509 253 l 509 253 q 458 253 443 254 l 443 254 q 414 254 408 253 l 408 253 q 397 250 394 242 q 391 233 391 213 l 391 213 q 391 200 389 176 l 389 176 q 388 164 388 138 l 388 138 q 453 138 484 140 l 484 140 q 518 143 580 143 l 580 143 q 584 143 588 136 l 588 136 q 593 126 604 91 l 604 91 q 610 71 616 41 l 616 41 q 618 34 618 26 l 618 26 q 618 5 598 5 l 598 5 q 572 5 528 3 l 528 3 q 505 1 456 1 l 456 1 q 351 1 298 0 l 298 0 l 140 0 m 143 729 q 138 729 136 734 q 133 738 133 744 l 133 744 l 133 749 q 133 753 134 754 l 134 754 q 143 768 153 779 l 153 779 q 177 811 184 827 l 184 827 l 207 856 q 211 863 226 878 l 226 878 q 239 890 246 899 l 246 899 l 249 906 l 283 926 l 354 926 l 366 926 l 374 926 q 377 924 383 924 l 383 924 l 398 924 l 422 922 l 438 912 l 506 809 l 523 786 q 535 767 547 754 l 547 754 l 548 749 l 548 744 q 548 729 537 729 l 537 729 l 519 729 l 501 729 l 481 729 l 452 729 l 437 729 q 431 729 426 738 l 426 738 l 402 759 q 368 787 341 814 l 341 814 q 324 800 309 785 l 309 785 q 273 753 269 749 l 269 749 q 251 729 244 729 l 244 729 l 231 729 l 214 729 l 211 732 l 208 729 l 184 729 l 166 729 l 143 729 m 598 865 l 581 865 l 561 865 q 554 865 544 880 l 544 880 q 525 908 506 953 l 506 953 q 502 960 498 969 q 493 978 488 987 l 488 987 q 477 1005 468 1027 l 468 1027 l 459 1045 q 453 1054 449 1063 l 449 1063 q 446 1069 446 1073 l 446 1073 q 446 1079 453 1082 l 453 1082 q 456 1085 465 1087 q 473 1089 479 1091 l 479 1091 l 484 1091 q 484 1090 487 1090 l 487 1090 l 494 1092 l 558 1097 q 577 1096 622 1096 l 622 1096 l 647 1088 l 654 1082 q 654 1051 652 1009 l 652 1009 q 650 979 650 967 l 650 967 q 650 953 651 946 l 651 946 q 652 930 652 895 l 652 895 q 652 881 649 873 q 645 865 633 865 l 633 865 l 609 865 l 606 868 l 598 865"},"Ể":{"x_min":58,"x_max":735,"ha":693,"o":"m 140 0 q 135 0 125 2 q 115 3 101 4 l 101 4 l 80 9 q 75 10 73 12 q 70 13 71 14 l 71 14 q 71 40 68 83 l 68 83 q 68 98 67 110 q 66 121 65 129 l 65 129 l 63 172 q 63 189 61 215 l 61 215 l 60 246 q 60 284 59 305 l 59 305 q 58 326 58 393 l 58 393 q 58 456 59 523 q 60 590 65 650 l 65 650 q 65 661 89 668 l 89 668 q 104 670 139 670 l 139 670 q 220 670 258 673 l 258 673 q 376 675 436 675 l 436 675 l 480 675 q 562 673 606 669 l 606 669 q 622 669 629 631 l 629 631 q 632 624 636 595 l 636 595 q 639 580 644 558 l 644 558 q 645 552 645 547 q 644 541 644 540 l 644 540 q 643 530 633 530 l 633 530 q 629 531 621 531 l 621 531 q 579 531 518 524 l 518 524 l 465 520 q 432 516 413 515 l 413 515 q 410 515 405 503 l 405 503 q 401 490 396 443 l 396 443 l 394 418 q 394 405 397 402 q 400 398 410 398 l 410 398 l 499 398 q 538 398 588 393 l 588 393 l 600 393 q 613 390 616 383 l 616 383 q 620 377 621 370 l 621 370 l 625 281 l 625 278 q 625 261 589 258 l 589 258 q 568 253 509 253 l 509 253 q 458 253 443 254 l 443 254 q 414 254 408 253 l 408 253 q 397 250 394 242 q 391 233 391 213 l 391 213 q 391 200 389 176 l 389 176 q 388 164 388 138 l 388 138 q 453 138 484 140 l 484 140 q 518 143 580 143 l 580 143 q 584 143 588 136 l 588 136 q 593 126 604 91 l 604 91 q 610 71 616 41 l 616 41 q 618 34 618 26 l 618 26 q 618 5 598 5 l 598 5 q 572 5 528 3 l 528 3 q 505 1 456 1 l 456 1 q 351 1 298 0 l 298 0 l 140 0 m 143 729 q 138 729 136 734 q 133 738 133 744 l 133 744 l 133 749 q 133 753 134 754 l 134 754 q 143 768 153 779 l 153 779 q 177 811 184 827 l 184 827 l 207 856 q 211 863 226 878 l 226 878 q 239 890 246 899 l 246 899 l 249 906 l 283 926 l 354 926 l 366 926 l 374 926 q 377 924 383 924 l 383 924 l 398 924 l 422 922 l 438 912 l 506 809 l 523 786 q 535 767 547 754 l 547 754 l 548 749 l 548 744 q 548 729 537 729 l 537 729 l 519 729 l 501 729 l 481 729 l 452 729 l 437 729 q 431 729 426 738 l 426 738 l 402 759 q 368 787 341 814 l 341 814 q 324 800 309 785 l 309 785 q 273 753 269 749 l 269 749 q 251 729 244 729 l 244 729 l 231 729 l 214 729 l 211 732 l 208 729 l 184 729 l 166 729 l 143 729 m 550 836 q 538 836 534 847 l 534 847 q 531 855 531 876 l 531 876 q 531 897 540 912 q 549 927 576 946 l 576 946 q 597 961 597 971 l 597 971 q 597 985 555 985 l 555 985 q 523 985 510 982 q 497 979 494 979 l 494 979 q 489 979 489 987 l 489 987 q 489 1015 492 1045 l 492 1045 q 493 1050 494 1054 q 494 1058 495 1060 l 495 1060 q 496 1064 499 1066 q 502 1068 505 1069 q 508 1069 509 1069 l 509 1069 q 553 1075 599 1075 l 599 1075 q 658 1075 697 1057 q 735 1039 735 1000 l 735 1000 q 735 949 675 914 l 675 914 q 650 899 640 890 q 630 880 630 867 l 630 867 l 629 845 q 629 836 622 836 l 622 836 l 617 836 l 591 837 q 586 837 577 837 q 568 836 550 836 l 550 836"},"Ễ":{"x_min":58,"x_max":644,"ha":693,"o":"m 140 0 q 135 0 125 2 q 115 3 101 4 l 101 4 l 80 9 q 75 10 73 12 q 70 13 71 14 l 71 14 q 71 40 68 83 l 68 83 q 68 98 67 110 q 66 121 65 129 l 65 129 l 63 172 q 63 189 61 215 l 61 215 l 60 246 q 60 284 59 305 l 59 305 q 58 326 58 393 l 58 393 q 58 456 59 523 q 60 590 65 650 l 65 650 q 65 661 89 668 l 89 668 q 104 670 139 670 l 139 670 q 220 670 258 673 l 258 673 q 376 675 436 675 l 436 675 l 480 675 q 562 673 606 669 l 606 669 q 622 669 629 631 l 629 631 q 632 624 636 595 l 636 595 q 639 580 644 558 l 644 558 q 645 552 645 547 q 644 541 644 540 l 644 540 q 643 530 633 530 l 633 530 q 629 531 621 531 l 621 531 q 579 531 518 524 l 518 524 l 465 520 q 432 516 413 515 l 413 515 q 410 515 405 503 l 405 503 q 401 490 396 443 l 396 443 l 394 418 q 394 405 397 402 q 400 398 410 398 l 410 398 l 499 398 q 538 398 588 393 l 588 393 l 600 393 q 613 390 616 383 l 616 383 q 620 377 621 370 l 621 370 l 625 281 l 625 278 q 625 261 589 258 l 589 258 q 568 253 509 253 l 509 253 q 458 253 443 254 l 443 254 q 414 254 408 253 l 408 253 q 397 250 394 242 q 391 233 391 213 l 391 213 q 391 200 389 176 l 389 176 q 388 164 388 138 l 388 138 q 453 138 484 140 l 484 140 q 518 143 580 143 l 580 143 q 584 143 588 136 l 588 136 q 593 126 604 91 l 604 91 q 610 71 616 41 l 616 41 q 618 34 618 26 l 618 26 q 618 5 598 5 l 598 5 q 572 5 528 3 l 528 3 q 505 1 456 1 l 456 1 q 351 1 298 0 l 298 0 l 140 0 m 143 729 q 138 729 136 734 q 133 738 133 744 l 133 744 l 133 749 q 133 753 134 754 l 134 754 q 143 768 153 779 l 153 779 q 177 811 184 827 l 184 827 l 207 856 q 211 863 226 878 l 226 878 q 239 890 246 899 l 246 899 l 249 906 l 283 926 l 354 926 l 366 926 l 374 926 q 377 924 383 924 l 383 924 l 398 924 l 422 922 l 438 912 l 506 809 l 523 786 q 535 767 547 754 l 547 754 l 548 749 l 548 744 q 548 729 537 729 l 537 729 l 519 729 l 501 729 l 481 729 l 452 729 l 437 729 q 431 729 426 738 l 426 738 l 402 759 q 368 787 341 814 l 341 814 q 324 800 309 785 l 309 785 q 273 753 269 749 l 269 749 q 251 729 244 729 l 244 729 l 231 729 l 214 729 l 211 732 l 208 729 l 184 729 l 166 729 l 143 729 m 421 948 q 387 948 362 965 l 362 965 q 360 967 353 972 q 345 977 341 982 l 341 982 q 324 1004 306 1013 l 306 1013 q 296 1017 287 1017 l 287 1017 q 279 1017 275 1003 l 275 1003 q 272 996 272 988 l 272 988 q 272 984 272 976 q 271 968 268 965 l 268 965 q 266 964 265 965 l 265 965 q 217 965 207 968 l 207 968 q 199 970 195 972 q 191 974 190 978 l 190 978 q 188 980 186 987 l 186 987 q 185 989 185 992 q 184 995 183 1000 l 183 1000 q 183 1021 188 1054 l 188 1054 q 195 1088 217 1107 l 217 1107 q 243 1129 298 1129 l 298 1129 q 305 1129 318 1124 q 331 1119 335 1118 l 335 1118 q 363 1109 370 1093 l 370 1093 q 371 1089 376 1084 l 376 1084 q 380 1080 385 1073 q 389 1066 393 1064 l 393 1064 q 399 1060 405 1060 l 405 1060 q 422 1060 422 1073 l 422 1073 q 422 1084 416 1097 l 416 1097 l 406 1115 q 406 1120 415 1120 l 415 1120 l 418 1120 l 512 1122 q 518 1118 521 1112 l 521 1112 q 531 1093 532 1065 l 532 1065 l 533 1043 q 533 1024 526 1012 l 526 1012 q 513 985 483 965 l 483 965 q 470 957 451 952 l 451 952 q 441 948 421 948 l 421 948"},"Ȅ":{"x_min":-90,"x_max":644,"ha":693,"o":"m 140 0 q 135 0 125 2 q 115 3 101 4 l 101 4 l 80 9 q 75 10 73 12 q 70 13 71 14 l 71 14 q 71 40 68 83 l 68 83 q 68 98 67 110 q 66 121 65 129 l 65 129 l 63 172 q 63 189 61 215 l 61 215 l 60 246 q 60 284 59 305 l 59 305 q 58 326 58 393 l 58 393 q 58 456 59 523 q 60 590 65 650 l 65 650 q 65 661 89 668 l 89 668 q 104 670 139 670 l 139 670 q 220 670 258 673 l 258 673 q 376 675 436 675 l 436 675 l 480 675 q 562 673 606 669 l 606 669 q 622 669 629 631 l 629 631 q 632 624 636 595 l 636 595 q 639 580 644 558 l 644 558 q 645 552 645 547 q 644 541 644 540 l 644 540 q 643 530 633 530 l 633 530 q 629 531 621 531 l 621 531 q 579 531 518 524 l 518 524 l 465 520 q 432 516 413 515 l 413 515 q 410 515 405 503 l 405 503 q 401 490 396 443 l 396 443 l 394 418 q 394 405 397 402 q 400 398 410 398 l 410 398 l 499 398 q 538 398 588 393 l 588 393 l 600 393 q 613 390 616 383 l 616 383 q 620 377 621 370 l 621 370 l 625 281 l 625 278 q 625 261 589 258 l 589 258 q 568 253 509 253 l 509 253 q 458 253 443 254 l 443 254 q 414 254 408 253 l 408 253 q 397 250 394 242 q 391 233 391 213 l 391 213 q 391 200 389 176 l 389 176 q 388 164 388 138 l 388 138 q 453 138 484 140 l 484 140 q 518 143 580 143 l 580 143 q 584 143 588 136 l 588 136 q 593 126 604 91 l 604 91 q 610 71 616 41 l 616 41 q 618 34 618 26 l 618 26 q 618 5 598 5 l 598 5 q 572 5 528 3 l 528 3 q 505 1 456 1 l 456 1 q 351 1 298 0 l 298 0 l 140 0 m 156 736 l 138 736 l 119 736 q 112 736 103 751 l 103 751 q 87 777 64 831 l 64 831 l 46 868 q 42 876 14 931 l 14 931 q 1 964 -18 992 l -18 992 q -26 1004 -32 1016 l -32 1016 l -47 1041 q -50 1047 -54 1056 q -59 1064 -63 1069 l -63 1069 q -72 1081 -87 1112 l -87 1112 q -90 1118 -90 1121 l -90 1121 q -90 1127 -83 1131 l -83 1131 q -77 1134 -56 1139 l -56 1139 l -53 1139 q -52 1138 -50 1138 q -49 1138 -49 1138 l -49 1138 l -42 1141 l 1 1143 l 8 1144 q 10 1144 11 1145 q 12 1146 13 1146 l 13 1146 l 23 1146 q 31 1146 34 1144 l 34 1144 l 41 1147 l 96 1146 q 114 1144 159 1144 l 159 1144 l 202 1137 l 211 1131 q 230 1063 246 976 l 246 976 l 253 923 l 261 871 l 264 837 q 269 797 269 766 l 269 766 q 269 752 266 744 q 262 736 251 736 l 251 736 l 223 736 l 196 736 l 167 736 l 163 739 l 156 736 m 484 736 l 466 736 l 447 736 q 439 736 433 751 l 433 751 q 418 795 408 831 l 408 831 q 400 860 397 868 l 397 868 q 389 887 384 906 q 378 925 376 931 l 376 931 q 365 973 356 992 l 356 992 q 349 1003 346 1016 l 346 1016 q 342 1023 334 1041 l 334 1041 q 332 1047 328 1055 q 324 1063 322 1069 l 322 1069 q 315 1088 314 1091 l 314 1091 q 310 1099 309 1104 q 307 1109 306 1112 l 306 1112 q 305 1115 305 1119 l 305 1119 q 305 1127 314 1131 l 314 1131 q 322 1134 342 1139 l 342 1139 l 346 1139 q 346 1138 349 1138 l 349 1138 l 357 1141 l 401 1143 l 406 1144 q 408 1144 410 1145 q 412 1146 413 1146 l 413 1146 l 423 1146 q 431 1146 433 1144 l 433 1144 l 441 1147 l 494 1146 q 513 1144 558 1144 l 558 1144 l 601 1137 l 607 1131 q 612 1072 616 976 l 616 976 q 613 949 613 923 l 613 923 q 613 888 612 871 l 612 871 q 611 828 602 766 l 602 766 q 600 736 578 736 l 578 736 l 551 736 l 524 736 l 496 736 l 492 739 l 484 736"},"Ë":{"x_min":58,"x_max":644,"ha":693,"o":"m 140 0 q 135 0 125 2 q 115 3 101 4 l 101 4 l 80 9 q 75 10 73 12 q 70 13 71 14 l 71 14 q 71 40 68 83 l 68 83 q 68 98 67 110 q 66 121 65 129 l 65 129 l 63 172 q 63 189 61 215 l 61 215 l 60 246 q 60 284 59 305 l 59 305 q 58 326 58 393 l 58 393 q 58 456 59 523 q 60 590 65 650 l 65 650 q 65 661 89 668 l 89 668 q 104 670 139 670 l 139 670 q 220 670 258 673 l 258 673 q 376 675 436 675 l 436 675 l 480 675 q 562 673 606 669 l 606 669 q 622 669 629 631 l 629 631 q 632 624 636 595 l 636 595 q 639 580 644 558 l 644 558 q 645 552 645 547 q 644 541 644 540 l 644 540 q 643 530 633 530 l 633 530 q 629 531 621 531 l 621 531 q 579 531 518 524 l 518 524 l 465 520 q 432 516 413 515 l 413 515 q 410 515 405 503 l 405 503 q 401 490 396 443 l 396 443 l 394 418 q 394 405 397 402 q 400 398 410 398 l 410 398 l 499 398 q 538 398 588 393 l 588 393 l 600 393 q 613 390 616 383 l 616 383 q 620 377 621 370 l 621 370 l 625 281 l 625 278 q 625 261 589 258 l 589 258 q 568 253 509 253 l 509 253 q 458 253 443 254 l 443 254 q 414 254 408 253 l 408 253 q 397 250 394 242 q 391 233 391 213 l 391 213 q 391 200 389 176 l 389 176 q 388 164 388 138 l 388 138 q 453 138 484 140 l 484 140 q 518 143 580 143 l 580 143 q 584 143 588 136 l 588 136 q 593 126 604 91 l 604 91 q 610 71 616 41 l 616 41 q 618 34 618 26 l 618 26 q 618 5 598 5 l 598 5 q 572 5 528 3 l 528 3 q 505 1 456 1 l 456 1 q 351 1 298 0 l 298 0 l 140 0 m 92 771 l 86 777 l 79 809 l 79 838 l 78 858 l 77 864 q 77 872 81 877 l 81 877 l 84 908 l 84 911 l 83 916 q 87 928 94 939 l 94 939 q 99 944 112 944 l 112 944 l 216 944 q 241 947 251 947 l 251 947 q 261 947 264 946 l 264 946 q 267 946 270 945 q 273 944 277 944 l 277 944 l 284 944 q 286 944 288 945 q 289 946 291 946 l 291 946 l 294 946 q 306 946 306 921 l 306 921 l 306 901 q 304 893 304 881 l 304 881 q 304 880 305 878 q 305 876 306 874 l 306 874 l 306 864 l 306 852 l 306 842 l 306 821 q 307 813 307 798 l 307 798 q 307 788 303 780 q 299 772 291 771 l 291 771 l 92 771 m 456 771 l 397 777 l 391 809 l 391 838 q 391 854 388 864 l 388 864 l 388 869 q 387 871 387 877 l 387 877 q 387 881 387 891 q 386 900 386 918 l 386 918 q 386 919 387 920 q 387 921 386 922 l 386 922 l 386 926 q 388 928 392 934 q 395 939 399 941 l 399 941 q 410 944 424 944 l 424 944 l 528 944 q 555 947 562 947 l 562 947 q 572 947 576 946 l 576 946 q 578 946 581 945 q 584 944 589 944 l 589 944 l 596 944 q 598 944 600 945 q 601 946 603 946 l 603 946 l 606 946 q 613 946 615 940 q 617 933 617 921 l 617 921 l 617 908 l 616 881 q 616 880 616 878 q 616 876 617 874 l 617 874 l 617 864 l 617 852 l 617 842 l 616 831 l 616 821 q 616 813 617 811 l 617 811 q 619 803 619 798 l 619 798 q 619 772 603 771 l 603 771 l 456 771"},"Ė":{"x_min":58,"x_max":644,"ha":693,"o":"m 140 0 q 135 0 125 2 q 115 3 101 4 l 101 4 l 80 9 q 75 10 73 12 q 70 13 71 14 l 71 14 q 71 40 68 83 l 68 83 q 68 98 67 110 q 66 121 65 129 l 65 129 l 63 172 q 63 189 61 215 l 61 215 l 60 246 q 60 284 59 305 l 59 305 q 58 326 58 393 l 58 393 q 58 456 59 523 q 60 590 65 650 l 65 650 q 65 661 89 668 l 89 668 q 104 670 139 670 l 139 670 q 220 670 258 673 l 258 673 q 376 675 436 675 l 436 675 l 480 675 q 562 673 606 669 l 606 669 q 622 669 629 631 l 629 631 q 632 624 636 595 l 636 595 q 639 580 644 558 l 644 558 q 645 552 645 547 q 644 541 644 540 l 644 540 q 643 530 633 530 l 633 530 q 629 531 621 531 l 621 531 q 579 531 518 524 l 518 524 l 465 520 q 432 516 413 515 l 413 515 q 410 515 405 503 l 405 503 q 401 490 396 443 l 396 443 l 394 418 q 394 405 397 402 q 400 398 410 398 l 410 398 l 499 398 q 538 398 588 393 l 588 393 l 600 393 q 613 390 616 383 l 616 383 q 620 377 621 370 l 621 370 l 625 281 l 625 278 q 625 261 589 258 l 589 258 q 568 253 509 253 l 509 253 q 458 253 443 254 l 443 254 q 414 254 408 253 l 408 253 q 397 250 394 242 q 391 233 391 213 l 391 213 q 391 200 389 176 l 389 176 q 388 164 388 138 l 388 138 q 453 138 484 140 l 484 140 q 518 143 580 143 l 580 143 q 584 143 588 136 l 588 136 q 593 126 604 91 l 604 91 q 610 71 616 41 l 616 41 q 618 34 618 26 l 618 26 q 618 5 598 5 l 598 5 q 572 5 528 3 l 528 3 q 505 1 456 1 l 456 1 q 351 1 298 0 l 298 0 l 140 0 m 346 736 q 336 736 329 737 l 329 737 q 319 739 311 739 l 311 739 l 226 746 l 219 753 q 217 763 217 801 l 217 801 q 217 847 221 884 l 221 884 q 221 899 223 923 l 223 923 l 224 952 q 226 967 252 967 l 252 967 q 278 967 289 966 l 289 966 q 298 966 307 965 q 316 964 326 964 l 326 964 q 343 964 352 966 l 352 966 l 383 966 l 393 966 l 406 966 l 416 966 l 424 966 l 438 966 q 443 967 452 967 l 452 967 q 478 967 478 954 l 478 954 l 478 952 q 476 946 476 936 l 476 936 l 476 927 l 476 912 q 476 908 477 901 q 477 893 477 877 l 477 877 l 477 773 q 476 770 475 768 q 474 765 473 761 l 473 761 q 470 750 462 746 l 462 746 q 460 746 457 745 q 453 744 448 744 l 448 744 q 446 744 446 746 l 446 746 l 441 746 l 441 746 l 434 743 l 411 741 q 409 741 407 740 q 405 739 403 739 l 403 739 l 396 737 q 395 737 387 739 l 387 739 q 385 739 383 740 q 381 741 379 741 l 379 741 q 377 741 377 739 l 377 739 l 371 736 l 346 736"},"Ẹ":{"x_min":58,"x_max":644,"ha":693,"o":"m 140 0 q 135 0 125 2 q 115 3 101 4 l 101 4 l 80 9 q 75 10 73 12 q 70 13 71 14 l 71 14 q 71 40 68 83 l 68 83 q 68 98 67 110 q 66 121 65 129 l 65 129 l 63 172 q 63 189 61 215 l 61 215 l 60 246 q 60 284 59 305 l 59 305 q 58 326 58 393 l 58 393 q 58 456 59 523 q 60 590 65 650 l 65 650 q 65 661 89 668 l 89 668 q 104 670 139 670 l 139 670 q 220 670 258 673 l 258 673 q 376 675 436 675 l 436 675 l 480 675 q 562 673 606 669 l 606 669 q 622 669 629 631 l 629 631 q 632 624 636 595 l 636 595 q 639 580 644 558 l 644 558 q 645 552 645 547 q 644 541 644 540 l 644 540 q 643 530 633 530 l 633 530 q 629 531 621 531 l 621 531 q 579 531 518 524 l 518 524 l 465 520 q 432 516 413 515 l 413 515 q 410 515 405 503 l 405 503 q 401 490 396 443 l 396 443 l 394 418 q 394 405 397 402 q 400 398 410 398 l 410 398 l 499 398 q 538 398 588 393 l 588 393 l 600 393 q 613 390 616 383 l 616 383 q 620 377 621 370 l 621 370 l 625 281 l 625 278 q 625 261 589 258 l 589 258 q 568 253 509 253 l 509 253 q 458 253 443 254 l 443 254 q 414 254 408 253 l 408 253 q 397 250 394 242 q 391 233 391 213 l 391 213 q 391 200 389 176 l 389 176 q 388 164 388 138 l 388 138 q 453 138 484 140 l 484 140 q 518 143 580 143 l 580 143 q 584 143 588 136 l 588 136 q 593 126 604 91 l 604 91 q 610 71 616 41 l 616 41 q 618 34 618 26 l 618 26 q 618 5 598 5 l 598 5 q 572 5 528 3 l 528 3 q 505 1 456 1 l 456 1 q 351 1 298 0 l 298 0 l 140 0 m 346 -274 l 333 -274 q 329 -273 319 -273 l 319 -273 l 254 -266 l 249 -261 q 248 -254 248 -225 l 248 -225 q 248 -195 251 -163 l 251 -163 l 253 -134 l 253 -113 q 254 -101 274 -101 l 274 -101 l 303 -101 q 312 -103 331 -103 l 331 -103 l 349 -103 q 357 -101 373 -101 l 373 -101 l 381 -101 l 389 -101 l 398 -101 q 401 -103 404 -103 l 404 -103 q 411 -103 414 -101 l 414 -101 l 424 -101 q 444 -101 444 -110 l 444 -110 l 444 -113 q 443 -118 443 -124 l 443 -124 l 443 -131 l 443 -143 l 443 -169 l 443 -246 q 443 -251 441 -255 l 441 -255 q 438 -265 432 -266 l 432 -266 q 430 -269 422 -269 l 422 -269 l 419 -268 l 417 -268 l 417 -268 l 412 -269 l 393 -271 l 388 -273 l 382 -274 l 376 -273 q 374 -273 373 -272 q 372 -271 371 -271 l 371 -271 q 368 -271 368 -273 l 368 -273 l 363 -274 l 346 -274"},"È":{"x_min":58,"x_max":644,"ha":693,"o":"m 140 0 q 135 0 125 2 q 115 3 101 4 l 101 4 l 80 9 q 75 10 73 12 q 70 13 71 14 l 71 14 q 71 40 68 83 l 68 83 q 68 98 67 110 q 66 121 65 129 l 65 129 l 63 172 q 63 189 61 215 l 61 215 l 60 246 q 60 284 59 305 l 59 305 q 58 326 58 393 l 58 393 q 58 456 59 523 q 60 590 65 650 l 65 650 q 65 661 89 668 l 89 668 q 104 670 139 670 l 139 670 q 220 670 258 673 l 258 673 q 376 675 436 675 l 436 675 l 480 675 q 562 673 606 669 l 606 669 q 622 669 629 631 l 629 631 q 632 624 636 595 l 636 595 q 639 580 644 558 l 644 558 q 645 552 645 547 q 644 541 644 540 l 644 540 q 643 530 633 530 l 633 530 q 629 531 621 531 l 621 531 q 579 531 518 524 l 518 524 l 465 520 q 432 516 413 515 l 413 515 q 410 515 405 503 l 405 503 q 401 490 396 443 l 396 443 l 394 418 q 394 405 397 402 q 400 398 410 398 l 410 398 l 499 398 q 538 398 588 393 l 588 393 l 600 393 q 613 390 616 383 l 616 383 q 620 377 621 370 l 621 370 l 625 281 l 625 278 q 625 261 589 258 l 589 258 q 568 253 509 253 l 509 253 q 458 253 443 254 l 443 254 q 414 254 408 253 l 408 253 q 397 250 394 242 q 391 233 391 213 l 391 213 q 391 200 389 176 l 389 176 q 388 164 388 138 l 388 138 q 453 138 484 140 l 484 140 q 518 143 580 143 l 580 143 q 584 143 588 136 l 588 136 q 593 126 604 91 l 604 91 q 610 71 616 41 l 616 41 q 618 34 618 26 l 618 26 q 618 5 598 5 l 598 5 q 572 5 528 3 l 528 3 q 505 1 456 1 l 456 1 q 351 1 298 0 l 298 0 l 140 0 m 313 736 l 296 736 l 276 736 q 269 736 259 751 l 259 751 q 240 779 221 824 l 221 824 q 217 831 213 840 q 208 849 203 858 l 203 858 q 194 872 179 907 l 179 907 l 171 926 l 163 945 q 161 949 155 964 q 148 979 139 992 l 139 992 l 126 1016 q 121 1023 111 1041 l 111 1041 q 85 1084 81 1093 l 81 1093 q 72 1108 71 1112 l 71 1112 q 68 1118 68 1122 l 68 1122 q 68 1128 74 1131 l 74 1131 q 79 1134 101 1139 l 101 1139 l 106 1139 q 106 1138 108 1138 l 108 1138 l 116 1141 l 158 1143 l 164 1144 q 166 1144 168 1145 q 170 1146 171 1146 l 171 1146 l 181 1146 q 188 1146 191 1144 l 191 1144 l 197 1147 l 252 1146 q 271 1144 316 1144 l 316 1144 l 359 1137 l 367 1131 q 389 1051 403 976 l 403 976 q 404 951 409 923 l 409 923 q 422 860 424 817 l 424 817 q 426 801 426 766 l 426 766 q 426 752 423 744 q 419 736 407 736 l 407 736 l 381 736 l 353 736 l 324 736 l 321 739 l 313 736"},"Ẻ":{"x_min":58,"x_max":644,"ha":693,"o":"m 140 0 q 135 0 125 2 q 115 3 101 4 l 101 4 l 80 9 q 75 10 73 12 q 70 13 71 14 l 71 14 q 71 40 68 83 l 68 83 q 68 98 67 110 q 66 121 65 129 l 65 129 l 63 172 q 63 189 61 215 l 61 215 l 60 246 q 60 284 59 305 l 59 305 q 58 326 58 393 l 58 393 q 58 456 59 523 q 60 590 65 650 l 65 650 q 65 661 89 668 l 89 668 q 104 670 139 670 l 139 670 q 220 670 258 673 l 258 673 q 376 675 436 675 l 436 675 l 480 675 q 562 673 606 669 l 606 669 q 622 669 629 631 l 629 631 q 632 624 636 595 l 636 595 q 639 580 644 558 l 644 558 q 645 552 645 547 q 644 541 644 540 l 644 540 q 643 530 633 530 l 633 530 q 629 531 621 531 l 621 531 q 579 531 518 524 l 518 524 l 465 520 q 432 516 413 515 l 413 515 q 410 515 405 503 l 405 503 q 401 490 396 443 l 396 443 l 394 418 q 394 405 397 402 q 400 398 410 398 l 410 398 l 499 398 q 538 398 588 393 l 588 393 l 600 393 q 613 390 616 383 l 616 383 q 620 377 621 370 l 621 370 l 625 281 l 625 278 q 625 261 589 258 l 589 258 q 568 253 509 253 l 509 253 q 458 253 443 254 l 443 254 q 414 254 408 253 l 408 253 q 397 250 394 242 q 391 233 391 213 l 391 213 q 391 200 389 176 l 389 176 q 388 164 388 138 l 388 138 q 453 138 484 140 l 484 140 q 518 143 580 143 l 580 143 q 584 143 588 136 l 588 136 q 593 126 604 91 l 604 91 q 610 71 616 41 l 616 41 q 618 34 618 26 l 618 26 q 618 5 598 5 l 598 5 q 572 5 528 3 l 528 3 q 505 1 456 1 l 456 1 q 351 1 298 0 l 298 0 l 140 0 m 317 768 q 305 768 301 779 l 301 779 q 298 787 298 808 l 298 808 q 298 829 307 844 q 316 859 343 878 l 343 878 q 364 893 364 903 l 364 903 q 364 917 322 917 l 322 917 q 290 917 277 914 q 264 911 261 911 l 261 911 q 256 911 256 919 l 256 919 q 256 947 259 977 l 259 977 q 260 982 261 986 q 261 990 262 992 l 262 992 q 263 996 266 998 q 269 1000 272 1001 q 275 1001 276 1001 l 276 1001 q 320 1007 366 1007 l 366 1007 q 425 1007 464 989 q 502 971 502 932 l 502 932 q 502 881 442 846 l 442 846 q 417 831 407 822 q 397 812 397 799 l 397 799 l 396 777 q 396 768 389 768 l 389 768 l 384 768 l 358 769 q 353 769 344 769 q 335 768 317 768 l 317 768"},"Ȇ":{"x_min":58,"x_max":644,"ha":693,"o":"m 140 0 q 135 0 125 2 q 115 3 101 4 l 101 4 l 80 9 q 75 10 73 12 q 70 13 71 14 l 71 14 q 71 40 68 83 l 68 83 q 68 98 67 110 q 66 121 65 129 l 65 129 l 63 172 q 63 189 61 215 l 61 215 l 60 246 q 60 284 59 305 l 59 305 q 58 326 58 393 l 58 393 q 58 456 59 523 q 60 590 65 650 l 65 650 q 65 661 89 668 l 89 668 q 104 670 139 670 l 139 670 q 220 670 258 673 l 258 673 q 376 675 436 675 l 436 675 l 480 675 q 562 673 606 669 l 606 669 q 622 669 629 631 l 629 631 q 632 624 636 595 l 636 595 q 639 580 644 558 l 644 558 q 645 552 645 547 q 644 541 644 540 l 644 540 q 643 530 633 530 l 633 530 q 629 531 621 531 l 621 531 q 579 531 518 524 l 518 524 l 465 520 q 432 516 413 515 l 413 515 q 410 515 405 503 l 405 503 q 401 490 396 443 l 396 443 l 394 418 q 394 405 397 402 q 400 398 410 398 l 410 398 l 499 398 q 538 398 588 393 l 588 393 l 600 393 q 613 390 616 383 l 616 383 q 620 377 621 370 l 621 370 l 625 281 l 625 278 q 625 261 589 258 l 589 258 q 568 253 509 253 l 509 253 q 458 253 443 254 l 443 254 q 414 254 408 253 l 408 253 q 397 250 394 242 q 391 233 391 213 l 391 213 q 391 200 389 176 l 389 176 q 388 164 388 138 l 388 138 q 453 138 484 140 l 484 140 q 518 143 580 143 l 580 143 q 584 143 588 136 l 588 136 q 593 126 604 91 l 604 91 q 610 71 616 41 l 616 41 q 618 34 618 26 l 618 26 q 618 5 598 5 l 598 5 q 572 5 528 3 l 528 3 q 505 1 456 1 l 456 1 q 351 1 298 0 l 298 0 l 140 0 m 276 728 l 113 732 q 104 759 104 804 l 104 804 q 104 868 169 943 l 169 943 q 204 982 261 998 l 261 998 q 296 1009 363 1009 l 363 1009 q 408 1009 450 995 q 492 981 526 956 l 526 956 q 560 930 580 895 q 599 860 599 821 l 599 821 q 599 781 578 736 l 578 736 l 422 737 q 431 775 431 806 l 431 806 l 431 827 q 431 827 430 829 q 428 830 427 833 l 427 833 q 421 847 387 861 l 387 861 q 369 866 341 866 l 341 866 q 312 866 289 843 l 289 843 q 267 819 267 788 l 267 788 q 267 759 276 728 l 276 728"},"Ē":{"x_min":58,"x_max":644,"ha":693,"o":"m 140 0 q 135 0 125 2 q 115 3 101 4 l 101 4 l 80 9 q 75 10 73 12 q 70 13 71 14 l 71 14 q 71 40 68 83 l 68 83 q 68 98 67 110 q 66 121 65 129 l 65 129 l 63 172 q 63 189 61 215 l 61 215 l 60 246 q 60 284 59 305 l 59 305 q 58 326 58 393 l 58 393 q 58 456 59 523 q 60 590 65 650 l 65 650 q 65 661 89 668 l 89 668 q 104 670 139 670 l 139 670 q 220 670 258 673 l 258 673 q 376 675 436 675 l 436 675 l 480 675 q 562 673 606 669 l 606 669 q 622 669 629 631 l 629 631 q 632 624 636 595 l 636 595 q 639 580 644 558 l 644 558 q 645 552 645 547 q 644 541 644 540 l 644 540 q 643 530 633 530 l 633 530 q 629 531 621 531 l 621 531 q 579 531 518 524 l 518 524 l 465 520 q 432 516 413 515 l 413 515 q 410 515 405 503 l 405 503 q 401 490 396 443 l 396 443 l 394 418 q 394 405 397 402 q 400 398 410 398 l 410 398 l 499 398 q 538 398 588 393 l 588 393 l 600 393 q 613 390 616 383 l 616 383 q 620 377 621 370 l 621 370 l 625 281 l 625 278 q 625 261 589 258 l 589 258 q 568 253 509 253 l 509 253 q 458 253 443 254 l 443 254 q 414 254 408 253 l 408 253 q 397 250 394 242 q 391 233 391 213 l 391 213 q 391 200 389 176 l 389 176 q 388 164 388 138 l 388 138 q 453 138 484 140 l 484 140 q 518 143 580 143 l 580 143 q 584 143 588 136 l 588 136 q 593 126 604 91 l 604 91 q 610 71 616 41 l 616 41 q 618 34 618 26 l 618 26 q 618 5 598 5 l 598 5 q 572 5 528 3 l 528 3 q 505 1 456 1 l 456 1 q 351 1 298 0 l 298 0 l 140 0 m 499 766 q 489 767 473 767 l 473 767 l 451 768 l 426 768 l 416 769 l 396 769 q 392 769 384 769 q 376 768 371 769 l 371 769 q 361 771 346 771 l 346 771 l 324 771 l 314 771 l 214 771 l 186 771 q 170 771 160 773 q 150 775 144 781 l 144 781 q 137 786 137 796 l 137 796 l 137 832 l 137 862 l 137 891 q 136 901 136 926 l 136 926 q 136 936 144 942 l 144 942 q 145 943 150 947 q 155 951 161 951 l 161 951 l 271 951 l 293 951 q 306 951 346 949 l 346 949 l 386 948 q 456 946 476 946 l 476 946 l 499 946 q 519 946 536 941 l 536 941 q 554 936 554 921 l 554 921 q 554 906 555 897 q 556 887 556 881 l 556 881 l 556 871 q 556 856 557 844 l 557 844 l 557 821 q 557 799 553 786 l 553 786 q 550 766 533 766 l 533 766 l 499 766"},"Ę":{"x_min":58,"x_max":661,"ha":693,"o":"m 654 -143 q 661 -146 661 -153 l 661 -153 l 661 -158 l 644 -240 q 643 -244 636 -248 q 628 -253 618 -258 l 618 -258 q 588 -269 571 -271 l 571 -271 q 564 -273 559 -273 q 554 -273 551 -274 l 551 -274 l 541 -276 q 432 -276 374 -253 l 374 -253 q 319 -233 303 -195 l 303 -195 q 298 -181 298 -163 l 298 -163 q 298 -118 322 -84 l 322 -84 q 339 -61 381 -33 l 381 -33 q 388 -26 400 -19 q 411 -13 416 -10 l 416 -10 l 433 1 q 343 1 298 0 l 298 0 l 140 0 q 135 0 125 2 q 115 3 101 4 l 101 4 l 80 9 q 75 10 73 12 q 70 13 71 14 l 71 14 q 71 40 68 83 l 68 83 q 68 98 67 110 q 66 121 65 129 l 65 129 l 63 172 q 63 189 61 215 l 61 215 l 60 246 q 60 284 59 305 l 59 305 q 58 326 58 393 l 58 393 q 58 456 59 523 q 60 590 65 650 l 65 650 q 65 661 89 668 l 89 668 q 104 670 139 670 l 139 670 q 220 670 258 673 l 258 673 q 376 675 436 675 l 436 675 l 480 675 q 562 673 606 669 l 606 669 q 622 669 629 631 l 629 631 q 632 624 636 595 l 636 595 q 639 580 644 558 l 644 558 q 645 552 645 547 q 644 541 644 540 l 644 540 q 643 530 633 530 l 633 530 q 629 531 621 531 l 621 531 q 579 531 518 524 l 518 524 l 465 520 q 432 516 413 515 l 413 515 q 410 515 405 503 l 405 503 q 401 490 396 443 l 396 443 l 394 418 q 394 405 397 402 q 400 398 410 398 l 410 398 l 499 398 q 538 398 588 393 l 588 393 l 600 393 q 613 390 616 383 l 616 383 q 620 377 621 370 l 621 370 l 625 281 l 625 278 q 625 261 589 258 l 589 258 q 568 253 509 253 l 509 253 q 458 253 443 254 l 443 254 q 414 254 408 253 l 408 253 q 397 250 394 242 q 391 233 391 213 l 391 213 q 391 200 389 176 l 389 176 q 388 164 388 138 l 388 138 q 453 138 484 140 l 484 140 q 518 143 580 143 l 580 143 q 584 143 588 136 l 588 136 q 593 126 604 91 l 604 91 q 610 71 616 41 l 616 41 q 618 34 618 26 l 618 26 q 618 5 599 5 l 599 5 l 562 -33 q 548 -45 539 -58 l 539 -58 q 526 -73 516 -90 l 516 -90 q 503 -114 503 -126 l 503 -126 q 503 -141 509 -148 q 515 -155 526 -158 l 526 -158 q 528 -159 535 -161 q 541 -163 547 -161 l 547 -161 q 554 -160 567 -160 l 567 -160 q 608 -160 654 -143 l 654 -143"},"Ẽ":{"x_min":58,"x_max":644,"ha":693,"o":"m 140 0 q 135 0 125 2 q 115 3 101 4 l 101 4 l 80 9 q 75 10 73 12 q 70 13 71 14 l 71 14 q 71 40 68 83 l 68 83 q 68 98 67 110 q 66 121 65 129 l 65 129 l 63 172 q 63 189 61 215 l 61 215 l 60 246 q 60 284 59 305 l 59 305 q 58 326 58 393 l 58 393 q 58 456 59 523 q 60 590 65 650 l 65 650 q 65 661 89 668 l 89 668 q 104 670 139 670 l 139 670 q 220 670 258 673 l 258 673 q 376 675 436 675 l 436 675 l 480 675 q 562 673 606 669 l 606 669 q 622 669 629 631 l 629 631 q 632 624 636 595 l 636 595 q 639 580 644 558 l 644 558 q 645 552 645 547 q 644 541 644 540 l 644 540 q 643 530 633 530 l 633 530 q 629 531 621 531 l 621 531 q 579 531 518 524 l 518 524 l 465 520 q 432 516 413 515 l 413 515 q 410 515 405 503 l 405 503 q 401 490 396 443 l 396 443 l 394 418 q 394 405 397 402 q 400 398 410 398 l 410 398 l 499 398 q 538 398 588 393 l 588 393 l 600 393 q 613 390 616 383 l 616 383 q 620 377 621 370 l 621 370 l 625 281 l 625 278 q 625 261 589 258 l 589 258 q 568 253 509 253 l 509 253 q 458 253 443 254 l 443 254 q 414 254 408 253 l 408 253 q 397 250 394 242 q 391 233 391 213 l 391 213 q 391 200 389 176 l 389 176 q 388 164 388 138 l 388 138 q 453 138 484 140 l 484 140 q 518 143 580 143 l 580 143 q 584 143 588 136 l 588 136 q 593 126 604 91 l 604 91 q 610 71 616 41 l 616 41 q 618 34 618 26 l 618 26 q 618 5 598 5 l 598 5 q 572 5 528 3 l 528 3 q 505 1 456 1 l 456 1 q 351 1 298 0 l 298 0 l 140 0 m 412 727 q 378 727 353 744 l 353 744 q 351 746 344 751 q 336 756 332 761 l 332 761 q 315 783 297 792 l 297 792 q 287 796 278 796 l 278 796 q 270 796 266 782 l 266 782 q 263 775 263 767 l 263 767 q 263 763 263 755 q 262 747 259 744 l 259 744 q 257 743 256 744 l 256 744 q 208 744 198 747 l 198 747 q 190 749 186 751 q 182 753 181 757 l 181 757 q 179 759 177 766 l 177 766 q 176 768 176 771 q 175 774 174 779 l 174 779 q 174 800 179 833 l 179 833 q 186 867 208 886 l 208 886 q 234 908 289 908 l 289 908 q 296 908 309 903 q 322 898 326 897 l 326 897 q 354 888 361 872 l 361 872 q 362 868 367 863 l 367 863 q 371 859 376 852 q 380 845 384 843 l 384 843 q 390 839 396 839 l 396 839 q 413 839 413 852 l 413 852 q 413 863 407 876 l 407 876 l 397 894 q 397 899 406 899 l 406 899 l 409 899 l 503 901 q 509 897 512 891 l 512 891 q 522 872 523 844 l 523 844 l 524 822 q 524 803 517 791 l 517 791 q 504 764 474 744 l 474 744 q 461 736 442 731 l 442 731 q 432 727 412 727 l 412 727"},"F":{"x_min":58,"x_max":628,"ha":663,"o":"m 103 -11 q 82 -11 76 28 l 76 28 q 73 45 73 59 l 73 59 l 73 81 q 70 114 70 145 l 70 145 q 66 237 63 275 l 63 275 q 63 292 61 312 q 59 331 58 339 l 58 339 l 58 655 q 58 664 65 666 l 65 666 l 71 666 l 74 665 q 109 665 166 668 l 166 668 q 242 670 293 670 l 293 670 l 303 670 q 309 669 323 669 l 323 669 l 341 669 l 351 669 q 381 669 398 668 l 398 668 l 501 668 q 520 666 563 666 l 563 666 q 571 666 575 665 l 575 665 q 583 663 593 663 l 593 663 q 597 663 601 666 l 601 666 q 624 666 626 624 l 626 624 q 628 610 628 603 l 628 603 q 628 597 626 579 l 626 579 q 625 563 625 528 l 625 528 q 625 517 606 515 l 606 515 q 601 514 589 514 l 589 514 l 575 514 l 530 514 l 500 513 q 490 510 469 510 l 469 510 q 448 510 445 511 l 445 511 q 442 510 441 509 q 439 508 438 508 l 438 508 q 438 506 437 504 q 436 502 436 498 l 436 498 q 435 491 431 446 l 431 446 q 430 433 430 400 l 430 400 l 429 398 q 429 394 433 389 l 433 389 l 553 389 q 565 389 571 386 q 576 383 579 375 l 579 375 q 583 363 583 313 l 583 313 l 583 265 l 583 238 q 581 229 578 226 q 574 223 568 223 l 568 223 q 560 223 553 221 l 553 221 l 508 218 l 488 218 q 473 218 468 216 l 468 216 q 461 214 449 213 l 449 213 l 435 213 q 419 213 413 209 l 413 209 q 408 208 403 199 l 403 199 q 403 108 401 75 l 401 75 q 400 27 391 5 l 391 5 q 373 5 339 3 l 339 3 q 323 3 318 1 l 318 1 l 308 1 l 306 1 q 302 1 300 2 q 298 3 296 3 l 296 3 l 293 4 q 293 5 289 5 l 289 5 q 288 5 286 4 q 283 3 281 1 l 281 1 l 198 1 q 197 0 194 0 q 190 -1 184 -3 l 184 -3 l 123 -10 l 103 -11"},"G":{"x_min":43,"x_max":781,"ha":828,"o":"m 348 -23 q 270 -23 208 13 l 208 13 q 138 47 93 125 l 93 125 q 43 213 43 333 l 43 333 q 43 418 73 486 q 103 554 159 601 l 159 601 q 214 647 288 671 q 362 695 449 695 l 449 695 q 577 695 713 630 l 713 630 l 674 460 q 667 462 658 465 q 648 468 636 471 l 636 471 q 581 485 555 489 l 555 489 q 531 493 516 493 l 516 493 q 453 493 420 459 l 420 459 q 381 420 381 328 l 381 328 q 381 244 406 208 l 406 208 q 427 174 468 174 l 468 174 q 494 174 528 188 l 528 188 q 528 204 526 236 l 526 236 l 525 258 q 524 281 524 326 l 524 326 l 524 353 q 524 362 527 366 q 530 369 538 369 l 538 369 q 541 368 555 368 l 555 368 l 661 368 q 708 368 723 369 l 723 369 q 750 369 758 368 l 758 368 q 771 365 776 359 q 780 352 780 338 l 780 338 q 780 333 781 329 l 781 329 l 781 320 l 781 304 l 781 274 l 781 173 l 781 168 q 780 164 779 159 q 778 154 778 148 l 778 148 l 778 143 q 778 80 776 55 l 776 55 q 774 14 769 3 l 769 3 q 743 3 730 1 l 730 1 l 708 0 l 705 0 q 696 0 695 1 l 695 1 q 694 2 694 3 q 693 3 693 3 l 693 3 l 690 3 q 689 2 689 1 q 688 0 688 0 l 688 0 l 588 0 l 583 0 l 573 0 l 561 0 q 558 -1 553 -1 l 553 -1 q 549 -1 546 5 l 546 5 q 539 23 538 48 l 538 48 q 536 60 534 83 l 534 83 q 525 32 471 4 l 471 4 q 422 -23 348 -23 l 348 -23"},"Ğ":{"x_min":43,"x_max":781,"ha":828,"o":"m 348 -23 q 270 -23 208 13 l 208 13 q 138 47 93 125 l 93 125 q 43 213 43 333 l 43 333 q 43 418 73 486 q 103 554 159 601 l 159 601 q 214 647 288 671 q 362 695 449 695 l 449 695 q 577 695 713 630 l 713 630 l 674 460 q 667 462 658 465 q 648 468 636 471 l 636 471 q 581 485 555 489 l 555 489 q 531 493 516 493 l 516 493 q 453 493 420 459 l 420 459 q 381 420 381 328 l 381 328 q 381 244 406 208 l 406 208 q 427 174 468 174 l 468 174 q 494 174 528 188 l 528 188 q 528 204 526 236 l 526 236 l 525 258 q 524 281 524 326 l 524 326 l 524 353 q 524 362 527 366 q 530 369 538 369 l 538 369 q 541 368 555 368 l 555 368 l 661 368 q 708 368 723 369 l 723 369 q 750 369 758 368 l 758 368 q 771 365 776 359 q 780 352 780 338 l 780 338 q 780 333 781 329 l 781 329 l 781 320 l 781 304 l 781 274 l 781 173 l 781 168 q 780 164 779 159 q 778 154 778 148 l 778 148 l 778 143 q 778 80 776 55 l 776 55 q 774 14 769 3 l 769 3 q 743 3 730 1 l 730 1 l 708 0 l 705 0 q 696 0 695 1 l 695 1 q 694 2 694 3 q 693 3 693 3 l 693 3 l 690 3 q 689 2 689 1 q 688 0 688 0 l 688 0 l 588 0 l 583 0 l 573 0 l 561 0 q 558 -1 553 -1 l 553 -1 q 549 -1 546 5 l 546 5 q 539 23 538 48 l 538 48 q 536 60 534 83 l 534 83 q 525 32 471 4 l 471 4 q 422 -23 348 -23 l 348 -23 m 402 729 q 358 729 316 744 q 273 758 239 783 l 239 783 q 205 808 186 843 q 167 878 167 918 l 167 918 q 167 961 187 1002 l 187 1002 l 343 1001 q 334 965 334 932 l 334 932 l 335 911 q 335 911 336 910 q 337 908 338 906 l 338 906 q 344 891 378 878 l 378 878 q 395 872 424 872 l 424 872 q 453 872 477 896 l 477 896 q 498 917 498 951 l 498 951 q 498 982 490 1011 l 490 1011 l 652 1006 q 662 977 662 934 l 662 934 q 662 900 646 867 q 629 834 597 796 l 597 796 q 563 758 505 741 l 505 741 q 465 729 402 729 l 402 729"},"Ǧ":{"x_min":43,"x_max":781,"ha":828,"o":"m 348 -23 q 270 -23 208 13 l 208 13 q 138 47 93 125 l 93 125 q 43 213 43 333 l 43 333 q 43 418 73 486 q 103 554 159 601 l 159 601 q 214 647 288 671 q 362 695 449 695 l 449 695 q 577 695 713 630 l 713 630 l 674 460 q 667 462 658 465 q 648 468 636 471 l 636 471 q 581 485 555 489 l 555 489 q 531 493 516 493 l 516 493 q 453 493 420 459 l 420 459 q 381 420 381 328 l 381 328 q 381 244 406 208 l 406 208 q 427 174 468 174 l 468 174 q 494 174 528 188 l 528 188 q 528 204 526 236 l 526 236 l 525 258 q 524 281 524 326 l 524 326 l 524 353 q 524 362 527 366 q 530 369 538 369 l 538 369 q 541 368 555 368 l 555 368 l 661 368 q 708 368 723 369 l 723 369 q 750 369 758 368 l 758 368 q 771 365 776 359 q 780 352 780 338 l 780 338 q 780 333 781 329 l 781 329 l 781 320 l 781 304 l 781 274 l 781 173 l 781 168 q 780 164 779 159 q 778 154 778 148 l 778 148 l 778 143 q 778 80 776 55 l 776 55 q 774 14 769 3 l 769 3 q 743 3 730 1 l 730 1 l 708 0 l 705 0 q 696 0 695 1 l 695 1 q 694 2 694 3 q 693 3 693 3 l 693 3 l 690 3 q 689 2 689 1 q 688 0 688 0 l 688 0 l 588 0 l 583 0 l 573 0 l 561 0 q 558 -1 553 -1 l 553 -1 q 549 -1 546 5 l 546 5 q 539 23 538 48 l 538 48 q 536 60 534 83 l 534 83 q 525 32 471 4 l 471 4 q 422 -23 348 -23 l 348 -23 m 492 738 q 482 738 473 740 q 464 741 460 741 l 460 741 q 453 742 433 742 l 433 742 l 397 741 l 337 741 l 292 746 l 284 754 q 260 794 252 812 l 252 812 l 222 869 q 218 882 211 898 q 204 913 202 918 l 202 918 l 191 939 q 165 987 154 1016 l 154 1016 q 147 1032 139 1064 l 139 1064 l 138 1071 l 138 1077 q 138 1085 142 1091 q 145 1097 153 1097 l 153 1097 q 157 1097 166 1098 q 175 1098 182 1097 l 182 1097 q 192 1096 209 1096 l 209 1096 l 239 1096 l 243 1093 l 248 1097 l 268 1096 l 287 1096 q 292 1096 301 1089 q 310 1081 319 1069 l 319 1069 q 343 1039 362 1011 l 362 1011 q 396 959 415 924 l 415 924 q 425 940 449 972 l 449 972 l 473 1006 l 492 1031 q 515 1070 528 1086 l 528 1086 q 537 1096 542 1096 l 542 1096 l 563 1096 l 600 1097 l 620 1096 l 630 1096 l 653 1097 l 677 1097 q 684 1097 688 1091 q 692 1085 692 1077 l 692 1077 l 690 1071 l 690 1064 q 673 994 627 906 l 627 906 q 610 870 596 846 l 596 846 l 587 828 q 567 795 545 754 l 545 754 l 522 741 l 492 738"},"Ĝ":{"x_min":43,"x_max":781,"ha":828,"o":"m 348 -23 q 270 -23 208 13 l 208 13 q 138 47 93 125 l 93 125 q 43 213 43 333 l 43 333 q 43 418 73 486 q 103 554 159 601 l 159 601 q 214 647 288 671 q 362 695 449 695 l 449 695 q 577 695 713 630 l 713 630 l 674 460 q 667 462 658 465 q 648 468 636 471 l 636 471 q 581 485 555 489 l 555 489 q 531 493 516 493 l 516 493 q 453 493 420 459 l 420 459 q 381 420 381 328 l 381 328 q 381 244 406 208 l 406 208 q 427 174 468 174 l 468 174 q 494 174 528 188 l 528 188 q 528 204 526 236 l 526 236 l 525 258 q 524 281 524 326 l 524 326 l 524 353 q 524 362 527 366 q 530 369 538 369 l 538 369 q 541 368 555 368 l 555 368 l 661 368 q 708 368 723 369 l 723 369 q 750 369 758 368 l 758 368 q 771 365 776 359 q 780 352 780 338 l 780 338 q 780 333 781 329 l 781 329 l 781 320 l 781 304 l 781 274 l 781 173 l 781 168 q 780 164 779 159 q 778 154 778 148 l 778 148 l 778 143 q 778 80 776 55 l 776 55 q 774 14 769 3 l 769 3 q 743 3 730 1 l 730 1 l 708 0 l 705 0 q 696 0 695 1 l 695 1 q 694 2 694 3 q 693 3 693 3 l 693 3 l 690 3 q 689 2 689 1 q 688 0 688 0 l 688 0 l 588 0 l 583 0 l 573 0 l 561 0 q 558 -1 553 -1 l 553 -1 q 549 -1 546 5 l 546 5 q 539 23 538 48 l 538 48 q 536 60 534 83 l 534 83 q 525 32 471 4 l 471 4 q 422 -23 348 -23 l 348 -23 m 152 736 q 145 736 142 742 q 138 748 138 756 l 138 756 l 138 762 q 138 766 139 768 l 139 768 q 146 805 177 866 l 177 866 q 184 882 200 914 l 200 914 l 222 963 l 252 1021 q 260 1038 284 1078 l 284 1078 l 290 1086 l 337 1097 l 395 1097 l 433 1096 l 448 1096 l 459 1096 q 463 1094 472 1094 l 472 1094 l 492 1094 l 522 1091 l 544 1078 l 587 1004 q 642 903 663 849 l 663 849 q 681 804 689 768 l 689 768 l 690 762 l 690 756 q 690 736 675 736 l 675 736 l 653 736 l 629 736 l 600 736 l 563 736 l 542 736 q 537 736 528 747 l 528 747 q 507 774 490 802 l 490 802 q 480 818 473 827 l 473 827 q 446 861 414 908 l 414 908 q 375 842 362 822 l 362 822 l 349 804 q 329 774 319 763 l 319 763 q 295 736 287 736 l 287 736 l 268 736 l 247 736 l 243 739 l 238 736 l 208 736 q 204 736 198 737 q 192 737 182 736 l 182 736 l 152 736"},"Ģ":{"x_min":43,"x_max":781,"ha":828,"o":"m 348 -23 q 270 -23 208 13 l 208 13 q 138 47 93 125 l 93 125 q 43 213 43 333 l 43 333 q 43 418 73 486 q 103 554 159 601 l 159 601 q 214 647 288 671 q 362 695 449 695 l 449 695 q 577 695 713 630 l 713 630 l 674 460 q 667 462 658 465 q 648 468 636 471 l 636 471 q 581 485 555 489 l 555 489 q 531 493 516 493 l 516 493 q 453 493 420 459 l 420 459 q 381 420 381 328 l 381 328 q 381 244 406 208 l 406 208 q 427 174 468 174 l 468 174 q 494 174 528 188 l 528 188 q 528 204 526 236 l 526 236 l 525 258 q 524 281 524 326 l 524 326 l 524 353 q 524 362 527 366 q 530 369 538 369 l 538 369 q 541 368 555 368 l 555 368 l 661 368 q 708 368 723 369 l 723 369 q 750 369 758 368 l 758 368 q 771 365 776 359 q 780 352 780 338 l 780 338 q 780 333 781 329 l 781 329 l 781 320 l 781 304 l 781 274 l 781 173 l 781 168 q 780 164 779 159 q 778 154 778 148 l 778 148 l 778 143 q 778 80 776 55 l 776 55 q 774 14 769 3 l 769 3 q 743 3 730 1 l 730 1 l 708 0 l 705 0 q 696 0 695 1 l 695 1 q 694 2 694 3 q 693 3 693 3 l 693 3 l 690 3 q 689 2 689 1 q 688 0 688 0 l 688 0 l 588 0 l 583 0 l 573 0 l 561 0 q 558 -1 553 -1 l 553 -1 q 549 -1 546 5 l 546 5 q 539 23 538 48 l 538 48 q 536 60 534 83 l 534 83 q 525 32 471 4 l 471 4 q 422 -23 348 -23 l 348 -23 m 323 -375 q 319 -368 312 -356 q 304 -345 302 -333 l 302 -333 q 298 -314 298 -303 q 297 -293 297 -288 l 297 -288 q 350 -281 375 -256 l 375 -256 q 386 -243 390 -233 l 390 -233 q 392 -227 392 -226 l 392 -226 q 392 -223 390 -222 q 387 -222 383 -222 q 379 -223 375 -223 l 375 -223 q 368 -221 352 -221 l 352 -221 q 325 -221 302 -218 l 302 -218 q 295 -218 283 -214 l 283 -214 q 280 -213 278 -211 q 276 -210 275 -209 l 275 -209 q 270 -162 269 -138 l 269 -138 q 269 -117 268 -107 l 268 -107 q 268 -77 267 -68 l 267 -68 l 273 -63 l 320 -58 q 350 -54 363 -54 l 363 -54 l 407 -54 l 417 -56 q 420 -58 437 -58 l 437 -58 q 438 -56 443 -56 l 443 -56 q 460 -56 478 -58 l 478 -58 q 502 -61 513 -63 l 513 -63 q 514 -63 515 -62 q 516 -61 517 -61 l 517 -61 l 519 -61 q 523 -62 531 -64 q 538 -66 540 -68 l 540 -68 q 544 -72 545 -75 q 545 -78 545 -83 l 545 -83 q 545 -84 546 -86 q 547 -89 548 -95 l 548 -95 q 548 -100 550 -118 l 550 -118 q 551 -128 553 -138 q 555 -148 555 -156 l 555 -156 q 560 -189 560 -203 l 560 -203 q 560 -216 559 -223 l 559 -223 q 552 -275 523 -309 l 523 -309 q 501 -336 439 -355 q 377 -375 323 -375 l 323 -375"},"Ġ":{"x_min":43,"x_max":781,"ha":828,"o":"m 348 -23 q 270 -23 208 13 l 208 13 q 138 47 93 125 l 93 125 q 43 213 43 333 l 43 333 q 43 418 73 486 q 103 554 159 601 l 159 601 q 214 647 288 671 q 362 695 449 695 l 449 695 q 577 695 713 630 l 713 630 l 674 460 q 667 462 658 465 q 648 468 636 471 l 636 471 q 581 485 555 489 l 555 489 q 531 493 516 493 l 516 493 q 453 493 420 459 l 420 459 q 381 420 381 328 l 381 328 q 381 244 406 208 l 406 208 q 427 174 468 174 l 468 174 q 494 174 528 188 l 528 188 q 528 204 526 236 l 526 236 l 525 258 q 524 281 524 326 l 524 326 l 524 353 q 524 362 527 366 q 530 369 538 369 l 538 369 q 541 368 555 368 l 555 368 l 661 368 q 708 368 723 369 l 723 369 q 750 369 758 368 l 758 368 q 771 365 776 359 q 780 352 780 338 l 780 338 q 780 333 781 329 l 781 329 l 781 320 l 781 304 l 781 274 l 781 173 l 781 168 q 780 164 779 159 q 778 154 778 148 l 778 148 l 778 143 q 778 80 776 55 l 776 55 q 774 14 769 3 l 769 3 q 743 3 730 1 l 730 1 l 708 0 l 705 0 q 696 0 695 1 l 695 1 q 694 2 694 3 q 693 3 693 3 l 693 3 l 690 3 q 689 2 689 1 q 688 0 688 0 l 688 0 l 588 0 l 583 0 l 573 0 l 561 0 q 558 -1 553 -1 l 553 -1 q 549 -1 546 5 l 546 5 q 539 23 538 48 l 538 48 q 536 60 534 83 l 534 83 q 525 32 471 4 l 471 4 q 422 -23 348 -23 l 348 -23 m 412 736 q 402 736 395 737 l 395 737 q 385 739 377 739 l 377 739 l 292 746 l 285 753 q 283 763 283 801 l 283 801 q 283 847 287 884 l 287 884 q 287 899 289 923 l 289 923 l 290 952 q 292 967 318 967 l 318 967 q 344 967 355 966 l 355 966 q 364 966 373 965 q 382 964 392 964 l 392 964 q 409 964 418 966 l 418 966 l 449 966 l 459 966 l 472 966 l 482 966 l 490 966 l 504 966 q 509 967 518 967 l 518 967 q 544 967 544 954 l 544 954 l 544 952 q 542 946 542 936 l 542 936 l 542 927 l 542 912 q 542 908 543 901 q 543 893 543 877 l 543 877 l 543 773 q 542 770 541 768 q 540 765 539 761 l 539 761 q 536 750 528 746 l 528 746 q 526 746 523 745 q 519 744 514 744 l 514 744 q 512 744 512 746 l 512 746 l 507 746 l 507 746 l 500 743 l 477 741 q 475 741 473 740 q 471 739 469 739 l 469 739 l 462 737 q 461 737 453 739 l 453 739 q 451 739 449 740 q 447 741 445 741 l 445 741 q 443 741 443 739 l 443 739 l 437 736 l 412 736"},"H":{"x_min":56,"x_max":875,"ha":930,"o":"m 264 -6 q 201 -6 170 -4 l 170 -4 q 122 -2 86 8 l 86 8 q 82 8 78 20 l 78 20 q 75 29 75 34 l 75 34 l 56 398 l 56 418 q 56 425 57 443 q 58 461 58 491 l 58 491 l 60 543 q 60 563 61 573 l 61 573 q 61 603 63 631 l 63 631 q 63 640 64 644 q 64 647 64 648 l 64 648 q 66 649 72 654 q 77 658 81 661 l 81 661 q 91 670 110 670 l 110 670 l 168 670 l 184 670 q 194 669 221 669 l 221 669 q 250 669 268 668 l 268 668 l 314 668 l 351 668 l 366 668 q 392 668 401 660 l 401 660 q 413 651 413 625 l 413 625 l 413 615 q 413 611 412 607 q 411 603 411 599 l 411 599 l 409 583 l 408 571 q 408 567 410 563 l 410 563 q 411 559 411 553 l 411 553 q 411 526 410 514 l 410 514 l 409 473 l 435 473 q 448 470 463 470 l 463 470 q 483 468 491 468 l 491 468 q 500 466 518 466 l 518 466 l 519 534 q 520 543 520 560 l 520 560 l 521 601 l 521 609 q 521 625 522 638 q 523 650 526 655 l 526 655 q 532 663 540 663 l 540 663 q 546 665 568 665 l 568 665 l 595 666 q 624 666 643 668 l 643 668 l 700 668 q 740 668 758 669 l 758 669 q 793 669 806 670 l 806 670 l 833 670 q 857 670 865 664 l 865 664 q 871 660 873 653 q 875 645 875 631 l 875 631 q 875 592 873 526 l 873 526 q 869 462 869 423 l 869 423 q 869 417 871 413 l 871 413 q 871 409 872 407 q 873 404 873 403 l 873 403 l 848 23 q 848 18 841 9 l 841 9 q 832 0 825 0 l 825 0 l 550 0 q 547 0 544 5 q 541 10 539 18 l 539 18 q 538 23 537 32 q 535 40 534 53 l 534 53 l 523 238 l 516 238 q 489 238 473 239 l 473 239 q 435 241 426 241 l 426 241 l 418 241 q 409 241 409 224 l 409 224 q 409 100 408 66 l 408 66 q 408 58 405 28 l 405 28 q 403 5 388 0 l 388 0 l 373 -1 q 295 -5 264 -6 l 264 -6"},"Ħ":{"x_min":0,"x_max":938,"ha":930,"o":"m 264 -6 q 201 -6 170 -4 l 170 -4 q 122 -2 86 8 l 86 8 q 82 8 78 20 l 78 20 q 75 29 75 34 l 75 34 l 56 398 l 56 418 q 56 433 58 445 l 58 445 l 58 491 q 58 508 59 515 l 59 515 l 58 515 q 58 515 18 519 l 18 519 q 3 522 3 528 l 3 528 l 3 546 q 1 553 1 563 l 1 563 l 1 578 q 0 583 0 595 l 0 595 q 0 597 2 598 q 4 599 5 599 l 5 599 q 11 602 35 606 l 35 606 q 39 606 44 607 q 48 608 53 608 l 53 608 l 61 608 q 62 622 63 633 q 63 644 64 648 l 64 648 q 66 649 72 654 q 77 658 81 661 l 81 661 q 91 670 110 670 l 110 670 l 168 670 l 184 670 q 194 669 221 669 l 221 669 q 250 669 268 668 l 268 668 l 314 668 l 351 668 l 366 668 q 392 668 401 660 l 401 660 q 413 651 413 625 l 413 625 l 413 615 q 411 613 411 606 l 411 606 l 443 606 l 521 606 l 521 609 q 521 625 522 638 q 523 650 526 655 l 526 655 q 532 663 540 663 l 540 663 q 546 665 568 665 l 568 665 l 595 666 q 624 666 643 668 l 643 668 l 700 668 q 740 668 758 669 l 758 669 q 793 669 806 670 l 806 670 l 833 670 q 857 670 865 664 l 865 664 q 871 660 873 653 q 875 645 875 631 l 875 631 l 875 604 q 880 603 890 603 l 890 603 q 899 603 908 601 q 917 599 920 599 l 920 599 q 926 598 930 597 q 933 595 933 593 l 933 593 l 933 580 q 934 578 934 573 l 934 573 l 935 566 q 936 565 936 561 l 936 561 q 936 559 937 557 q 938 555 938 553 l 938 553 l 938 541 q 938 528 930 523 l 930 523 q 916 513 884 513 l 884 513 l 871 513 q 871 489 870 478 l 870 478 l 869 423 q 869 417 871 413 l 871 413 q 871 409 872 407 q 873 404 873 403 l 873 403 l 848 23 q 848 18 841 9 l 841 9 q 832 0 825 0 l 825 0 l 550 0 q 547 0 544 5 q 541 10 539 18 l 539 18 q 538 23 537 32 q 535 40 534 53 l 534 53 l 523 238 l 516 238 q 489 238 473 239 l 473 239 q 435 241 426 241 l 426 241 l 418 241 q 409 241 409 224 l 409 224 q 409 100 408 66 l 408 66 q 408 58 405 28 l 405 28 q 403 5 388 0 l 388 0 l 373 -1 q 295 -5 264 -6 l 264 -6 m 518 466 l 518 514 q 499 515 464 515 l 464 515 l 419 515 l 410 515 l 410 514 l 409 473 l 435 473 q 448 470 463 470 l 463 470 q 483 468 491 468 l 491 468 q 500 466 518 466 l 518 466"},"Ĥ":{"x_min":56,"x_max":875,"ha":930,"o":"m 264 -6 q 201 -6 170 -4 l 170 -4 q 122 -2 86 8 l 86 8 q 82 8 78 20 l 78 20 q 75 29 75 34 l 75 34 l 56 398 l 56 418 q 56 425 57 443 q 58 461 58 491 l 58 491 l 60 543 q 60 563 61 573 l 61 573 q 61 603 63 631 l 63 631 q 63 640 64 644 q 64 647 64 648 l 64 648 q 66 649 72 654 q 77 658 81 661 l 81 661 q 91 670 110 670 l 110 670 l 168 670 l 184 670 q 194 669 221 669 l 221 669 q 250 669 268 668 l 268 668 l 314 668 l 351 668 l 366 668 q 392 668 401 660 l 401 660 q 413 651 413 625 l 413 625 l 413 615 q 413 611 412 607 q 411 603 411 599 l 411 599 l 409 583 l 408 571 q 408 567 410 563 l 410 563 q 411 559 411 553 l 411 553 q 411 526 410 514 l 410 514 l 409 473 l 435 473 q 448 470 463 470 l 463 470 q 483 468 491 468 l 491 468 q 500 466 518 466 l 518 466 l 519 534 q 520 543 520 560 l 520 560 l 521 601 l 521 609 q 521 625 522 638 q 523 650 526 655 l 526 655 q 532 663 540 663 l 540 663 q 546 665 568 665 l 568 665 l 595 666 q 624 666 643 668 l 643 668 l 700 668 q 740 668 758 669 l 758 669 q 793 669 806 670 l 806 670 l 833 670 q 857 670 865 664 l 865 664 q 871 660 873 653 q 875 645 875 631 l 875 631 q 875 592 873 526 l 873 526 q 869 462 869 423 l 869 423 q 869 417 871 413 l 871 413 q 871 409 872 407 q 873 404 873 403 l 873 403 l 848 23 q 848 18 841 9 l 841 9 q 832 0 825 0 l 825 0 l 550 0 q 547 0 544 5 q 541 10 539 18 l 539 18 q 538 23 537 32 q 535 40 534 53 l 534 53 l 523 238 l 516 238 q 489 238 473 239 l 473 239 q 435 241 426 241 l 426 241 l 418 241 q 409 241 409 224 l 409 224 q 409 100 408 66 l 408 66 q 408 58 405 28 l 405 28 q 403 5 388 0 l 388 0 l 373 -1 q 295 -5 264 -6 l 264 -6 m 203 736 q 196 736 193 742 q 189 748 189 756 l 189 756 l 189 762 q 189 766 190 768 l 190 768 q 197 805 228 866 l 228 866 q 235 882 251 914 l 251 914 l 273 963 l 303 1021 q 311 1038 335 1078 l 335 1078 l 341 1086 l 388 1097 l 446 1097 l 484 1096 l 499 1096 l 510 1096 q 514 1094 523 1094 l 523 1094 l 543 1094 l 573 1091 l 595 1078 l 638 1004 q 693 903 714 849 l 714 849 q 732 804 740 768 l 740 768 l 741 762 l 741 756 q 741 736 726 736 l 726 736 l 704 736 l 680 736 l 651 736 l 614 736 l 593 736 q 588 736 579 747 l 579 747 q 558 774 541 802 l 541 802 q 531 818 524 827 l 524 827 q 497 861 465 908 l 465 908 q 426 842 413 822 l 413 822 l 400 804 q 380 774 370 763 l 370 763 q 346 736 338 736 l 338 736 l 319 736 l 298 736 l 294 739 l 289 736 l 259 736 q 255 736 249 737 q 243 737 233 736 l 233 736 l 203 736"},"I":{"x_min":59,"x_max":424,"ha":480,"o":"m 88 -1 q 81 -1 75 5 q 69 10 66 19 l 66 19 q 62 37 60 59 l 60 59 q 59 66 59 78 l 59 78 l 59 91 l 60 215 q 60 278 63 339 l 63 339 l 63 655 q 63 665 76 665 l 76 665 q 145 665 179 666 l 179 666 l 279 666 q 282 666 284 667 q 286 668 289 668 l 289 668 q 302 670 325 669 l 325 669 q 342 669 361 666 l 361 666 q 367 662 370 664 l 370 664 q 372 664 378 666 l 378 666 q 393 666 402 664 q 410 662 415 655 l 415 655 q 420 646 423 633 l 423 633 q 424 623 424 591 l 424 591 l 424 396 l 424 381 q 423 373 423 345 l 423 345 q 423 315 421 298 l 421 298 l 420 253 q 419 238 419 215 l 419 215 l 418 199 l 418 135 q 418 75 413 33 l 413 33 q 413 19 406 5 l 406 5 q 388 5 354 3 l 354 3 q 338 3 333 1 l 333 1 l 323 1 l 320 1 q 313 1 313 3 l 313 3 q 305 5 304 5 l 304 5 l 296 1 l 204 1 q 203 0 188 0 l 188 0 l 150 0 l 113 0 l 88 -1"},"Ĳ":{"x_min":59,"x_max":903,"ha":951,"o":"m 88 209 q 73 209 66 224 l 66 224 q 62 234 60 251 l 60 251 q 59 256 59 265 l 59 265 l 59 274 l 60 361 q 60 406 63 449 l 63 449 l 63 670 q 63 675 67 677 q 71 678 80 678 l 80 678 l 179 678 l 279 678 l 289 679 q 302 681 325 680 l 325 680 q 348 680 361 678 l 361 678 q 364 676 370 676 l 370 676 q 372 676 374 677 q 376 678 378 678 l 378 678 q 395 678 403 677 q 410 675 415 670 l 415 670 q 421 661 423 655 l 423 655 q 424 648 424 625 l 424 625 l 424 489 l 424 478 q 423 471 423 453 l 423 453 q 423 431 421 420 l 421 420 l 420 388 q 419 376 419 361 l 419 361 l 418 350 l 418 305 q 418 262 413 234 l 413 234 q 413 223 406 214 l 406 214 l 354 213 q 346 211 333 211 l 333 211 l 323 211 l 320 211 q 313 211 313 213 l 313 213 l 304 214 q 302 213 300 212 q 297 211 296 211 l 296 211 l 204 211 q 203 210 188 210 l 188 210 l 150 210 l 113 210 l 88 209 m 557 -29 q 427 -29 323 8 l 323 8 l 268 28 q 267 29 267 33 l 267 33 q 267 39 269 55 l 269 55 q 271 69 273 75 l 273 75 q 273 82 275 96 l 275 96 q 275 113 278 131 l 278 131 q 278 137 281 146 l 281 146 q 283 151 283 151 l 283 151 q 349 132 384 128 l 384 128 q 426 121 463 121 l 463 121 q 489 121 502 129 q 514 136 521 150 l 521 150 q 528 163 530 173 l 530 173 q 532 179 534 184 q 535 189 536 193 l 536 193 q 537 202 537 228 l 537 228 q 537 257 540 303 l 540 303 q 541 323 541 360 l 541 360 q 541 374 542 386 q 543 397 543 406 l 543 406 l 543 449 l 541 655 q 541 665 554 665 l 554 665 l 658 666 l 758 666 l 856 666 q 871 666 880 664 q 888 662 893 655 l 893 655 q 899 649 901 633 l 901 633 q 903 623 903 591 l 903 591 l 903 396 l 903 388 l 903 370 q 902 367 902 358 l 902 358 q 902 350 901 346 l 901 346 q 900 338 900 323 l 900 323 l 900 303 l 899 294 q 899 254 898 227 q 896 200 890 173 l 890 173 q 875 103 834 65 l 834 65 q 784 20 704 -8 l 704 -8 q 661 -21 634 -24 l 634 -24 q 591 -29 557 -29 l 557 -29"},"Í":{"x_min":59,"x_max":515,"ha":480,"o":"m 88 -1 q 81 -1 75 5 q 69 10 66 19 l 66 19 q 62 37 60 59 l 60 59 q 59 66 59 78 l 59 78 l 59 91 l 60 215 q 60 278 63 339 l 63 339 l 63 655 q 63 665 76 665 l 76 665 q 145 665 179 666 l 179 666 l 279 666 q 282 666 284 667 q 286 668 289 668 l 289 668 q 302 670 325 669 l 325 669 q 342 669 361 666 l 361 666 q 367 662 370 664 l 370 664 q 372 664 378 666 l 378 666 q 393 666 402 664 q 410 662 415 655 l 415 655 q 420 646 423 633 l 423 633 q 424 623 424 591 l 424 591 l 424 396 l 424 381 q 423 373 423 345 l 423 345 q 423 315 421 298 l 421 298 l 420 253 q 419 238 419 215 l 419 215 l 418 199 l 418 135 q 418 75 413 33 l 413 33 q 413 19 406 5 l 406 5 q 388 5 354 3 l 354 3 q 338 3 333 1 l 333 1 l 323 1 l 320 1 q 313 1 313 3 l 313 3 q 305 5 304 5 l 304 5 l 296 1 l 204 1 q 203 0 188 0 l 188 0 l 150 0 l 113 0 l 88 -1 m 175 736 q 164 736 160 744 q 156 752 156 766 l 156 766 q 156 816 165 871 l 165 871 q 171 903 173 923 l 173 923 q 174 932 176 946 q 178 959 179 976 l 179 976 q 193 1051 215 1131 l 215 1131 l 223 1137 l 266 1144 q 311 1144 330 1146 l 330 1146 l 385 1147 l 391 1144 q 394 1146 403 1146 l 403 1146 l 413 1146 q 413 1146 415 1145 q 416 1144 418 1144 l 418 1144 l 424 1143 l 468 1141 l 474 1138 q 478 1138 478 1139 l 478 1139 l 481 1139 q 498 1135 508 1131 l 508 1131 q 515 1129 515 1122 l 515 1122 q 515 1120 513 1112 l 513 1112 l 502 1093 l 488 1069 l 473 1041 q 463 1023 458 1016 l 458 1016 q 453 1009 450 1003 q 447 997 443 992 l 443 992 q 427 967 411 931 l 411 931 q 399 901 379 868 l 379 868 l 361 831 q 339 780 323 751 l 323 751 q 312 736 306 736 l 306 736 l 288 736 l 269 736 l 263 739 l 258 736 l 229 736 q 224 736 218 737 q 211 737 203 736 l 203 736 l 175 736"},"Ĭ":{"x_min":-7,"x_max":488,"ha":480,"o":"m 88 -1 q 81 -1 75 5 q 69 10 66 19 l 66 19 q 62 37 60 59 l 60 59 q 59 66 59 78 l 59 78 l 59 91 l 60 215 q 60 278 63 339 l 63 339 l 63 655 q 63 665 76 665 l 76 665 q 145 665 179 666 l 179 666 l 279 666 q 282 666 284 667 q 286 668 289 668 l 289 668 q 302 670 325 669 l 325 669 q 342 669 361 666 l 361 666 q 367 662 370 664 l 370 664 q 372 664 378 666 l 378 666 q 393 666 402 664 q 410 662 415 655 l 415 655 q 420 646 423 633 l 423 633 q 424 623 424 591 l 424 591 l 424 396 l 424 381 q 423 373 423 345 l 423 345 q 423 315 421 298 l 421 298 l 420 253 q 419 238 419 215 l 419 215 l 418 199 l 418 135 q 418 75 413 33 l 413 33 q 413 19 406 5 l 406 5 q 388 5 354 3 l 354 3 q 338 3 333 1 l 333 1 l 323 1 l 320 1 q 313 1 313 3 l 313 3 q 305 5 304 5 l 304 5 l 296 1 l 204 1 q 203 0 188 0 l 188 0 l 150 0 l 113 0 l 88 -1 m 228 729 q 184 729 142 744 q 99 758 65 783 l 65 783 q 31 808 12 843 q -7 878 -7 918 l -7 918 q -7 961 13 1002 l 13 1002 l 169 1001 q 160 965 160 932 l 160 932 l 161 911 q 161 911 162 910 q 163 908 164 906 l 164 906 q 170 891 204 878 l 204 878 q 221 872 250 872 l 250 872 q 279 872 303 896 l 303 896 q 324 917 324 951 l 324 951 q 324 982 316 1011 l 316 1011 l 478 1006 q 488 977 488 934 l 488 934 q 488 900 472 867 q 455 834 423 796 l 423 796 q 389 758 331 741 l 331 741 q 291 729 228 729 l 228 729"},"Î":{"x_min":-36,"x_max":516,"ha":480,"o":"m 88 -1 q 81 -1 75 5 q 69 10 66 19 l 66 19 q 62 37 60 59 l 60 59 q 59 66 59 78 l 59 78 l 59 91 l 60 215 q 60 278 63 339 l 63 339 l 63 655 q 63 665 76 665 l 76 665 q 145 665 179 666 l 179 666 l 279 666 q 282 666 284 667 q 286 668 289 668 l 289 668 q 302 670 325 669 l 325 669 q 342 669 361 666 l 361 666 q 367 662 370 664 l 370 664 q 372 664 378 666 l 378 666 q 393 666 402 664 q 410 662 415 655 l 415 655 q 420 646 423 633 l 423 633 q 424 623 424 591 l 424 591 l 424 396 l 424 381 q 423 373 423 345 l 423 345 q 423 315 421 298 l 421 298 l 420 253 q 419 238 419 215 l 419 215 l 418 199 l 418 135 q 418 75 413 33 l 413 33 q 413 19 406 5 l 406 5 q 388 5 354 3 l 354 3 q 338 3 333 1 l 333 1 l 323 1 l 320 1 q 313 1 313 3 l 313 3 q 305 5 304 5 l 304 5 l 296 1 l 204 1 q 203 0 188 0 l 188 0 l 150 0 l 113 0 l 88 -1 m -22 736 q -29 736 -32 742 q -36 748 -36 756 l -36 756 l -36 762 q -36 766 -35 768 l -35 768 q -28 805 3 866 l 3 866 q 10 882 26 914 l 26 914 l 48 963 l 78 1021 q 86 1038 110 1078 l 110 1078 l 116 1086 l 163 1097 l 221 1097 l 259 1096 l 274 1096 l 285 1096 q 289 1094 298 1094 l 298 1094 l 318 1094 l 348 1091 l 370 1078 l 413 1004 q 468 903 489 849 l 489 849 q 507 804 515 768 l 515 768 l 516 762 l 516 756 q 516 736 501 736 l 501 736 l 479 736 l 455 736 l 426 736 l 389 736 l 368 736 q 363 736 354 747 l 354 747 q 333 774 316 802 l 316 802 q 306 818 299 827 l 299 827 q 272 861 240 908 l 240 908 q 201 842 188 822 l 188 822 l 175 804 q 155 774 145 763 l 145 763 q 121 736 113 736 l 113 736 l 94 736 l 73 736 l 69 739 l 64 736 l 34 736 q 30 736 24 737 q 18 737 8 736 l 8 736 l -22 736"},"Ȉ":{"x_min":-198,"x_max":508,"ha":480,"o":"m 88 -1 q 81 -1 75 5 q 69 10 66 19 l 66 19 q 62 37 60 59 l 60 59 q 59 66 59 78 l 59 78 l 59 91 l 60 215 q 60 278 63 339 l 63 339 l 63 655 q 63 665 76 665 l 76 665 q 145 665 179 666 l 179 666 l 279 666 q 282 666 284 667 q 286 668 289 668 l 289 668 q 302 670 325 669 l 325 669 q 342 669 361 666 l 361 666 q 367 662 370 664 l 370 664 q 372 664 378 666 l 378 666 q 393 666 402 664 q 410 662 415 655 l 415 655 q 420 646 423 633 l 423 633 q 424 623 424 591 l 424 591 l 424 396 l 424 381 q 423 373 423 345 l 423 345 q 423 315 421 298 l 421 298 l 420 253 q 419 238 419 215 l 419 215 l 418 199 l 418 135 q 418 75 413 33 l 413 33 q 413 19 406 5 l 406 5 q 388 5 354 3 l 354 3 q 338 3 333 1 l 333 1 l 323 1 l 320 1 q 313 1 313 3 l 313 3 q 305 5 304 5 l 304 5 l 296 1 l 204 1 q 203 0 188 0 l 188 0 l 150 0 l 113 0 l 88 -1 m 48 736 l 30 736 l 11 736 q 4 736 -5 751 l -5 751 q -21 777 -44 831 l -44 831 l -62 868 q -66 876 -94 931 l -94 931 q -107 964 -126 992 l -126 992 q -134 1004 -140 1016 l -140 1016 l -155 1041 q -158 1047 -162 1056 q -167 1064 -171 1069 l -171 1069 q -180 1081 -195 1112 l -195 1112 q -198 1118 -198 1121 l -198 1121 q -198 1127 -191 1131 l -191 1131 q -185 1134 -164 1139 l -164 1139 l -161 1139 q -160 1138 -158 1138 q -157 1138 -157 1138 l -157 1138 l -150 1141 l -107 1143 l -100 1144 q -98 1144 -97 1145 q -96 1146 -95 1146 l -95 1146 l -85 1146 q -77 1146 -74 1144 l -74 1144 l -67 1147 l -12 1146 q 6 1144 51 1144 l 51 1144 l 94 1137 l 103 1131 q 122 1063 138 976 l 138 976 l 145 923 l 153 871 l 156 837 q 161 797 161 766 l 161 766 q 161 752 158 744 q 154 736 143 736 l 143 736 l 115 736 l 88 736 l 59 736 l 55 739 l 48 736 m 376 736 l 358 736 l 339 736 q 331 736 325 751 l 325 751 q 310 795 300 831 l 300 831 q 292 860 289 868 l 289 868 q 281 887 276 906 q 270 925 268 931 l 268 931 q 257 973 248 992 l 248 992 q 241 1003 238 1016 l 238 1016 q 234 1023 226 1041 l 226 1041 q 224 1047 220 1055 q 216 1063 214 1069 l 214 1069 q 207 1088 206 1091 l 206 1091 q 202 1099 201 1104 q 199 1109 198 1112 l 198 1112 q 197 1115 197 1119 l 197 1119 q 197 1127 206 1131 l 206 1131 q 214 1134 234 1139 l 234 1139 l 238 1139 q 238 1138 241 1138 l 241 1138 l 249 1141 l 293 1143 l 298 1144 q 300 1144 302 1145 q 304 1146 305 1146 l 305 1146 l 315 1146 q 323 1146 325 1144 l 325 1144 l 333 1147 l 386 1146 q 405 1144 450 1144 l 450 1144 l 493 1137 l 499 1131 q 504 1072 508 976 l 508 976 q 505 949 505 923 l 505 923 q 505 888 504 871 l 504 871 q 503 828 494 766 l 494 766 q 492 736 470 736 l 470 736 l 443 736 l 416 736 l 388 736 l 384 739 l 376 736"},"Ï":{"x_min":-31,"x_max":511,"ha":480,"o":"m 88 -1 q 81 -1 75 5 q 69 10 66 19 l 66 19 q 62 37 60 59 l 60 59 q 59 66 59 78 l 59 78 l 59 91 l 60 215 q 60 278 63 339 l 63 339 l 63 655 q 63 665 76 665 l 76 665 q 145 665 179 666 l 179 666 l 279 666 q 282 666 284 667 q 286 668 289 668 l 289 668 q 302 670 325 669 l 325 669 q 342 669 361 666 l 361 666 q 367 662 370 664 l 370 664 q 372 664 378 666 l 378 666 q 393 666 402 664 q 410 662 415 655 l 415 655 q 420 646 423 633 l 423 633 q 424 623 424 591 l 424 591 l 424 396 l 424 381 q 423 373 423 345 l 423 345 q 423 315 421 298 l 421 298 l 420 253 q 419 238 419 215 l 419 215 l 418 199 l 418 135 q 418 75 413 33 l 413 33 q 413 19 406 5 l 406 5 q 388 5 354 3 l 354 3 q 338 3 333 1 l 333 1 l 323 1 l 320 1 q 313 1 313 3 l 313 3 q 305 5 304 5 l 304 5 l 296 1 l 204 1 q 203 0 188 0 l 188 0 l 150 0 l 113 0 l 88 -1 m -16 771 l -22 777 l -29 809 l -29 838 l -30 858 l -31 864 q -31 872 -27 877 l -27 877 l -24 908 l -24 911 l -25 916 q -21 928 -14 939 l -14 939 q -9 944 4 944 l 4 944 l 108 944 q 133 947 143 947 l 143 947 q 153 947 156 946 l 156 946 q 159 946 162 945 q 165 944 169 944 l 169 944 l 176 944 q 178 944 180 945 q 181 946 183 946 l 183 946 l 186 946 q 198 946 198 921 l 198 921 l 198 901 q 196 893 196 881 l 196 881 q 196 880 197 878 q 197 876 198 874 l 198 874 l 198 864 l 198 852 l 198 842 l 198 821 q 199 813 199 798 l 199 798 q 199 788 195 780 q 191 772 183 771 l 183 771 l -16 771 m 348 771 l 289 777 l 283 809 l 283 838 q 283 854 280 864 l 280 864 l 280 869 q 279 871 279 877 l 279 877 q 279 881 279 891 q 278 900 278 918 l 278 918 q 278 919 279 920 q 279 921 278 922 l 278 922 l 278 926 q 280 928 284 934 q 287 939 291 941 l 291 941 q 302 944 316 944 l 316 944 l 420 944 q 447 947 454 947 l 454 947 q 464 947 468 946 l 468 946 q 470 946 473 945 q 476 944 481 944 l 481 944 l 488 944 q 490 944 492 945 q 493 946 495 946 l 495 946 l 498 946 q 505 946 507 940 q 509 933 509 921 l 509 921 l 509 908 l 508 881 q 508 880 508 878 q 508 876 509 874 l 509 874 l 509 864 l 509 852 l 509 842 l 508 831 l 508 821 q 508 813 509 811 l 509 811 q 511 803 511 798 l 511 798 q 511 772 495 771 l 495 771 l 348 771"}}}
